G04 #@! TF.GenerationSoftware,KiCad,Pcbnew,7.0.7*
G04 #@! TF.CreationDate,2023-10-12T17:33:54+02:00*
G04 #@! TF.ProjectId,LDAD_ABS_ENCLOSURE_52X48_1.69_LCD_TFT_16_bit_INA237,4c444144-5f41-4425-935f-454e434c4f53,5.3*
G04 #@! TF.SameCoordinates,Original*
G04 #@! TF.FileFunction,Glue,Top*
G04 #@! TF.FilePolarity,Positive*
%FSLAX46Y46*%
G04 Gerber Fmt 4.6, Leading zero omitted, Abs format (unit mm)*
G04 Created by KiCad (PCBNEW 7.0.7) date 2023-10-12 17:33:54*
%MOMM*%
%LPD*%
G01*
G04 APERTURE LIST*
%ADD10C,0.100000*%
%ADD11C,0.150000*%
%ADD12C,0.300000*%
%ADD13C,0.400000*%
G04 #@! TA.AperFunction,Profile*
%ADD14C,0.100000*%
G04 #@! TD*
G04 #@! TA.AperFunction,Profile*
%ADD15C,0.120000*%
G04 #@! TD*
G04 APERTURE END LIST*
D10*
D11*
X177002200Y-166007200D02*
X285002200Y-166007200D01*
X285002200Y-198007200D01*
X177002200Y-198007200D01*
X177002200Y-166007200D01*
D10*
D11*
X10000000Y-10000000D02*
X287002200Y-10000000D01*
X287002200Y-200007200D01*
X10000000Y-200007200D01*
X10000000Y-10000000D01*
D10*
D11*
X12000000Y-12000000D02*
X285002200Y-12000000D01*
X285002200Y-198007200D01*
X12000000Y-198007200D01*
X12000000Y-12000000D01*
D10*
D11*
X60000000Y-12000000D02*
X60000000Y-10000000D01*
D10*
D11*
X110000000Y-12000000D02*
X110000000Y-10000000D01*
D10*
D11*
X160000000Y-12000000D02*
X160000000Y-10000000D01*
D10*
D11*
X210000000Y-12000000D02*
X210000000Y-10000000D01*
D10*
D11*
X260000000Y-12000000D02*
X260000000Y-10000000D01*
D10*
D11*
X36089160Y-11593604D02*
X35346303Y-11593604D01*
X35717731Y-11593604D02*
X35717731Y-10293604D01*
X35717731Y-10293604D02*
X35593922Y-10479319D01*
X35593922Y-10479319D02*
X35470112Y-10603128D01*
X35470112Y-10603128D02*
X35346303Y-10665033D01*
D10*
D11*
X85346303Y-10417414D02*
X85408207Y-10355509D01*
X85408207Y-10355509D02*
X85532017Y-10293604D01*
X85532017Y-10293604D02*
X85841541Y-10293604D01*
X85841541Y-10293604D02*
X85965350Y-10355509D01*
X85965350Y-10355509D02*
X86027255Y-10417414D01*
X86027255Y-10417414D02*
X86089160Y-10541223D01*
X86089160Y-10541223D02*
X86089160Y-10665033D01*
X86089160Y-10665033D02*
X86027255Y-10850747D01*
X86027255Y-10850747D02*
X85284398Y-11593604D01*
X85284398Y-11593604D02*
X86089160Y-11593604D01*
D10*
D11*
X135284398Y-10293604D02*
X136089160Y-10293604D01*
X136089160Y-10293604D02*
X135655826Y-10788842D01*
X135655826Y-10788842D02*
X135841541Y-10788842D01*
X135841541Y-10788842D02*
X135965350Y-10850747D01*
X135965350Y-10850747D02*
X136027255Y-10912652D01*
X136027255Y-10912652D02*
X136089160Y-11036461D01*
X136089160Y-11036461D02*
X136089160Y-11345985D01*
X136089160Y-11345985D02*
X136027255Y-11469795D01*
X136027255Y-11469795D02*
X135965350Y-11531700D01*
X135965350Y-11531700D02*
X135841541Y-11593604D01*
X135841541Y-11593604D02*
X135470112Y-11593604D01*
X135470112Y-11593604D02*
X135346303Y-11531700D01*
X135346303Y-11531700D02*
X135284398Y-11469795D01*
D10*
D11*
X185965350Y-10726938D02*
X185965350Y-11593604D01*
X185655826Y-10231700D02*
X185346303Y-11160271D01*
X185346303Y-11160271D02*
X186151064Y-11160271D01*
D10*
D11*
X236027255Y-10293604D02*
X235408207Y-10293604D01*
X235408207Y-10293604D02*
X235346303Y-10912652D01*
X235346303Y-10912652D02*
X235408207Y-10850747D01*
X235408207Y-10850747D02*
X235532017Y-10788842D01*
X235532017Y-10788842D02*
X235841541Y-10788842D01*
X235841541Y-10788842D02*
X235965350Y-10850747D01*
X235965350Y-10850747D02*
X236027255Y-10912652D01*
X236027255Y-10912652D02*
X236089160Y-11036461D01*
X236089160Y-11036461D02*
X236089160Y-11345985D01*
X236089160Y-11345985D02*
X236027255Y-11469795D01*
X236027255Y-11469795D02*
X235965350Y-11531700D01*
X235965350Y-11531700D02*
X235841541Y-11593604D01*
X235841541Y-11593604D02*
X235532017Y-11593604D01*
X235532017Y-11593604D02*
X235408207Y-11531700D01*
X235408207Y-11531700D02*
X235346303Y-11469795D01*
D10*
D11*
X285965350Y-10293604D02*
X285717731Y-10293604D01*
X285717731Y-10293604D02*
X285593922Y-10355509D01*
X285593922Y-10355509D02*
X285532017Y-10417414D01*
X285532017Y-10417414D02*
X285408207Y-10603128D01*
X285408207Y-10603128D02*
X285346303Y-10850747D01*
X285346303Y-10850747D02*
X285346303Y-11345985D01*
X285346303Y-11345985D02*
X285408207Y-11469795D01*
X285408207Y-11469795D02*
X285470112Y-11531700D01*
X285470112Y-11531700D02*
X285593922Y-11593604D01*
X285593922Y-11593604D02*
X285841541Y-11593604D01*
X285841541Y-11593604D02*
X285965350Y-11531700D01*
X285965350Y-11531700D02*
X286027255Y-11469795D01*
X286027255Y-11469795D02*
X286089160Y-11345985D01*
X286089160Y-11345985D02*
X286089160Y-11036461D01*
X286089160Y-11036461D02*
X286027255Y-10912652D01*
X286027255Y-10912652D02*
X285965350Y-10850747D01*
X285965350Y-10850747D02*
X285841541Y-10788842D01*
X285841541Y-10788842D02*
X285593922Y-10788842D01*
X285593922Y-10788842D02*
X285470112Y-10850747D01*
X285470112Y-10850747D02*
X285408207Y-10912652D01*
X285408207Y-10912652D02*
X285346303Y-11036461D01*
D10*
D11*
X60000000Y-198007200D02*
X60000000Y-200007200D01*
D10*
D11*
X110000000Y-198007200D02*
X110000000Y-200007200D01*
D10*
D11*
X160000000Y-198007200D02*
X160000000Y-200007200D01*
D10*
D11*
X210000000Y-198007200D02*
X210000000Y-200007200D01*
D10*
D11*
X260000000Y-198007200D02*
X260000000Y-200007200D01*
D10*
D11*
X36089160Y-199600804D02*
X35346303Y-199600804D01*
X35717731Y-199600804D02*
X35717731Y-198300804D01*
X35717731Y-198300804D02*
X35593922Y-198486519D01*
X35593922Y-198486519D02*
X35470112Y-198610328D01*
X35470112Y-198610328D02*
X35346303Y-198672233D01*
D10*
D11*
X85346303Y-198424614D02*
X85408207Y-198362709D01*
X85408207Y-198362709D02*
X85532017Y-198300804D01*
X85532017Y-198300804D02*
X85841541Y-198300804D01*
X85841541Y-198300804D02*
X85965350Y-198362709D01*
X85965350Y-198362709D02*
X86027255Y-198424614D01*
X86027255Y-198424614D02*
X86089160Y-198548423D01*
X86089160Y-198548423D02*
X86089160Y-198672233D01*
X86089160Y-198672233D02*
X86027255Y-198857947D01*
X86027255Y-198857947D02*
X85284398Y-199600804D01*
X85284398Y-199600804D02*
X86089160Y-199600804D01*
D10*
D11*
X135284398Y-198300804D02*
X136089160Y-198300804D01*
X136089160Y-198300804D02*
X135655826Y-198796042D01*
X135655826Y-198796042D02*
X135841541Y-198796042D01*
X135841541Y-198796042D02*
X135965350Y-198857947D01*
X135965350Y-198857947D02*
X136027255Y-198919852D01*
X136027255Y-198919852D02*
X136089160Y-199043661D01*
X136089160Y-199043661D02*
X136089160Y-199353185D01*
X136089160Y-199353185D02*
X136027255Y-199476995D01*
X136027255Y-199476995D02*
X135965350Y-199538900D01*
X135965350Y-199538900D02*
X135841541Y-199600804D01*
X135841541Y-199600804D02*
X135470112Y-199600804D01*
X135470112Y-199600804D02*
X135346303Y-199538900D01*
X135346303Y-199538900D02*
X135284398Y-199476995D01*
D10*
D11*
X185965350Y-198734138D02*
X185965350Y-199600804D01*
X185655826Y-198238900D02*
X185346303Y-199167471D01*
X185346303Y-199167471D02*
X186151064Y-199167471D01*
D10*
D11*
X236027255Y-198300804D02*
X235408207Y-198300804D01*
X235408207Y-198300804D02*
X235346303Y-198919852D01*
X235346303Y-198919852D02*
X235408207Y-198857947D01*
X235408207Y-198857947D02*
X235532017Y-198796042D01*
X235532017Y-198796042D02*
X235841541Y-198796042D01*
X235841541Y-198796042D02*
X235965350Y-198857947D01*
X235965350Y-198857947D02*
X236027255Y-198919852D01*
X236027255Y-198919852D02*
X236089160Y-199043661D01*
X236089160Y-199043661D02*
X236089160Y-199353185D01*
X236089160Y-199353185D02*
X236027255Y-199476995D01*
X236027255Y-199476995D02*
X235965350Y-199538900D01*
X235965350Y-199538900D02*
X235841541Y-199600804D01*
X235841541Y-199600804D02*
X235532017Y-199600804D01*
X235532017Y-199600804D02*
X235408207Y-199538900D01*
X235408207Y-199538900D02*
X235346303Y-199476995D01*
D10*
D11*
X285965350Y-198300804D02*
X285717731Y-198300804D01*
X285717731Y-198300804D02*
X285593922Y-198362709D01*
X285593922Y-198362709D02*
X285532017Y-198424614D01*
X285532017Y-198424614D02*
X285408207Y-198610328D01*
X285408207Y-198610328D02*
X285346303Y-198857947D01*
X285346303Y-198857947D02*
X285346303Y-199353185D01*
X285346303Y-199353185D02*
X285408207Y-199476995D01*
X285408207Y-199476995D02*
X285470112Y-199538900D01*
X285470112Y-199538900D02*
X285593922Y-199600804D01*
X285593922Y-199600804D02*
X285841541Y-199600804D01*
X285841541Y-199600804D02*
X285965350Y-199538900D01*
X285965350Y-199538900D02*
X286027255Y-199476995D01*
X286027255Y-199476995D02*
X286089160Y-199353185D01*
X286089160Y-199353185D02*
X286089160Y-199043661D01*
X286089160Y-199043661D02*
X286027255Y-198919852D01*
X286027255Y-198919852D02*
X285965350Y-198857947D01*
X285965350Y-198857947D02*
X285841541Y-198796042D01*
X285841541Y-198796042D02*
X285593922Y-198796042D01*
X285593922Y-198796042D02*
X285470112Y-198857947D01*
X285470112Y-198857947D02*
X285408207Y-198919852D01*
X285408207Y-198919852D02*
X285346303Y-199043661D01*
D10*
D11*
X10000000Y-60000000D02*
X12000000Y-60000000D01*
D10*
D11*
X10000000Y-110000000D02*
X12000000Y-110000000D01*
D10*
D11*
X10000000Y-160000000D02*
X12000000Y-160000000D01*
D10*
D11*
X10690476Y-35222176D02*
X11309523Y-35222176D01*
X10566666Y-35593604D02*
X10999999Y-34293604D01*
X10999999Y-34293604D02*
X11433333Y-35593604D01*
D10*
D11*
X11092857Y-84912652D02*
X11278571Y-84974557D01*
X11278571Y-84974557D02*
X11340476Y-85036461D01*
X11340476Y-85036461D02*
X11402380Y-85160271D01*
X11402380Y-85160271D02*
X11402380Y-85345985D01*
X11402380Y-85345985D02*
X11340476Y-85469795D01*
X11340476Y-85469795D02*
X11278571Y-85531700D01*
X11278571Y-85531700D02*
X11154761Y-85593604D01*
X11154761Y-85593604D02*
X10659523Y-85593604D01*
X10659523Y-85593604D02*
X10659523Y-84293604D01*
X10659523Y-84293604D02*
X11092857Y-84293604D01*
X11092857Y-84293604D02*
X11216666Y-84355509D01*
X11216666Y-84355509D02*
X11278571Y-84417414D01*
X11278571Y-84417414D02*
X11340476Y-84541223D01*
X11340476Y-84541223D02*
X11340476Y-84665033D01*
X11340476Y-84665033D02*
X11278571Y-84788842D01*
X11278571Y-84788842D02*
X11216666Y-84850747D01*
X11216666Y-84850747D02*
X11092857Y-84912652D01*
X11092857Y-84912652D02*
X10659523Y-84912652D01*
D10*
D11*
X11402380Y-135469795D02*
X11340476Y-135531700D01*
X11340476Y-135531700D02*
X11154761Y-135593604D01*
X11154761Y-135593604D02*
X11030952Y-135593604D01*
X11030952Y-135593604D02*
X10845238Y-135531700D01*
X10845238Y-135531700D02*
X10721428Y-135407890D01*
X10721428Y-135407890D02*
X10659523Y-135284080D01*
X10659523Y-135284080D02*
X10597619Y-135036461D01*
X10597619Y-135036461D02*
X10597619Y-134850747D01*
X10597619Y-134850747D02*
X10659523Y-134603128D01*
X10659523Y-134603128D02*
X10721428Y-134479319D01*
X10721428Y-134479319D02*
X10845238Y-134355509D01*
X10845238Y-134355509D02*
X11030952Y-134293604D01*
X11030952Y-134293604D02*
X11154761Y-134293604D01*
X11154761Y-134293604D02*
X11340476Y-134355509D01*
X11340476Y-134355509D02*
X11402380Y-134417414D01*
D10*
D11*
X10659523Y-185593604D02*
X10659523Y-184293604D01*
X10659523Y-184293604D02*
X10969047Y-184293604D01*
X10969047Y-184293604D02*
X11154761Y-184355509D01*
X11154761Y-184355509D02*
X11278571Y-184479319D01*
X11278571Y-184479319D02*
X11340476Y-184603128D01*
X11340476Y-184603128D02*
X11402380Y-184850747D01*
X11402380Y-184850747D02*
X11402380Y-185036461D01*
X11402380Y-185036461D02*
X11340476Y-185284080D01*
X11340476Y-185284080D02*
X11278571Y-185407890D01*
X11278571Y-185407890D02*
X11154761Y-185531700D01*
X11154761Y-185531700D02*
X10969047Y-185593604D01*
X10969047Y-185593604D02*
X10659523Y-185593604D01*
D10*
D11*
X287002200Y-60000000D02*
X285002200Y-60000000D01*
D10*
D11*
X287002200Y-110000000D02*
X285002200Y-110000000D01*
D10*
D11*
X287002200Y-160000000D02*
X285002200Y-160000000D01*
D10*
D11*
X285692676Y-35222176D02*
X286311723Y-35222176D01*
X285568866Y-35593604D02*
X286002199Y-34293604D01*
X286002199Y-34293604D02*
X286435533Y-35593604D01*
D10*
D11*
X286095057Y-84912652D02*
X286280771Y-84974557D01*
X286280771Y-84974557D02*
X286342676Y-85036461D01*
X286342676Y-85036461D02*
X286404580Y-85160271D01*
X286404580Y-85160271D02*
X286404580Y-85345985D01*
X286404580Y-85345985D02*
X286342676Y-85469795D01*
X286342676Y-85469795D02*
X286280771Y-85531700D01*
X286280771Y-85531700D02*
X286156961Y-85593604D01*
X286156961Y-85593604D02*
X285661723Y-85593604D01*
X285661723Y-85593604D02*
X285661723Y-84293604D01*
X285661723Y-84293604D02*
X286095057Y-84293604D01*
X286095057Y-84293604D02*
X286218866Y-84355509D01*
X286218866Y-84355509D02*
X286280771Y-84417414D01*
X286280771Y-84417414D02*
X286342676Y-84541223D01*
X286342676Y-84541223D02*
X286342676Y-84665033D01*
X286342676Y-84665033D02*
X286280771Y-84788842D01*
X286280771Y-84788842D02*
X286218866Y-84850747D01*
X286218866Y-84850747D02*
X286095057Y-84912652D01*
X286095057Y-84912652D02*
X285661723Y-84912652D01*
D10*
D11*
X286404580Y-135469795D02*
X286342676Y-135531700D01*
X286342676Y-135531700D02*
X286156961Y-135593604D01*
X286156961Y-135593604D02*
X286033152Y-135593604D01*
X286033152Y-135593604D02*
X285847438Y-135531700D01*
X285847438Y-135531700D02*
X285723628Y-135407890D01*
X285723628Y-135407890D02*
X285661723Y-135284080D01*
X285661723Y-135284080D02*
X285599819Y-135036461D01*
X285599819Y-135036461D02*
X285599819Y-134850747D01*
X285599819Y-134850747D02*
X285661723Y-134603128D01*
X285661723Y-134603128D02*
X285723628Y-134479319D01*
X285723628Y-134479319D02*
X285847438Y-134355509D01*
X285847438Y-134355509D02*
X286033152Y-134293604D01*
X286033152Y-134293604D02*
X286156961Y-134293604D01*
X286156961Y-134293604D02*
X286342676Y-134355509D01*
X286342676Y-134355509D02*
X286404580Y-134417414D01*
D10*
D11*
X285661723Y-185593604D02*
X285661723Y-184293604D01*
X285661723Y-184293604D02*
X285971247Y-184293604D01*
X285971247Y-184293604D02*
X286156961Y-184355509D01*
X286156961Y-184355509D02*
X286280771Y-184479319D01*
X286280771Y-184479319D02*
X286342676Y-184603128D01*
X286342676Y-184603128D02*
X286404580Y-184850747D01*
X286404580Y-184850747D02*
X286404580Y-185036461D01*
X286404580Y-185036461D02*
X286342676Y-185284080D01*
X286342676Y-185284080D02*
X286280771Y-185407890D01*
X286280771Y-185407890D02*
X286156961Y-185531700D01*
X286156961Y-185531700D02*
X285971247Y-185593604D01*
X285971247Y-185593604D02*
X285661723Y-185593604D01*
D10*
D11*
X200458026Y-193793328D02*
X200458026Y-192293328D01*
X200458026Y-192293328D02*
X200815169Y-192293328D01*
X200815169Y-192293328D02*
X201029455Y-192364757D01*
X201029455Y-192364757D02*
X201172312Y-192507614D01*
X201172312Y-192507614D02*
X201243741Y-192650471D01*
X201243741Y-192650471D02*
X201315169Y-192936185D01*
X201315169Y-192936185D02*
X201315169Y-193150471D01*
X201315169Y-193150471D02*
X201243741Y-193436185D01*
X201243741Y-193436185D02*
X201172312Y-193579042D01*
X201172312Y-193579042D02*
X201029455Y-193721900D01*
X201029455Y-193721900D02*
X200815169Y-193793328D01*
X200815169Y-193793328D02*
X200458026Y-193793328D01*
X202600884Y-193793328D02*
X202600884Y-193007614D01*
X202600884Y-193007614D02*
X202529455Y-192864757D01*
X202529455Y-192864757D02*
X202386598Y-192793328D01*
X202386598Y-192793328D02*
X202100884Y-192793328D01*
X202100884Y-192793328D02*
X201958026Y-192864757D01*
X202600884Y-193721900D02*
X202458026Y-193793328D01*
X202458026Y-193793328D02*
X202100884Y-193793328D01*
X202100884Y-193793328D02*
X201958026Y-193721900D01*
X201958026Y-193721900D02*
X201886598Y-193579042D01*
X201886598Y-193579042D02*
X201886598Y-193436185D01*
X201886598Y-193436185D02*
X201958026Y-193293328D01*
X201958026Y-193293328D02*
X202100884Y-193221900D01*
X202100884Y-193221900D02*
X202458026Y-193221900D01*
X202458026Y-193221900D02*
X202600884Y-193150471D01*
X203100884Y-192793328D02*
X203672312Y-192793328D01*
X203315169Y-192293328D02*
X203315169Y-193579042D01*
X203315169Y-193579042D02*
X203386598Y-193721900D01*
X203386598Y-193721900D02*
X203529455Y-193793328D01*
X203529455Y-193793328D02*
X203672312Y-193793328D01*
X204743741Y-193721900D02*
X204600884Y-193793328D01*
X204600884Y-193793328D02*
X204315170Y-193793328D01*
X204315170Y-193793328D02*
X204172312Y-193721900D01*
X204172312Y-193721900D02*
X204100884Y-193579042D01*
X204100884Y-193579042D02*
X204100884Y-193007614D01*
X204100884Y-193007614D02*
X204172312Y-192864757D01*
X204172312Y-192864757D02*
X204315170Y-192793328D01*
X204315170Y-192793328D02*
X204600884Y-192793328D01*
X204600884Y-192793328D02*
X204743741Y-192864757D01*
X204743741Y-192864757D02*
X204815170Y-193007614D01*
X204815170Y-193007614D02*
X204815170Y-193150471D01*
X204815170Y-193150471D02*
X204100884Y-193293328D01*
X205458026Y-193650471D02*
X205529455Y-193721900D01*
X205529455Y-193721900D02*
X205458026Y-193793328D01*
X205458026Y-193793328D02*
X205386598Y-193721900D01*
X205386598Y-193721900D02*
X205458026Y-193650471D01*
X205458026Y-193650471D02*
X205458026Y-193793328D01*
X205458026Y-192864757D02*
X205529455Y-192936185D01*
X205529455Y-192936185D02*
X205458026Y-193007614D01*
X205458026Y-193007614D02*
X205386598Y-192936185D01*
X205386598Y-192936185D02*
X205458026Y-192864757D01*
X205458026Y-192864757D02*
X205458026Y-193007614D01*
X207243741Y-192436185D02*
X207315169Y-192364757D01*
X207315169Y-192364757D02*
X207458027Y-192293328D01*
X207458027Y-192293328D02*
X207815169Y-192293328D01*
X207815169Y-192293328D02*
X207958027Y-192364757D01*
X207958027Y-192364757D02*
X208029455Y-192436185D01*
X208029455Y-192436185D02*
X208100884Y-192579042D01*
X208100884Y-192579042D02*
X208100884Y-192721900D01*
X208100884Y-192721900D02*
X208029455Y-192936185D01*
X208029455Y-192936185D02*
X207172312Y-193793328D01*
X207172312Y-193793328D02*
X208100884Y-193793328D01*
X209029455Y-192293328D02*
X209172312Y-192293328D01*
X209172312Y-192293328D02*
X209315169Y-192364757D01*
X209315169Y-192364757D02*
X209386598Y-192436185D01*
X209386598Y-192436185D02*
X209458026Y-192579042D01*
X209458026Y-192579042D02*
X209529455Y-192864757D01*
X209529455Y-192864757D02*
X209529455Y-193221900D01*
X209529455Y-193221900D02*
X209458026Y-193507614D01*
X209458026Y-193507614D02*
X209386598Y-193650471D01*
X209386598Y-193650471D02*
X209315169Y-193721900D01*
X209315169Y-193721900D02*
X209172312Y-193793328D01*
X209172312Y-193793328D02*
X209029455Y-193793328D01*
X209029455Y-193793328D02*
X208886598Y-193721900D01*
X208886598Y-193721900D02*
X208815169Y-193650471D01*
X208815169Y-193650471D02*
X208743740Y-193507614D01*
X208743740Y-193507614D02*
X208672312Y-193221900D01*
X208672312Y-193221900D02*
X208672312Y-192864757D01*
X208672312Y-192864757D02*
X208743740Y-192579042D01*
X208743740Y-192579042D02*
X208815169Y-192436185D01*
X208815169Y-192436185D02*
X208886598Y-192364757D01*
X208886598Y-192364757D02*
X209029455Y-192293328D01*
X210100883Y-192436185D02*
X210172311Y-192364757D01*
X210172311Y-192364757D02*
X210315169Y-192293328D01*
X210315169Y-192293328D02*
X210672311Y-192293328D01*
X210672311Y-192293328D02*
X210815169Y-192364757D01*
X210815169Y-192364757D02*
X210886597Y-192436185D01*
X210886597Y-192436185D02*
X210958026Y-192579042D01*
X210958026Y-192579042D02*
X210958026Y-192721900D01*
X210958026Y-192721900D02*
X210886597Y-192936185D01*
X210886597Y-192936185D02*
X210029454Y-193793328D01*
X210029454Y-193793328D02*
X210958026Y-193793328D01*
X212386597Y-193793328D02*
X211529454Y-193793328D01*
X211958025Y-193793328D02*
X211958025Y-192293328D01*
X211958025Y-192293328D02*
X211815168Y-192507614D01*
X211815168Y-192507614D02*
X211672311Y-192650471D01*
X211672311Y-192650471D02*
X211529454Y-192721900D01*
X213029453Y-193221900D02*
X214172311Y-193221900D01*
X215672311Y-193793328D02*
X214815168Y-193793328D01*
X215243739Y-193793328D02*
X215243739Y-192293328D01*
X215243739Y-192293328D02*
X215100882Y-192507614D01*
X215100882Y-192507614D02*
X214958025Y-192650471D01*
X214958025Y-192650471D02*
X214815168Y-192721900D01*
X216243739Y-192436185D02*
X216315167Y-192364757D01*
X216315167Y-192364757D02*
X216458025Y-192293328D01*
X216458025Y-192293328D02*
X216815167Y-192293328D01*
X216815167Y-192293328D02*
X216958025Y-192364757D01*
X216958025Y-192364757D02*
X217029453Y-192436185D01*
X217029453Y-192436185D02*
X217100882Y-192579042D01*
X217100882Y-192579042D02*
X217100882Y-192721900D01*
X217100882Y-192721900D02*
X217029453Y-192936185D01*
X217029453Y-192936185D02*
X216172310Y-193793328D01*
X216172310Y-193793328D02*
X217100882Y-193793328D01*
X217743738Y-193221900D02*
X218886596Y-193221900D01*
X219529453Y-192436185D02*
X219600881Y-192364757D01*
X219600881Y-192364757D02*
X219743739Y-192293328D01*
X219743739Y-192293328D02*
X220100881Y-192293328D01*
X220100881Y-192293328D02*
X220243739Y-192364757D01*
X220243739Y-192364757D02*
X220315167Y-192436185D01*
X220315167Y-192436185D02*
X220386596Y-192579042D01*
X220386596Y-192579042D02*
X220386596Y-192721900D01*
X220386596Y-192721900D02*
X220315167Y-192936185D01*
X220315167Y-192936185D02*
X219458024Y-193793328D01*
X219458024Y-193793328D02*
X220386596Y-193793328D01*
X221243738Y-192936185D02*
X221100881Y-192864757D01*
X221100881Y-192864757D02*
X221029452Y-192793328D01*
X221029452Y-192793328D02*
X220958024Y-192650471D01*
X220958024Y-192650471D02*
X220958024Y-192579042D01*
X220958024Y-192579042D02*
X221029452Y-192436185D01*
X221029452Y-192436185D02*
X221100881Y-192364757D01*
X221100881Y-192364757D02*
X221243738Y-192293328D01*
X221243738Y-192293328D02*
X221529452Y-192293328D01*
X221529452Y-192293328D02*
X221672310Y-192364757D01*
X221672310Y-192364757D02*
X221743738Y-192436185D01*
X221743738Y-192436185D02*
X221815167Y-192579042D01*
X221815167Y-192579042D02*
X221815167Y-192650471D01*
X221815167Y-192650471D02*
X221743738Y-192793328D01*
X221743738Y-192793328D02*
X221672310Y-192864757D01*
X221672310Y-192864757D02*
X221529452Y-192936185D01*
X221529452Y-192936185D02*
X221243738Y-192936185D01*
X221243738Y-192936185D02*
X221100881Y-193007614D01*
X221100881Y-193007614D02*
X221029452Y-193079042D01*
X221029452Y-193079042D02*
X220958024Y-193221900D01*
X220958024Y-193221900D02*
X220958024Y-193507614D01*
X220958024Y-193507614D02*
X221029452Y-193650471D01*
X221029452Y-193650471D02*
X221100881Y-193721900D01*
X221100881Y-193721900D02*
X221243738Y-193793328D01*
X221243738Y-193793328D02*
X221529452Y-193793328D01*
X221529452Y-193793328D02*
X221672310Y-193721900D01*
X221672310Y-193721900D02*
X221743738Y-193650471D01*
X221743738Y-193650471D02*
X221815167Y-193507614D01*
X221815167Y-193507614D02*
X221815167Y-193221900D01*
X221815167Y-193221900D02*
X221743738Y-193079042D01*
X221743738Y-193079042D02*
X221672310Y-193007614D01*
X221672310Y-193007614D02*
X221529452Y-192936185D01*
D10*
D11*
X177002200Y-194507200D02*
X285002200Y-194507200D01*
D10*
D11*
X178458026Y-196593328D02*
X178458026Y-195093328D01*
X179315169Y-196593328D02*
X178672312Y-195736185D01*
X179315169Y-195093328D02*
X178458026Y-195950471D01*
X179958026Y-196593328D02*
X179958026Y-195593328D01*
X179958026Y-195093328D02*
X179886598Y-195164757D01*
X179886598Y-195164757D02*
X179958026Y-195236185D01*
X179958026Y-195236185D02*
X180029455Y-195164757D01*
X180029455Y-195164757D02*
X179958026Y-195093328D01*
X179958026Y-195093328D02*
X179958026Y-195236185D01*
X181529455Y-196450471D02*
X181458027Y-196521900D01*
X181458027Y-196521900D02*
X181243741Y-196593328D01*
X181243741Y-196593328D02*
X181100884Y-196593328D01*
X181100884Y-196593328D02*
X180886598Y-196521900D01*
X180886598Y-196521900D02*
X180743741Y-196379042D01*
X180743741Y-196379042D02*
X180672312Y-196236185D01*
X180672312Y-196236185D02*
X180600884Y-195950471D01*
X180600884Y-195950471D02*
X180600884Y-195736185D01*
X180600884Y-195736185D02*
X180672312Y-195450471D01*
X180672312Y-195450471D02*
X180743741Y-195307614D01*
X180743741Y-195307614D02*
X180886598Y-195164757D01*
X180886598Y-195164757D02*
X181100884Y-195093328D01*
X181100884Y-195093328D02*
X181243741Y-195093328D01*
X181243741Y-195093328D02*
X181458027Y-195164757D01*
X181458027Y-195164757D02*
X181529455Y-195236185D01*
X182815170Y-196593328D02*
X182815170Y-195807614D01*
X182815170Y-195807614D02*
X182743741Y-195664757D01*
X182743741Y-195664757D02*
X182600884Y-195593328D01*
X182600884Y-195593328D02*
X182315170Y-195593328D01*
X182315170Y-195593328D02*
X182172312Y-195664757D01*
X182815170Y-196521900D02*
X182672312Y-196593328D01*
X182672312Y-196593328D02*
X182315170Y-196593328D01*
X182315170Y-196593328D02*
X182172312Y-196521900D01*
X182172312Y-196521900D02*
X182100884Y-196379042D01*
X182100884Y-196379042D02*
X182100884Y-196236185D01*
X182100884Y-196236185D02*
X182172312Y-196093328D01*
X182172312Y-196093328D02*
X182315170Y-196021900D01*
X182315170Y-196021900D02*
X182672312Y-196021900D01*
X182672312Y-196021900D02*
X182815170Y-195950471D01*
X184172313Y-196593328D02*
X184172313Y-195093328D01*
X184172313Y-196521900D02*
X184029455Y-196593328D01*
X184029455Y-196593328D02*
X183743741Y-196593328D01*
X183743741Y-196593328D02*
X183600884Y-196521900D01*
X183600884Y-196521900D02*
X183529455Y-196450471D01*
X183529455Y-196450471D02*
X183458027Y-196307614D01*
X183458027Y-196307614D02*
X183458027Y-195879042D01*
X183458027Y-195879042D02*
X183529455Y-195736185D01*
X183529455Y-195736185D02*
X183600884Y-195664757D01*
X183600884Y-195664757D02*
X183743741Y-195593328D01*
X183743741Y-195593328D02*
X184029455Y-195593328D01*
X184029455Y-195593328D02*
X184172313Y-195664757D01*
X186029455Y-195807614D02*
X186529455Y-195807614D01*
X186743741Y-196593328D02*
X186029455Y-196593328D01*
X186029455Y-196593328D02*
X186029455Y-195093328D01*
X186029455Y-195093328D02*
X186743741Y-195093328D01*
X187386598Y-196450471D02*
X187458027Y-196521900D01*
X187458027Y-196521900D02*
X187386598Y-196593328D01*
X187386598Y-196593328D02*
X187315170Y-196521900D01*
X187315170Y-196521900D02*
X187386598Y-196450471D01*
X187386598Y-196450471D02*
X187386598Y-196593328D01*
X188100884Y-196593328D02*
X188100884Y-195093328D01*
X188100884Y-195093328D02*
X188458027Y-195093328D01*
X188458027Y-195093328D02*
X188672313Y-195164757D01*
X188672313Y-195164757D02*
X188815170Y-195307614D01*
X188815170Y-195307614D02*
X188886599Y-195450471D01*
X188886599Y-195450471D02*
X188958027Y-195736185D01*
X188958027Y-195736185D02*
X188958027Y-195950471D01*
X188958027Y-195950471D02*
X188886599Y-196236185D01*
X188886599Y-196236185D02*
X188815170Y-196379042D01*
X188815170Y-196379042D02*
X188672313Y-196521900D01*
X188672313Y-196521900D02*
X188458027Y-196593328D01*
X188458027Y-196593328D02*
X188100884Y-196593328D01*
X189600884Y-196450471D02*
X189672313Y-196521900D01*
X189672313Y-196521900D02*
X189600884Y-196593328D01*
X189600884Y-196593328D02*
X189529456Y-196521900D01*
X189529456Y-196521900D02*
X189600884Y-196450471D01*
X189600884Y-196450471D02*
X189600884Y-196593328D01*
X190243742Y-196164757D02*
X190958028Y-196164757D01*
X190100885Y-196593328D02*
X190600885Y-195093328D01*
X190600885Y-195093328D02*
X191100885Y-196593328D01*
X191600884Y-196450471D02*
X191672313Y-196521900D01*
X191672313Y-196521900D02*
X191600884Y-196593328D01*
X191600884Y-196593328D02*
X191529456Y-196521900D01*
X191529456Y-196521900D02*
X191600884Y-196450471D01*
X191600884Y-196450471D02*
X191600884Y-196593328D01*
X194600884Y-196593328D02*
X194600884Y-195093328D01*
X194743742Y-196021900D02*
X195172313Y-196593328D01*
X195172313Y-195593328D02*
X194600884Y-196164757D01*
X195815170Y-196593328D02*
X195815170Y-195593328D01*
X195815170Y-195093328D02*
X195743742Y-195164757D01*
X195743742Y-195164757D02*
X195815170Y-195236185D01*
X195815170Y-195236185D02*
X195886599Y-195164757D01*
X195886599Y-195164757D02*
X195815170Y-195093328D01*
X195815170Y-195093328D02*
X195815170Y-195236185D01*
X197172314Y-196521900D02*
X197029456Y-196593328D01*
X197029456Y-196593328D02*
X196743742Y-196593328D01*
X196743742Y-196593328D02*
X196600885Y-196521900D01*
X196600885Y-196521900D02*
X196529456Y-196450471D01*
X196529456Y-196450471D02*
X196458028Y-196307614D01*
X196458028Y-196307614D02*
X196458028Y-195879042D01*
X196458028Y-195879042D02*
X196529456Y-195736185D01*
X196529456Y-195736185D02*
X196600885Y-195664757D01*
X196600885Y-195664757D02*
X196743742Y-195593328D01*
X196743742Y-195593328D02*
X197029456Y-195593328D01*
X197029456Y-195593328D02*
X197172314Y-195664757D01*
X198458028Y-196593328D02*
X198458028Y-195807614D01*
X198458028Y-195807614D02*
X198386599Y-195664757D01*
X198386599Y-195664757D02*
X198243742Y-195593328D01*
X198243742Y-195593328D02*
X197958028Y-195593328D01*
X197958028Y-195593328D02*
X197815170Y-195664757D01*
X198458028Y-196521900D02*
X198315170Y-196593328D01*
X198315170Y-196593328D02*
X197958028Y-196593328D01*
X197958028Y-196593328D02*
X197815170Y-196521900D01*
X197815170Y-196521900D02*
X197743742Y-196379042D01*
X197743742Y-196379042D02*
X197743742Y-196236185D01*
X197743742Y-196236185D02*
X197815170Y-196093328D01*
X197815170Y-196093328D02*
X197958028Y-196021900D01*
X197958028Y-196021900D02*
X198315170Y-196021900D01*
X198315170Y-196021900D02*
X198458028Y-195950471D01*
X199815171Y-196593328D02*
X199815171Y-195093328D01*
X199815171Y-196521900D02*
X199672313Y-196593328D01*
X199672313Y-196593328D02*
X199386599Y-196593328D01*
X199386599Y-196593328D02*
X199243742Y-196521900D01*
X199243742Y-196521900D02*
X199172313Y-196450471D01*
X199172313Y-196450471D02*
X199100885Y-196307614D01*
X199100885Y-196307614D02*
X199100885Y-195879042D01*
X199100885Y-195879042D02*
X199172313Y-195736185D01*
X199172313Y-195736185D02*
X199243742Y-195664757D01*
X199243742Y-195664757D02*
X199386599Y-195593328D01*
X199386599Y-195593328D02*
X199672313Y-195593328D01*
X199672313Y-195593328D02*
X199815171Y-195664757D01*
X201529456Y-195093328D02*
X202529456Y-195093328D01*
X202529456Y-195093328D02*
X201886599Y-196593328D01*
X203100884Y-196450471D02*
X203172313Y-196521900D01*
X203172313Y-196521900D02*
X203100884Y-196593328D01*
X203100884Y-196593328D02*
X203029456Y-196521900D01*
X203029456Y-196521900D02*
X203100884Y-196450471D01*
X203100884Y-196450471D02*
X203100884Y-196593328D01*
X204100885Y-195093328D02*
X204243742Y-195093328D01*
X204243742Y-195093328D02*
X204386599Y-195164757D01*
X204386599Y-195164757D02*
X204458028Y-195236185D01*
X204458028Y-195236185D02*
X204529456Y-195379042D01*
X204529456Y-195379042D02*
X204600885Y-195664757D01*
X204600885Y-195664757D02*
X204600885Y-196021900D01*
X204600885Y-196021900D02*
X204529456Y-196307614D01*
X204529456Y-196307614D02*
X204458028Y-196450471D01*
X204458028Y-196450471D02*
X204386599Y-196521900D01*
X204386599Y-196521900D02*
X204243742Y-196593328D01*
X204243742Y-196593328D02*
X204100885Y-196593328D01*
X204100885Y-196593328D02*
X203958028Y-196521900D01*
X203958028Y-196521900D02*
X203886599Y-196450471D01*
X203886599Y-196450471D02*
X203815170Y-196307614D01*
X203815170Y-196307614D02*
X203743742Y-196021900D01*
X203743742Y-196021900D02*
X203743742Y-195664757D01*
X203743742Y-195664757D02*
X203815170Y-195379042D01*
X203815170Y-195379042D02*
X203886599Y-195236185D01*
X203886599Y-195236185D02*
X203958028Y-195164757D01*
X203958028Y-195164757D02*
X204100885Y-195093328D01*
X205243741Y-196450471D02*
X205315170Y-196521900D01*
X205315170Y-196521900D02*
X205243741Y-196593328D01*
X205243741Y-196593328D02*
X205172313Y-196521900D01*
X205172313Y-196521900D02*
X205243741Y-196450471D01*
X205243741Y-196450471D02*
X205243741Y-196593328D01*
X205815170Y-195093328D02*
X206815170Y-195093328D01*
X206815170Y-195093328D02*
X206172313Y-196593328D01*
D10*
D11*
X177002200Y-191507200D02*
X285002200Y-191507200D01*
D10*
D12*
X264413853Y-193785528D02*
X263913853Y-193071242D01*
X263556710Y-193785528D02*
X263556710Y-192285528D01*
X263556710Y-192285528D02*
X264128139Y-192285528D01*
X264128139Y-192285528D02*
X264270996Y-192356957D01*
X264270996Y-192356957D02*
X264342425Y-192428385D01*
X264342425Y-192428385D02*
X264413853Y-192571242D01*
X264413853Y-192571242D02*
X264413853Y-192785528D01*
X264413853Y-192785528D02*
X264342425Y-192928385D01*
X264342425Y-192928385D02*
X264270996Y-192999814D01*
X264270996Y-192999814D02*
X264128139Y-193071242D01*
X264128139Y-193071242D02*
X263556710Y-193071242D01*
X265628139Y-193714100D02*
X265485282Y-193785528D01*
X265485282Y-193785528D02*
X265199568Y-193785528D01*
X265199568Y-193785528D02*
X265056710Y-193714100D01*
X265056710Y-193714100D02*
X264985282Y-193571242D01*
X264985282Y-193571242D02*
X264985282Y-192999814D01*
X264985282Y-192999814D02*
X265056710Y-192856957D01*
X265056710Y-192856957D02*
X265199568Y-192785528D01*
X265199568Y-192785528D02*
X265485282Y-192785528D01*
X265485282Y-192785528D02*
X265628139Y-192856957D01*
X265628139Y-192856957D02*
X265699568Y-192999814D01*
X265699568Y-192999814D02*
X265699568Y-193142671D01*
X265699568Y-193142671D02*
X264985282Y-193285528D01*
X266199567Y-192785528D02*
X266556710Y-193785528D01*
X266556710Y-193785528D02*
X266913853Y-192785528D01*
X267485281Y-193642671D02*
X267556710Y-193714100D01*
X267556710Y-193714100D02*
X267485281Y-193785528D01*
X267485281Y-193785528D02*
X267413853Y-193714100D01*
X267413853Y-193714100D02*
X267485281Y-193642671D01*
X267485281Y-193642671D02*
X267485281Y-193785528D01*
X267485281Y-192856957D02*
X267556710Y-192928385D01*
X267556710Y-192928385D02*
X267485281Y-192999814D01*
X267485281Y-192999814D02*
X267413853Y-192928385D01*
X267413853Y-192928385D02*
X267485281Y-192856957D01*
X267485281Y-192856957D02*
X267485281Y-192999814D01*
X270056710Y-192285528D02*
X269342424Y-192285528D01*
X269342424Y-192285528D02*
X269270996Y-192999814D01*
X269270996Y-192999814D02*
X269342424Y-192928385D01*
X269342424Y-192928385D02*
X269485282Y-192856957D01*
X269485282Y-192856957D02*
X269842424Y-192856957D01*
X269842424Y-192856957D02*
X269985282Y-192928385D01*
X269985282Y-192928385D02*
X270056710Y-192999814D01*
X270056710Y-192999814D02*
X270128139Y-193142671D01*
X270128139Y-193142671D02*
X270128139Y-193499814D01*
X270128139Y-193499814D02*
X270056710Y-193642671D01*
X270056710Y-193642671D02*
X269985282Y-193714100D01*
X269985282Y-193714100D02*
X269842424Y-193785528D01*
X269842424Y-193785528D02*
X269485282Y-193785528D01*
X269485282Y-193785528D02*
X269342424Y-193714100D01*
X269342424Y-193714100D02*
X269270996Y-193642671D01*
X270770995Y-193642671D02*
X270842424Y-193714100D01*
X270842424Y-193714100D02*
X270770995Y-193785528D01*
X270770995Y-193785528D02*
X270699567Y-193714100D01*
X270699567Y-193714100D02*
X270770995Y-193642671D01*
X270770995Y-193642671D02*
X270770995Y-193785528D01*
X271342424Y-192285528D02*
X272270996Y-192285528D01*
X272270996Y-192285528D02*
X271770996Y-192856957D01*
X271770996Y-192856957D02*
X271985281Y-192856957D01*
X271985281Y-192856957D02*
X272128139Y-192928385D01*
X272128139Y-192928385D02*
X272199567Y-192999814D01*
X272199567Y-192999814D02*
X272270996Y-193142671D01*
X272270996Y-193142671D02*
X272270996Y-193499814D01*
X272270996Y-193499814D02*
X272199567Y-193642671D01*
X272199567Y-193642671D02*
X272128139Y-193714100D01*
X272128139Y-193714100D02*
X271985281Y-193785528D01*
X271985281Y-193785528D02*
X271556710Y-193785528D01*
X271556710Y-193785528D02*
X271413853Y-193714100D01*
X271413853Y-193714100D02*
X271342424Y-193642671D01*
D10*
D11*
X178386598Y-193721900D02*
X178600884Y-193793328D01*
X178600884Y-193793328D02*
X178958026Y-193793328D01*
X178958026Y-193793328D02*
X179100884Y-193721900D01*
X179100884Y-193721900D02*
X179172312Y-193650471D01*
X179172312Y-193650471D02*
X179243741Y-193507614D01*
X179243741Y-193507614D02*
X179243741Y-193364757D01*
X179243741Y-193364757D02*
X179172312Y-193221900D01*
X179172312Y-193221900D02*
X179100884Y-193150471D01*
X179100884Y-193150471D02*
X178958026Y-193079042D01*
X178958026Y-193079042D02*
X178672312Y-193007614D01*
X178672312Y-193007614D02*
X178529455Y-192936185D01*
X178529455Y-192936185D02*
X178458026Y-192864757D01*
X178458026Y-192864757D02*
X178386598Y-192721900D01*
X178386598Y-192721900D02*
X178386598Y-192579042D01*
X178386598Y-192579042D02*
X178458026Y-192436185D01*
X178458026Y-192436185D02*
X178529455Y-192364757D01*
X178529455Y-192364757D02*
X178672312Y-192293328D01*
X178672312Y-192293328D02*
X179029455Y-192293328D01*
X179029455Y-192293328D02*
X179243741Y-192364757D01*
X179886597Y-193793328D02*
X179886597Y-192793328D01*
X179886597Y-192293328D02*
X179815169Y-192364757D01*
X179815169Y-192364757D02*
X179886597Y-192436185D01*
X179886597Y-192436185D02*
X179958026Y-192364757D01*
X179958026Y-192364757D02*
X179886597Y-192293328D01*
X179886597Y-192293328D02*
X179886597Y-192436185D01*
X180458026Y-192793328D02*
X181243741Y-192793328D01*
X181243741Y-192793328D02*
X180458026Y-193793328D01*
X180458026Y-193793328D02*
X181243741Y-193793328D01*
X182386598Y-193721900D02*
X182243741Y-193793328D01*
X182243741Y-193793328D02*
X181958027Y-193793328D01*
X181958027Y-193793328D02*
X181815169Y-193721900D01*
X181815169Y-193721900D02*
X181743741Y-193579042D01*
X181743741Y-193579042D02*
X181743741Y-193007614D01*
X181743741Y-193007614D02*
X181815169Y-192864757D01*
X181815169Y-192864757D02*
X181958027Y-192793328D01*
X181958027Y-192793328D02*
X182243741Y-192793328D01*
X182243741Y-192793328D02*
X182386598Y-192864757D01*
X182386598Y-192864757D02*
X182458027Y-193007614D01*
X182458027Y-193007614D02*
X182458027Y-193150471D01*
X182458027Y-193150471D02*
X181743741Y-193293328D01*
X183100883Y-193650471D02*
X183172312Y-193721900D01*
X183172312Y-193721900D02*
X183100883Y-193793328D01*
X183100883Y-193793328D02*
X183029455Y-193721900D01*
X183029455Y-193721900D02*
X183100883Y-193650471D01*
X183100883Y-193650471D02*
X183100883Y-193793328D01*
X183100883Y-192864757D02*
X183172312Y-192936185D01*
X183172312Y-192936185D02*
X183100883Y-193007614D01*
X183100883Y-193007614D02*
X183029455Y-192936185D01*
X183029455Y-192936185D02*
X183100883Y-192864757D01*
X183100883Y-192864757D02*
X183100883Y-193007614D01*
X184886598Y-193364757D02*
X185600884Y-193364757D01*
X184743741Y-193793328D02*
X185243741Y-192293328D01*
X185243741Y-192293328D02*
X185743741Y-193793328D01*
X186886598Y-192793328D02*
X186886598Y-193793328D01*
X186529455Y-192221900D02*
X186172312Y-193293328D01*
X186172312Y-193293328D02*
X187100883Y-193293328D01*
D10*
D11*
X263458026Y-196593328D02*
X263458026Y-195093328D01*
X264815170Y-196593328D02*
X264815170Y-195093328D01*
X264815170Y-196521900D02*
X264672312Y-196593328D01*
X264672312Y-196593328D02*
X264386598Y-196593328D01*
X264386598Y-196593328D02*
X264243741Y-196521900D01*
X264243741Y-196521900D02*
X264172312Y-196450471D01*
X264172312Y-196450471D02*
X264100884Y-196307614D01*
X264100884Y-196307614D02*
X264100884Y-195879042D01*
X264100884Y-195879042D02*
X264172312Y-195736185D01*
X264172312Y-195736185D02*
X264243741Y-195664757D01*
X264243741Y-195664757D02*
X264386598Y-195593328D01*
X264386598Y-195593328D02*
X264672312Y-195593328D01*
X264672312Y-195593328D02*
X264815170Y-195664757D01*
X265529455Y-196450471D02*
X265600884Y-196521900D01*
X265600884Y-196521900D02*
X265529455Y-196593328D01*
X265529455Y-196593328D02*
X265458027Y-196521900D01*
X265458027Y-196521900D02*
X265529455Y-196450471D01*
X265529455Y-196450471D02*
X265529455Y-196593328D01*
X265529455Y-195664757D02*
X265600884Y-195736185D01*
X265600884Y-195736185D02*
X265529455Y-195807614D01*
X265529455Y-195807614D02*
X265458027Y-195736185D01*
X265458027Y-195736185D02*
X265529455Y-195664757D01*
X265529455Y-195664757D02*
X265529455Y-195807614D01*
X268172313Y-196593328D02*
X267315170Y-196593328D01*
X267743741Y-196593328D02*
X267743741Y-195093328D01*
X267743741Y-195093328D02*
X267600884Y-195307614D01*
X267600884Y-195307614D02*
X267458027Y-195450471D01*
X267458027Y-195450471D02*
X267315170Y-195521900D01*
X269886598Y-195021900D02*
X268600884Y-196950471D01*
X271172313Y-196593328D02*
X270315170Y-196593328D01*
X270743741Y-196593328D02*
X270743741Y-195093328D01*
X270743741Y-195093328D02*
X270600884Y-195307614D01*
X270600884Y-195307614D02*
X270458027Y-195450471D01*
X270458027Y-195450471D02*
X270315170Y-195521900D01*
D10*
D11*
X177002200Y-187507200D02*
X285002200Y-187507200D01*
D10*
D13*
X178693928Y-188211638D02*
X179836785Y-188211638D01*
X179015357Y-190211638D02*
X179265357Y-188211638D01*
X180253452Y-190211638D02*
X180420119Y-188878304D01*
X180503452Y-188211638D02*
X180396309Y-188306876D01*
X180396309Y-188306876D02*
X180479643Y-188402114D01*
X180479643Y-188402114D02*
X180586786Y-188306876D01*
X180586786Y-188306876D02*
X180503452Y-188211638D01*
X180503452Y-188211638D02*
X180479643Y-188402114D01*
X181086786Y-188878304D02*
X181848690Y-188878304D01*
X181455833Y-188211638D02*
X181241548Y-189925923D01*
X181241548Y-189925923D02*
X181312976Y-190116400D01*
X181312976Y-190116400D02*
X181491548Y-190211638D01*
X181491548Y-190211638D02*
X181682024Y-190211638D01*
X182634405Y-190211638D02*
X182455833Y-190116400D01*
X182455833Y-190116400D02*
X182384405Y-189925923D01*
X182384405Y-189925923D02*
X182598690Y-188211638D01*
X184170119Y-190116400D02*
X183967738Y-190211638D01*
X183967738Y-190211638D02*
X183586785Y-190211638D01*
X183586785Y-190211638D02*
X183408214Y-190116400D01*
X183408214Y-190116400D02*
X183336785Y-189925923D01*
X183336785Y-189925923D02*
X183432024Y-189164019D01*
X183432024Y-189164019D02*
X183551071Y-188973542D01*
X183551071Y-188973542D02*
X183753452Y-188878304D01*
X183753452Y-188878304D02*
X184134404Y-188878304D01*
X184134404Y-188878304D02*
X184312976Y-188973542D01*
X184312976Y-188973542D02*
X184384404Y-189164019D01*
X184384404Y-189164019D02*
X184360595Y-189354495D01*
X184360595Y-189354495D02*
X183384404Y-189544971D01*
X185134405Y-190021161D02*
X185217738Y-190116400D01*
X185217738Y-190116400D02*
X185110595Y-190211638D01*
X185110595Y-190211638D02*
X185027262Y-190116400D01*
X185027262Y-190116400D02*
X185134405Y-190021161D01*
X185134405Y-190021161D02*
X185110595Y-190211638D01*
X185265357Y-188973542D02*
X185348690Y-189068780D01*
X185348690Y-189068780D02*
X185241548Y-189164019D01*
X185241548Y-189164019D02*
X185158214Y-189068780D01*
X185158214Y-189068780D02*
X185265357Y-188973542D01*
X185265357Y-188973542D02*
X185241548Y-189164019D01*
D10*
D11*
X178958026Y-185607614D02*
X178458026Y-185607614D01*
X178458026Y-186393328D02*
X178458026Y-184893328D01*
X178458026Y-184893328D02*
X179172312Y-184893328D01*
X179743740Y-186393328D02*
X179743740Y-185393328D01*
X179743740Y-184893328D02*
X179672312Y-184964757D01*
X179672312Y-184964757D02*
X179743740Y-185036185D01*
X179743740Y-185036185D02*
X179815169Y-184964757D01*
X179815169Y-184964757D02*
X179743740Y-184893328D01*
X179743740Y-184893328D02*
X179743740Y-185036185D01*
X180672312Y-186393328D02*
X180529455Y-186321900D01*
X180529455Y-186321900D02*
X180458026Y-186179042D01*
X180458026Y-186179042D02*
X180458026Y-184893328D01*
X181815169Y-186321900D02*
X181672312Y-186393328D01*
X181672312Y-186393328D02*
X181386598Y-186393328D01*
X181386598Y-186393328D02*
X181243740Y-186321900D01*
X181243740Y-186321900D02*
X181172312Y-186179042D01*
X181172312Y-186179042D02*
X181172312Y-185607614D01*
X181172312Y-185607614D02*
X181243740Y-185464757D01*
X181243740Y-185464757D02*
X181386598Y-185393328D01*
X181386598Y-185393328D02*
X181672312Y-185393328D01*
X181672312Y-185393328D02*
X181815169Y-185464757D01*
X181815169Y-185464757D02*
X181886598Y-185607614D01*
X181886598Y-185607614D02*
X181886598Y-185750471D01*
X181886598Y-185750471D02*
X181172312Y-185893328D01*
X182529454Y-186250471D02*
X182600883Y-186321900D01*
X182600883Y-186321900D02*
X182529454Y-186393328D01*
X182529454Y-186393328D02*
X182458026Y-186321900D01*
X182458026Y-186321900D02*
X182529454Y-186250471D01*
X182529454Y-186250471D02*
X182529454Y-186393328D01*
X182529454Y-185464757D02*
X182600883Y-185536185D01*
X182600883Y-185536185D02*
X182529454Y-185607614D01*
X182529454Y-185607614D02*
X182458026Y-185536185D01*
X182458026Y-185536185D02*
X182529454Y-185464757D01*
X182529454Y-185464757D02*
X182529454Y-185607614D01*
X185100883Y-186393328D02*
X184386597Y-186393328D01*
X184386597Y-186393328D02*
X184386597Y-184893328D01*
X185600883Y-186393328D02*
X185600883Y-184893328D01*
X185600883Y-184893328D02*
X185958026Y-184893328D01*
X185958026Y-184893328D02*
X186172312Y-184964757D01*
X186172312Y-184964757D02*
X186315169Y-185107614D01*
X186315169Y-185107614D02*
X186386598Y-185250471D01*
X186386598Y-185250471D02*
X186458026Y-185536185D01*
X186458026Y-185536185D02*
X186458026Y-185750471D01*
X186458026Y-185750471D02*
X186386598Y-186036185D01*
X186386598Y-186036185D02*
X186315169Y-186179042D01*
X186315169Y-186179042D02*
X186172312Y-186321900D01*
X186172312Y-186321900D02*
X185958026Y-186393328D01*
X185958026Y-186393328D02*
X185600883Y-186393328D01*
X187029455Y-185964757D02*
X187743741Y-185964757D01*
X186886598Y-186393328D02*
X187386598Y-184893328D01*
X187386598Y-184893328D02*
X187886598Y-186393328D01*
X188386597Y-186393328D02*
X188386597Y-184893328D01*
X188386597Y-184893328D02*
X188743740Y-184893328D01*
X188743740Y-184893328D02*
X188958026Y-184964757D01*
X188958026Y-184964757D02*
X189100883Y-185107614D01*
X189100883Y-185107614D02*
X189172312Y-185250471D01*
X189172312Y-185250471D02*
X189243740Y-185536185D01*
X189243740Y-185536185D02*
X189243740Y-185750471D01*
X189243740Y-185750471D02*
X189172312Y-186036185D01*
X189172312Y-186036185D02*
X189100883Y-186179042D01*
X189100883Y-186179042D02*
X188958026Y-186321900D01*
X188958026Y-186321900D02*
X188743740Y-186393328D01*
X188743740Y-186393328D02*
X188386597Y-186393328D01*
X189529455Y-186536185D02*
X190672312Y-186536185D01*
X190958026Y-185964757D02*
X191672312Y-185964757D01*
X190815169Y-186393328D02*
X191315169Y-184893328D01*
X191315169Y-184893328D02*
X191815169Y-186393328D01*
X192815168Y-185607614D02*
X193029454Y-185679042D01*
X193029454Y-185679042D02*
X193100883Y-185750471D01*
X193100883Y-185750471D02*
X193172311Y-185893328D01*
X193172311Y-185893328D02*
X193172311Y-186107614D01*
X193172311Y-186107614D02*
X193100883Y-186250471D01*
X193100883Y-186250471D02*
X193029454Y-186321900D01*
X193029454Y-186321900D02*
X192886597Y-186393328D01*
X192886597Y-186393328D02*
X192315168Y-186393328D01*
X192315168Y-186393328D02*
X192315168Y-184893328D01*
X192315168Y-184893328D02*
X192815168Y-184893328D01*
X192815168Y-184893328D02*
X192958026Y-184964757D01*
X192958026Y-184964757D02*
X193029454Y-185036185D01*
X193029454Y-185036185D02*
X193100883Y-185179042D01*
X193100883Y-185179042D02*
X193100883Y-185321900D01*
X193100883Y-185321900D02*
X193029454Y-185464757D01*
X193029454Y-185464757D02*
X192958026Y-185536185D01*
X192958026Y-185536185D02*
X192815168Y-185607614D01*
X192815168Y-185607614D02*
X192315168Y-185607614D01*
X193743740Y-186321900D02*
X193958026Y-186393328D01*
X193958026Y-186393328D02*
X194315168Y-186393328D01*
X194315168Y-186393328D02*
X194458026Y-186321900D01*
X194458026Y-186321900D02*
X194529454Y-186250471D01*
X194529454Y-186250471D02*
X194600883Y-186107614D01*
X194600883Y-186107614D02*
X194600883Y-185964757D01*
X194600883Y-185964757D02*
X194529454Y-185821900D01*
X194529454Y-185821900D02*
X194458026Y-185750471D01*
X194458026Y-185750471D02*
X194315168Y-185679042D01*
X194315168Y-185679042D02*
X194029454Y-185607614D01*
X194029454Y-185607614D02*
X193886597Y-185536185D01*
X193886597Y-185536185D02*
X193815168Y-185464757D01*
X193815168Y-185464757D02*
X193743740Y-185321900D01*
X193743740Y-185321900D02*
X193743740Y-185179042D01*
X193743740Y-185179042D02*
X193815168Y-185036185D01*
X193815168Y-185036185D02*
X193886597Y-184964757D01*
X193886597Y-184964757D02*
X194029454Y-184893328D01*
X194029454Y-184893328D02*
X194386597Y-184893328D01*
X194386597Y-184893328D02*
X194600883Y-184964757D01*
X194886597Y-186536185D02*
X196029454Y-186536185D01*
X196386596Y-185607614D02*
X196886596Y-185607614D01*
X197100882Y-186393328D02*
X196386596Y-186393328D01*
X196386596Y-186393328D02*
X196386596Y-184893328D01*
X196386596Y-184893328D02*
X197100882Y-184893328D01*
X197743739Y-186393328D02*
X197743739Y-184893328D01*
X197743739Y-184893328D02*
X198600882Y-186393328D01*
X198600882Y-186393328D02*
X198600882Y-184893328D01*
X200172311Y-186250471D02*
X200100883Y-186321900D01*
X200100883Y-186321900D02*
X199886597Y-186393328D01*
X199886597Y-186393328D02*
X199743740Y-186393328D01*
X199743740Y-186393328D02*
X199529454Y-186321900D01*
X199529454Y-186321900D02*
X199386597Y-186179042D01*
X199386597Y-186179042D02*
X199315168Y-186036185D01*
X199315168Y-186036185D02*
X199243740Y-185750471D01*
X199243740Y-185750471D02*
X199243740Y-185536185D01*
X199243740Y-185536185D02*
X199315168Y-185250471D01*
X199315168Y-185250471D02*
X199386597Y-185107614D01*
X199386597Y-185107614D02*
X199529454Y-184964757D01*
X199529454Y-184964757D02*
X199743740Y-184893328D01*
X199743740Y-184893328D02*
X199886597Y-184893328D01*
X199886597Y-184893328D02*
X200100883Y-184964757D01*
X200100883Y-184964757D02*
X200172311Y-185036185D01*
X201529454Y-186393328D02*
X200815168Y-186393328D01*
X200815168Y-186393328D02*
X200815168Y-184893328D01*
X202315169Y-184893328D02*
X202600883Y-184893328D01*
X202600883Y-184893328D02*
X202743740Y-184964757D01*
X202743740Y-184964757D02*
X202886597Y-185107614D01*
X202886597Y-185107614D02*
X202958026Y-185393328D01*
X202958026Y-185393328D02*
X202958026Y-185893328D01*
X202958026Y-185893328D02*
X202886597Y-186179042D01*
X202886597Y-186179042D02*
X202743740Y-186321900D01*
X202743740Y-186321900D02*
X202600883Y-186393328D01*
X202600883Y-186393328D02*
X202315169Y-186393328D01*
X202315169Y-186393328D02*
X202172312Y-186321900D01*
X202172312Y-186321900D02*
X202029454Y-186179042D01*
X202029454Y-186179042D02*
X201958026Y-185893328D01*
X201958026Y-185893328D02*
X201958026Y-185393328D01*
X201958026Y-185393328D02*
X202029454Y-185107614D01*
X202029454Y-185107614D02*
X202172312Y-184964757D01*
X202172312Y-184964757D02*
X202315169Y-184893328D01*
X203529455Y-186321900D02*
X203743741Y-186393328D01*
X203743741Y-186393328D02*
X204100883Y-186393328D01*
X204100883Y-186393328D02*
X204243741Y-186321900D01*
X204243741Y-186321900D02*
X204315169Y-186250471D01*
X204315169Y-186250471D02*
X204386598Y-186107614D01*
X204386598Y-186107614D02*
X204386598Y-185964757D01*
X204386598Y-185964757D02*
X204315169Y-185821900D01*
X204315169Y-185821900D02*
X204243741Y-185750471D01*
X204243741Y-185750471D02*
X204100883Y-185679042D01*
X204100883Y-185679042D02*
X203815169Y-185607614D01*
X203815169Y-185607614D02*
X203672312Y-185536185D01*
X203672312Y-185536185D02*
X203600883Y-185464757D01*
X203600883Y-185464757D02*
X203529455Y-185321900D01*
X203529455Y-185321900D02*
X203529455Y-185179042D01*
X203529455Y-185179042D02*
X203600883Y-185036185D01*
X203600883Y-185036185D02*
X203672312Y-184964757D01*
X203672312Y-184964757D02*
X203815169Y-184893328D01*
X203815169Y-184893328D02*
X204172312Y-184893328D01*
X204172312Y-184893328D02*
X204386598Y-184964757D01*
X205029454Y-184893328D02*
X205029454Y-186107614D01*
X205029454Y-186107614D02*
X205100883Y-186250471D01*
X205100883Y-186250471D02*
X205172312Y-186321900D01*
X205172312Y-186321900D02*
X205315169Y-186393328D01*
X205315169Y-186393328D02*
X205600883Y-186393328D01*
X205600883Y-186393328D02*
X205743740Y-186321900D01*
X205743740Y-186321900D02*
X205815169Y-186250471D01*
X205815169Y-186250471D02*
X205886597Y-186107614D01*
X205886597Y-186107614D02*
X205886597Y-184893328D01*
X207458026Y-186393328D02*
X206958026Y-185679042D01*
X206600883Y-186393328D02*
X206600883Y-184893328D01*
X206600883Y-184893328D02*
X207172312Y-184893328D01*
X207172312Y-184893328D02*
X207315169Y-184964757D01*
X207315169Y-184964757D02*
X207386598Y-185036185D01*
X207386598Y-185036185D02*
X207458026Y-185179042D01*
X207458026Y-185179042D02*
X207458026Y-185393328D01*
X207458026Y-185393328D02*
X207386598Y-185536185D01*
X207386598Y-185536185D02*
X207315169Y-185607614D01*
X207315169Y-185607614D02*
X207172312Y-185679042D01*
X207172312Y-185679042D02*
X206600883Y-185679042D01*
X208100883Y-185607614D02*
X208600883Y-185607614D01*
X208815169Y-186393328D02*
X208100883Y-186393328D01*
X208100883Y-186393328D02*
X208100883Y-184893328D01*
X208100883Y-184893328D02*
X208815169Y-184893328D01*
X209100884Y-186536185D02*
X210243741Y-186536185D01*
X211315169Y-184893328D02*
X210600883Y-184893328D01*
X210600883Y-184893328D02*
X210529455Y-185607614D01*
X210529455Y-185607614D02*
X210600883Y-185536185D01*
X210600883Y-185536185D02*
X210743741Y-185464757D01*
X210743741Y-185464757D02*
X211100883Y-185464757D01*
X211100883Y-185464757D02*
X211243741Y-185536185D01*
X211243741Y-185536185D02*
X211315169Y-185607614D01*
X211315169Y-185607614D02*
X211386598Y-185750471D01*
X211386598Y-185750471D02*
X211386598Y-186107614D01*
X211386598Y-186107614D02*
X211315169Y-186250471D01*
X211315169Y-186250471D02*
X211243741Y-186321900D01*
X211243741Y-186321900D02*
X211100883Y-186393328D01*
X211100883Y-186393328D02*
X210743741Y-186393328D01*
X210743741Y-186393328D02*
X210600883Y-186321900D01*
X210600883Y-186321900D02*
X210529455Y-186250471D01*
X211958026Y-185036185D02*
X212029454Y-184964757D01*
X212029454Y-184964757D02*
X212172312Y-184893328D01*
X212172312Y-184893328D02*
X212529454Y-184893328D01*
X212529454Y-184893328D02*
X212672312Y-184964757D01*
X212672312Y-184964757D02*
X212743740Y-185036185D01*
X212743740Y-185036185D02*
X212815169Y-185179042D01*
X212815169Y-185179042D02*
X212815169Y-185321900D01*
X212815169Y-185321900D02*
X212743740Y-185536185D01*
X212743740Y-185536185D02*
X211886597Y-186393328D01*
X211886597Y-186393328D02*
X212815169Y-186393328D01*
X213315168Y-184893328D02*
X214315168Y-186393328D01*
X214315168Y-184893328D02*
X213315168Y-186393328D01*
X215529454Y-185393328D02*
X215529454Y-186393328D01*
X215172311Y-184821900D02*
X214815168Y-185893328D01*
X214815168Y-185893328D02*
X215743739Y-185893328D01*
X216529453Y-185536185D02*
X216386596Y-185464757D01*
X216386596Y-185464757D02*
X216315167Y-185393328D01*
X216315167Y-185393328D02*
X216243739Y-185250471D01*
X216243739Y-185250471D02*
X216243739Y-185179042D01*
X216243739Y-185179042D02*
X216315167Y-185036185D01*
X216315167Y-185036185D02*
X216386596Y-184964757D01*
X216386596Y-184964757D02*
X216529453Y-184893328D01*
X216529453Y-184893328D02*
X216815167Y-184893328D01*
X216815167Y-184893328D02*
X216958025Y-184964757D01*
X216958025Y-184964757D02*
X217029453Y-185036185D01*
X217029453Y-185036185D02*
X217100882Y-185179042D01*
X217100882Y-185179042D02*
X217100882Y-185250471D01*
X217100882Y-185250471D02*
X217029453Y-185393328D01*
X217029453Y-185393328D02*
X216958025Y-185464757D01*
X216958025Y-185464757D02*
X216815167Y-185536185D01*
X216815167Y-185536185D02*
X216529453Y-185536185D01*
X216529453Y-185536185D02*
X216386596Y-185607614D01*
X216386596Y-185607614D02*
X216315167Y-185679042D01*
X216315167Y-185679042D02*
X216243739Y-185821900D01*
X216243739Y-185821900D02*
X216243739Y-186107614D01*
X216243739Y-186107614D02*
X216315167Y-186250471D01*
X216315167Y-186250471D02*
X216386596Y-186321900D01*
X216386596Y-186321900D02*
X216529453Y-186393328D01*
X216529453Y-186393328D02*
X216815167Y-186393328D01*
X216815167Y-186393328D02*
X216958025Y-186321900D01*
X216958025Y-186321900D02*
X217029453Y-186250471D01*
X217029453Y-186250471D02*
X217100882Y-186107614D01*
X217100882Y-186107614D02*
X217100882Y-185821900D01*
X217100882Y-185821900D02*
X217029453Y-185679042D01*
X217029453Y-185679042D02*
X216958025Y-185607614D01*
X216958025Y-185607614D02*
X216815167Y-185536185D01*
X217386596Y-186536185D02*
X218529453Y-186536185D01*
X219672310Y-186393328D02*
X218815167Y-186393328D01*
X219243738Y-186393328D02*
X219243738Y-184893328D01*
X219243738Y-184893328D02*
X219100881Y-185107614D01*
X219100881Y-185107614D02*
X218958024Y-185250471D01*
X218958024Y-185250471D02*
X218815167Y-185321900D01*
X220315166Y-186250471D02*
X220386595Y-186321900D01*
X220386595Y-186321900D02*
X220315166Y-186393328D01*
X220315166Y-186393328D02*
X220243738Y-186321900D01*
X220243738Y-186321900D02*
X220315166Y-186250471D01*
X220315166Y-186250471D02*
X220315166Y-186393328D01*
X221672310Y-184893328D02*
X221386595Y-184893328D01*
X221386595Y-184893328D02*
X221243738Y-184964757D01*
X221243738Y-184964757D02*
X221172310Y-185036185D01*
X221172310Y-185036185D02*
X221029452Y-185250471D01*
X221029452Y-185250471D02*
X220958024Y-185536185D01*
X220958024Y-185536185D02*
X220958024Y-186107614D01*
X220958024Y-186107614D02*
X221029452Y-186250471D01*
X221029452Y-186250471D02*
X221100881Y-186321900D01*
X221100881Y-186321900D02*
X221243738Y-186393328D01*
X221243738Y-186393328D02*
X221529452Y-186393328D01*
X221529452Y-186393328D02*
X221672310Y-186321900D01*
X221672310Y-186321900D02*
X221743738Y-186250471D01*
X221743738Y-186250471D02*
X221815167Y-186107614D01*
X221815167Y-186107614D02*
X221815167Y-185750471D01*
X221815167Y-185750471D02*
X221743738Y-185607614D01*
X221743738Y-185607614D02*
X221672310Y-185536185D01*
X221672310Y-185536185D02*
X221529452Y-185464757D01*
X221529452Y-185464757D02*
X221243738Y-185464757D01*
X221243738Y-185464757D02*
X221100881Y-185536185D01*
X221100881Y-185536185D02*
X221029452Y-185607614D01*
X221029452Y-185607614D02*
X220958024Y-185750471D01*
X222529452Y-186393328D02*
X222815166Y-186393328D01*
X222815166Y-186393328D02*
X222958023Y-186321900D01*
X222958023Y-186321900D02*
X223029452Y-186250471D01*
X223029452Y-186250471D02*
X223172309Y-186036185D01*
X223172309Y-186036185D02*
X223243738Y-185750471D01*
X223243738Y-185750471D02*
X223243738Y-185179042D01*
X223243738Y-185179042D02*
X223172309Y-185036185D01*
X223172309Y-185036185D02*
X223100881Y-184964757D01*
X223100881Y-184964757D02*
X222958023Y-184893328D01*
X222958023Y-184893328D02*
X222672309Y-184893328D01*
X222672309Y-184893328D02*
X222529452Y-184964757D01*
X222529452Y-184964757D02*
X222458023Y-185036185D01*
X222458023Y-185036185D02*
X222386595Y-185179042D01*
X222386595Y-185179042D02*
X222386595Y-185536185D01*
X222386595Y-185536185D02*
X222458023Y-185679042D01*
X222458023Y-185679042D02*
X222529452Y-185750471D01*
X222529452Y-185750471D02*
X222672309Y-185821900D01*
X222672309Y-185821900D02*
X222958023Y-185821900D01*
X222958023Y-185821900D02*
X223100881Y-185750471D01*
X223100881Y-185750471D02*
X223172309Y-185679042D01*
X223172309Y-185679042D02*
X223243738Y-185536185D01*
X223529452Y-186536185D02*
X224672309Y-186536185D01*
X225743737Y-186393328D02*
X225029451Y-186393328D01*
X225029451Y-186393328D02*
X225029451Y-184893328D01*
X227100880Y-186250471D02*
X227029452Y-186321900D01*
X227029452Y-186321900D02*
X226815166Y-186393328D01*
X226815166Y-186393328D02*
X226672309Y-186393328D01*
X226672309Y-186393328D02*
X226458023Y-186321900D01*
X226458023Y-186321900D02*
X226315166Y-186179042D01*
X226315166Y-186179042D02*
X226243737Y-186036185D01*
X226243737Y-186036185D02*
X226172309Y-185750471D01*
X226172309Y-185750471D02*
X226172309Y-185536185D01*
X226172309Y-185536185D02*
X226243737Y-185250471D01*
X226243737Y-185250471D02*
X226315166Y-185107614D01*
X226315166Y-185107614D02*
X226458023Y-184964757D01*
X226458023Y-184964757D02*
X226672309Y-184893328D01*
X226672309Y-184893328D02*
X226815166Y-184893328D01*
X226815166Y-184893328D02*
X227029452Y-184964757D01*
X227029452Y-184964757D02*
X227100880Y-185036185D01*
X227743737Y-186393328D02*
X227743737Y-184893328D01*
X227743737Y-184893328D02*
X228100880Y-184893328D01*
X228100880Y-184893328D02*
X228315166Y-184964757D01*
X228315166Y-184964757D02*
X228458023Y-185107614D01*
X228458023Y-185107614D02*
X228529452Y-185250471D01*
X228529452Y-185250471D02*
X228600880Y-185536185D01*
X228600880Y-185536185D02*
X228600880Y-185750471D01*
X228600880Y-185750471D02*
X228529452Y-186036185D01*
X228529452Y-186036185D02*
X228458023Y-186179042D01*
X228458023Y-186179042D02*
X228315166Y-186321900D01*
X228315166Y-186321900D02*
X228100880Y-186393328D01*
X228100880Y-186393328D02*
X227743737Y-186393328D01*
X228886595Y-186536185D02*
X230029452Y-186536185D01*
X230172309Y-184893328D02*
X231029452Y-184893328D01*
X230600880Y-186393328D02*
X230600880Y-184893328D01*
X232029451Y-185607614D02*
X231529451Y-185607614D01*
X231529451Y-186393328D02*
X231529451Y-184893328D01*
X231529451Y-184893328D02*
X232243737Y-184893328D01*
X232600880Y-184893328D02*
X233458023Y-184893328D01*
X233029451Y-186393328D02*
X233029451Y-184893328D01*
X233600880Y-186536185D02*
X234743737Y-186536185D01*
X235886594Y-186393328D02*
X235029451Y-186393328D01*
X235458022Y-186393328D02*
X235458022Y-184893328D01*
X235458022Y-184893328D02*
X235315165Y-185107614D01*
X235315165Y-185107614D02*
X235172308Y-185250471D01*
X235172308Y-185250471D02*
X235029451Y-185321900D01*
X237172308Y-184893328D02*
X236886593Y-184893328D01*
X236886593Y-184893328D02*
X236743736Y-184964757D01*
X236743736Y-184964757D02*
X236672308Y-185036185D01*
X236672308Y-185036185D02*
X236529450Y-185250471D01*
X236529450Y-185250471D02*
X236458022Y-185536185D01*
X236458022Y-185536185D02*
X236458022Y-186107614D01*
X236458022Y-186107614D02*
X236529450Y-186250471D01*
X236529450Y-186250471D02*
X236600879Y-186321900D01*
X236600879Y-186321900D02*
X236743736Y-186393328D01*
X236743736Y-186393328D02*
X237029450Y-186393328D01*
X237029450Y-186393328D02*
X237172308Y-186321900D01*
X237172308Y-186321900D02*
X237243736Y-186250471D01*
X237243736Y-186250471D02*
X237315165Y-186107614D01*
X237315165Y-186107614D02*
X237315165Y-185750471D01*
X237315165Y-185750471D02*
X237243736Y-185607614D01*
X237243736Y-185607614D02*
X237172308Y-185536185D01*
X237172308Y-185536185D02*
X237029450Y-185464757D01*
X237029450Y-185464757D02*
X236743736Y-185464757D01*
X236743736Y-185464757D02*
X236600879Y-185536185D01*
X236600879Y-185536185D02*
X236529450Y-185607614D01*
X236529450Y-185607614D02*
X236458022Y-185750471D01*
X237600879Y-186536185D02*
X238743736Y-186536185D01*
X239100878Y-186393328D02*
X239100878Y-184893328D01*
X239100878Y-185464757D02*
X239243736Y-185393328D01*
X239243736Y-185393328D02*
X239529450Y-185393328D01*
X239529450Y-185393328D02*
X239672307Y-185464757D01*
X239672307Y-185464757D02*
X239743736Y-185536185D01*
X239743736Y-185536185D02*
X239815164Y-185679042D01*
X239815164Y-185679042D02*
X239815164Y-186107614D01*
X239815164Y-186107614D02*
X239743736Y-186250471D01*
X239743736Y-186250471D02*
X239672307Y-186321900D01*
X239672307Y-186321900D02*
X239529450Y-186393328D01*
X239529450Y-186393328D02*
X239243736Y-186393328D01*
X239243736Y-186393328D02*
X239100878Y-186321900D01*
X240458021Y-186393328D02*
X240458021Y-185393328D01*
X240458021Y-184893328D02*
X240386593Y-184964757D01*
X240386593Y-184964757D02*
X240458021Y-185036185D01*
X240458021Y-185036185D02*
X240529450Y-184964757D01*
X240529450Y-184964757D02*
X240458021Y-184893328D01*
X240458021Y-184893328D02*
X240458021Y-185036185D01*
X240958022Y-185393328D02*
X241529450Y-185393328D01*
X241172307Y-184893328D02*
X241172307Y-186179042D01*
X241172307Y-186179042D02*
X241243736Y-186321900D01*
X241243736Y-186321900D02*
X241386593Y-186393328D01*
X241386593Y-186393328D02*
X241529450Y-186393328D01*
X241672308Y-186536185D02*
X242815165Y-186536185D01*
X243172307Y-186393328D02*
X243172307Y-184893328D01*
X243886593Y-186393328D02*
X243886593Y-184893328D01*
X243886593Y-184893328D02*
X244743736Y-186393328D01*
X244743736Y-186393328D02*
X244743736Y-184893328D01*
X245386594Y-185964757D02*
X246100880Y-185964757D01*
X245243737Y-186393328D02*
X245743737Y-184893328D01*
X245743737Y-184893328D02*
X246243737Y-186393328D01*
X246672308Y-185036185D02*
X246743736Y-184964757D01*
X246743736Y-184964757D02*
X246886594Y-184893328D01*
X246886594Y-184893328D02*
X247243736Y-184893328D01*
X247243736Y-184893328D02*
X247386594Y-184964757D01*
X247386594Y-184964757D02*
X247458022Y-185036185D01*
X247458022Y-185036185D02*
X247529451Y-185179042D01*
X247529451Y-185179042D02*
X247529451Y-185321900D01*
X247529451Y-185321900D02*
X247458022Y-185536185D01*
X247458022Y-185536185D02*
X246600879Y-186393328D01*
X246600879Y-186393328D02*
X247529451Y-186393328D01*
X248029450Y-184893328D02*
X248958022Y-184893328D01*
X248958022Y-184893328D02*
X248458022Y-185464757D01*
X248458022Y-185464757D02*
X248672307Y-185464757D01*
X248672307Y-185464757D02*
X248815165Y-185536185D01*
X248815165Y-185536185D02*
X248886593Y-185607614D01*
X248886593Y-185607614D02*
X248958022Y-185750471D01*
X248958022Y-185750471D02*
X248958022Y-186107614D01*
X248958022Y-186107614D02*
X248886593Y-186250471D01*
X248886593Y-186250471D02*
X248815165Y-186321900D01*
X248815165Y-186321900D02*
X248672307Y-186393328D01*
X248672307Y-186393328D02*
X248243736Y-186393328D01*
X248243736Y-186393328D02*
X248100879Y-186321900D01*
X248100879Y-186321900D02*
X248029450Y-186250471D01*
X249458021Y-184893328D02*
X250458021Y-184893328D01*
X250458021Y-184893328D02*
X249815164Y-186393328D01*
X251029449Y-186250471D02*
X251100878Y-186321900D01*
X251100878Y-186321900D02*
X251029449Y-186393328D01*
X251029449Y-186393328D02*
X250958021Y-186321900D01*
X250958021Y-186321900D02*
X251029449Y-186250471D01*
X251029449Y-186250471D02*
X251029449Y-186393328D01*
X251743735Y-186393328D02*
X251743735Y-184893328D01*
X251886593Y-185821900D02*
X252315164Y-186393328D01*
X252315164Y-185393328D02*
X251743735Y-185964757D01*
X252958021Y-186393328D02*
X252958021Y-185393328D01*
X252958021Y-184893328D02*
X252886593Y-184964757D01*
X252886593Y-184964757D02*
X252958021Y-185036185D01*
X252958021Y-185036185D02*
X253029450Y-184964757D01*
X253029450Y-184964757D02*
X252958021Y-184893328D01*
X252958021Y-184893328D02*
X252958021Y-185036185D01*
X254315165Y-186321900D02*
X254172307Y-186393328D01*
X254172307Y-186393328D02*
X253886593Y-186393328D01*
X253886593Y-186393328D02*
X253743736Y-186321900D01*
X253743736Y-186321900D02*
X253672307Y-186250471D01*
X253672307Y-186250471D02*
X253600879Y-186107614D01*
X253600879Y-186107614D02*
X253600879Y-185679042D01*
X253600879Y-185679042D02*
X253672307Y-185536185D01*
X253672307Y-185536185D02*
X253743736Y-185464757D01*
X253743736Y-185464757D02*
X253886593Y-185393328D01*
X253886593Y-185393328D02*
X254172307Y-185393328D01*
X254172307Y-185393328D02*
X254315165Y-185464757D01*
X255600879Y-186393328D02*
X255600879Y-185607614D01*
X255600879Y-185607614D02*
X255529450Y-185464757D01*
X255529450Y-185464757D02*
X255386593Y-185393328D01*
X255386593Y-185393328D02*
X255100879Y-185393328D01*
X255100879Y-185393328D02*
X254958021Y-185464757D01*
X255600879Y-186321900D02*
X255458021Y-186393328D01*
X255458021Y-186393328D02*
X255100879Y-186393328D01*
X255100879Y-186393328D02*
X254958021Y-186321900D01*
X254958021Y-186321900D02*
X254886593Y-186179042D01*
X254886593Y-186179042D02*
X254886593Y-186036185D01*
X254886593Y-186036185D02*
X254958021Y-185893328D01*
X254958021Y-185893328D02*
X255100879Y-185821900D01*
X255100879Y-185821900D02*
X255458021Y-185821900D01*
X255458021Y-185821900D02*
X255600879Y-185750471D01*
X256958022Y-186393328D02*
X256958022Y-184893328D01*
X256958022Y-186321900D02*
X256815164Y-186393328D01*
X256815164Y-186393328D02*
X256529450Y-186393328D01*
X256529450Y-186393328D02*
X256386593Y-186321900D01*
X256386593Y-186321900D02*
X256315164Y-186250471D01*
X256315164Y-186250471D02*
X256243736Y-186107614D01*
X256243736Y-186107614D02*
X256243736Y-185679042D01*
X256243736Y-185679042D02*
X256315164Y-185536185D01*
X256315164Y-185536185D02*
X256386593Y-185464757D01*
X256386593Y-185464757D02*
X256529450Y-185393328D01*
X256529450Y-185393328D02*
X256815164Y-185393328D01*
X256815164Y-185393328D02*
X256958022Y-185464757D01*
X257315165Y-186536185D02*
X258458022Y-186536185D01*
X258815164Y-185393328D02*
X258815164Y-186893328D01*
X258815164Y-185464757D02*
X258958022Y-185393328D01*
X258958022Y-185393328D02*
X259243736Y-185393328D01*
X259243736Y-185393328D02*
X259386593Y-185464757D01*
X259386593Y-185464757D02*
X259458022Y-185536185D01*
X259458022Y-185536185D02*
X259529450Y-185679042D01*
X259529450Y-185679042D02*
X259529450Y-186107614D01*
X259529450Y-186107614D02*
X259458022Y-186250471D01*
X259458022Y-186250471D02*
X259386593Y-186321900D01*
X259386593Y-186321900D02*
X259243736Y-186393328D01*
X259243736Y-186393328D02*
X258958022Y-186393328D01*
X258958022Y-186393328D02*
X258815164Y-186321900D01*
X260815165Y-186321900D02*
X260672307Y-186393328D01*
X260672307Y-186393328D02*
X260386593Y-186393328D01*
X260386593Y-186393328D02*
X260243736Y-186321900D01*
X260243736Y-186321900D02*
X260172307Y-186250471D01*
X260172307Y-186250471D02*
X260100879Y-186107614D01*
X260100879Y-186107614D02*
X260100879Y-185679042D01*
X260100879Y-185679042D02*
X260172307Y-185536185D01*
X260172307Y-185536185D02*
X260243736Y-185464757D01*
X260243736Y-185464757D02*
X260386593Y-185393328D01*
X260386593Y-185393328D02*
X260672307Y-185393328D01*
X260672307Y-185393328D02*
X260815165Y-185464757D01*
X261458021Y-186393328D02*
X261458021Y-184893328D01*
X261458021Y-185464757D02*
X261600879Y-185393328D01*
X261600879Y-185393328D02*
X261886593Y-185393328D01*
X261886593Y-185393328D02*
X262029450Y-185464757D01*
X262029450Y-185464757D02*
X262100879Y-185536185D01*
X262100879Y-185536185D02*
X262172307Y-185679042D01*
X262172307Y-185679042D02*
X262172307Y-186107614D01*
X262172307Y-186107614D02*
X262100879Y-186250471D01*
X262100879Y-186250471D02*
X262029450Y-186321900D01*
X262029450Y-186321900D02*
X261886593Y-186393328D01*
X261886593Y-186393328D02*
X261600879Y-186393328D01*
X261600879Y-186393328D02*
X261458021Y-186321900D01*
D10*
D11*
X177002200Y-181507200D02*
X285002200Y-181507200D01*
D10*
D11*
X178386598Y-183621900D02*
X178600884Y-183693328D01*
X178600884Y-183693328D02*
X178958026Y-183693328D01*
X178958026Y-183693328D02*
X179100884Y-183621900D01*
X179100884Y-183621900D02*
X179172312Y-183550471D01*
X179172312Y-183550471D02*
X179243741Y-183407614D01*
X179243741Y-183407614D02*
X179243741Y-183264757D01*
X179243741Y-183264757D02*
X179172312Y-183121900D01*
X179172312Y-183121900D02*
X179100884Y-183050471D01*
X179100884Y-183050471D02*
X178958026Y-182979042D01*
X178958026Y-182979042D02*
X178672312Y-182907614D01*
X178672312Y-182907614D02*
X178529455Y-182836185D01*
X178529455Y-182836185D02*
X178458026Y-182764757D01*
X178458026Y-182764757D02*
X178386598Y-182621900D01*
X178386598Y-182621900D02*
X178386598Y-182479042D01*
X178386598Y-182479042D02*
X178458026Y-182336185D01*
X178458026Y-182336185D02*
X178529455Y-182264757D01*
X178529455Y-182264757D02*
X178672312Y-182193328D01*
X178672312Y-182193328D02*
X179029455Y-182193328D01*
X179029455Y-182193328D02*
X179243741Y-182264757D01*
X179886597Y-183693328D02*
X179886597Y-182193328D01*
X180529455Y-183693328D02*
X180529455Y-182907614D01*
X180529455Y-182907614D02*
X180458026Y-182764757D01*
X180458026Y-182764757D02*
X180315169Y-182693328D01*
X180315169Y-182693328D02*
X180100883Y-182693328D01*
X180100883Y-182693328D02*
X179958026Y-182764757D01*
X179958026Y-182764757D02*
X179886597Y-182836185D01*
X181815169Y-183621900D02*
X181672312Y-183693328D01*
X181672312Y-183693328D02*
X181386598Y-183693328D01*
X181386598Y-183693328D02*
X181243740Y-183621900D01*
X181243740Y-183621900D02*
X181172312Y-183479042D01*
X181172312Y-183479042D02*
X181172312Y-182907614D01*
X181172312Y-182907614D02*
X181243740Y-182764757D01*
X181243740Y-182764757D02*
X181386598Y-182693328D01*
X181386598Y-182693328D02*
X181672312Y-182693328D01*
X181672312Y-182693328D02*
X181815169Y-182764757D01*
X181815169Y-182764757D02*
X181886598Y-182907614D01*
X181886598Y-182907614D02*
X181886598Y-183050471D01*
X181886598Y-183050471D02*
X181172312Y-183193328D01*
X183100883Y-183621900D02*
X182958026Y-183693328D01*
X182958026Y-183693328D02*
X182672312Y-183693328D01*
X182672312Y-183693328D02*
X182529454Y-183621900D01*
X182529454Y-183621900D02*
X182458026Y-183479042D01*
X182458026Y-183479042D02*
X182458026Y-182907614D01*
X182458026Y-182907614D02*
X182529454Y-182764757D01*
X182529454Y-182764757D02*
X182672312Y-182693328D01*
X182672312Y-182693328D02*
X182958026Y-182693328D01*
X182958026Y-182693328D02*
X183100883Y-182764757D01*
X183100883Y-182764757D02*
X183172312Y-182907614D01*
X183172312Y-182907614D02*
X183172312Y-183050471D01*
X183172312Y-183050471D02*
X182458026Y-183193328D01*
X183600883Y-182693328D02*
X184172311Y-182693328D01*
X183815168Y-182193328D02*
X183815168Y-183479042D01*
X183815168Y-183479042D02*
X183886597Y-183621900D01*
X183886597Y-183621900D02*
X184029454Y-183693328D01*
X184029454Y-183693328D02*
X184172311Y-183693328D01*
X184672311Y-183550471D02*
X184743740Y-183621900D01*
X184743740Y-183621900D02*
X184672311Y-183693328D01*
X184672311Y-183693328D02*
X184600883Y-183621900D01*
X184600883Y-183621900D02*
X184672311Y-183550471D01*
X184672311Y-183550471D02*
X184672311Y-183693328D01*
X184672311Y-182764757D02*
X184743740Y-182836185D01*
X184743740Y-182836185D02*
X184672311Y-182907614D01*
X184672311Y-182907614D02*
X184600883Y-182836185D01*
X184600883Y-182836185D02*
X184672311Y-182764757D01*
X184672311Y-182764757D02*
X184672311Y-182907614D01*
D10*
D12*
X178485282Y-180256957D02*
X179199568Y-180256957D01*
X178342425Y-180685528D02*
X178842425Y-179185528D01*
X178842425Y-179185528D02*
X179342425Y-180685528D01*
X180413853Y-180614100D02*
X180270996Y-180685528D01*
X180270996Y-180685528D02*
X179985282Y-180685528D01*
X179985282Y-180685528D02*
X179842424Y-180614100D01*
X179842424Y-180614100D02*
X179770996Y-180471242D01*
X179770996Y-180471242D02*
X179770996Y-179899814D01*
X179770996Y-179899814D02*
X179842424Y-179756957D01*
X179842424Y-179756957D02*
X179985282Y-179685528D01*
X179985282Y-179685528D02*
X180270996Y-179685528D01*
X180270996Y-179685528D02*
X180413853Y-179756957D01*
X180413853Y-179756957D02*
X180485282Y-179899814D01*
X180485282Y-179899814D02*
X180485282Y-180042671D01*
X180485282Y-180042671D02*
X179770996Y-180185528D01*
X181342424Y-180685528D02*
X181199567Y-180614100D01*
X181199567Y-180614100D02*
X181128138Y-180542671D01*
X181128138Y-180542671D02*
X181056710Y-180399814D01*
X181056710Y-180399814D02*
X181056710Y-179971242D01*
X181056710Y-179971242D02*
X181128138Y-179828385D01*
X181128138Y-179828385D02*
X181199567Y-179756957D01*
X181199567Y-179756957D02*
X181342424Y-179685528D01*
X181342424Y-179685528D02*
X181556710Y-179685528D01*
X181556710Y-179685528D02*
X181699567Y-179756957D01*
X181699567Y-179756957D02*
X181770996Y-179828385D01*
X181770996Y-179828385D02*
X181842424Y-179971242D01*
X181842424Y-179971242D02*
X181842424Y-180399814D01*
X181842424Y-180399814D02*
X181770996Y-180542671D01*
X181770996Y-180542671D02*
X181699567Y-180614100D01*
X181699567Y-180614100D02*
X181556710Y-180685528D01*
X181556710Y-180685528D02*
X181342424Y-180685528D01*
X182485281Y-179685528D02*
X182485281Y-180685528D01*
X182485281Y-179828385D02*
X182556710Y-179756957D01*
X182556710Y-179756957D02*
X182699567Y-179685528D01*
X182699567Y-179685528D02*
X182913853Y-179685528D01*
X182913853Y-179685528D02*
X183056710Y-179756957D01*
X183056710Y-179756957D02*
X183128139Y-179899814D01*
X183128139Y-179899814D02*
X183128139Y-180685528D01*
X184556710Y-180685528D02*
X183842424Y-180685528D01*
X183842424Y-180685528D02*
X183842424Y-179185528D01*
X185699568Y-180685528D02*
X185699568Y-179899814D01*
X185699568Y-179899814D02*
X185628139Y-179756957D01*
X185628139Y-179756957D02*
X185485282Y-179685528D01*
X185485282Y-179685528D02*
X185199568Y-179685528D01*
X185199568Y-179685528D02*
X185056710Y-179756957D01*
X185699568Y-180614100D02*
X185556710Y-180685528D01*
X185556710Y-180685528D02*
X185199568Y-180685528D01*
X185199568Y-180685528D02*
X185056710Y-180614100D01*
X185056710Y-180614100D02*
X184985282Y-180471242D01*
X184985282Y-180471242D02*
X184985282Y-180328385D01*
X184985282Y-180328385D02*
X185056710Y-180185528D01*
X185056710Y-180185528D02*
X185199568Y-180114100D01*
X185199568Y-180114100D02*
X185556710Y-180114100D01*
X185556710Y-180114100D02*
X185699568Y-180042671D01*
X186413853Y-180685528D02*
X186413853Y-179185528D01*
X186413853Y-179756957D02*
X186556711Y-179685528D01*
X186556711Y-179685528D02*
X186842425Y-179685528D01*
X186842425Y-179685528D02*
X186985282Y-179756957D01*
X186985282Y-179756957D02*
X187056711Y-179828385D01*
X187056711Y-179828385D02*
X187128139Y-179971242D01*
X187128139Y-179971242D02*
X187128139Y-180399814D01*
X187128139Y-180399814D02*
X187056711Y-180542671D01*
X187056711Y-180542671D02*
X186985282Y-180614100D01*
X186985282Y-180614100D02*
X186842425Y-180685528D01*
X186842425Y-180685528D02*
X186556711Y-180685528D01*
X186556711Y-180685528D02*
X186413853Y-180614100D01*
X187699568Y-180614100D02*
X187842425Y-180685528D01*
X187842425Y-180685528D02*
X188128139Y-180685528D01*
X188128139Y-180685528D02*
X188270996Y-180614100D01*
X188270996Y-180614100D02*
X188342425Y-180471242D01*
X188342425Y-180471242D02*
X188342425Y-180399814D01*
X188342425Y-180399814D02*
X188270996Y-180256957D01*
X188270996Y-180256957D02*
X188128139Y-180185528D01*
X188128139Y-180185528D02*
X187913854Y-180185528D01*
X187913854Y-180185528D02*
X187770996Y-180114100D01*
X187770996Y-180114100D02*
X187699568Y-179971242D01*
X187699568Y-179971242D02*
X187699568Y-179899814D01*
X187699568Y-179899814D02*
X187770996Y-179756957D01*
X187770996Y-179756957D02*
X187913854Y-179685528D01*
X187913854Y-179685528D02*
X188128139Y-179685528D01*
X188128139Y-179685528D02*
X188270996Y-179756957D01*
D10*
D11*
D10*
D11*
D10*
D11*
D10*
D11*
D10*
D11*
X197002200Y-191507200D02*
X197002200Y-194507200D01*
D10*
D11*
X261002200Y-191507200D02*
X261002200Y-198007200D01*
D14*
X220663778Y-75122943D02*
X220663291Y-77982943D01*
X225249836Y-78398985D02*
X221093778Y-78392942D01*
X225670292Y-75108497D02*
G75*
G03*
X225239835Y-74698499I-410392J97D01*
G01*
X226460643Y-74538829D02*
G75*
G03*
X226030078Y-74128831I-410843J-371D01*
G01*
X226069436Y-79211624D02*
G75*
G03*
X226479435Y-78781171I64J410424D01*
G01*
X225670322Y-75108497D02*
X225659835Y-77968498D01*
X221073259Y-74692476D02*
G75*
G03*
X220663261Y-75122943I41J-410524D01*
G01*
X220273261Y-74118628D02*
X221073259Y-74118185D01*
X225239835Y-74124302D02*
G75*
G03*
X225239835Y-74698498I-35J-287098D01*
G01*
X226030078Y-74128830D02*
X225239835Y-74124227D01*
X220300428Y-79193974D02*
X226069436Y-79211658D01*
X219863780Y-74549115D02*
X219869941Y-78783975D01*
X221073259Y-74692415D02*
G75*
G03*
X221073259Y-74118185I41J287115D01*
G01*
X226479435Y-78781171D02*
X226460565Y-74538829D01*
X220273261Y-74118664D02*
G75*
G03*
X219863262Y-74549115I-261J-410236D01*
G01*
X220663267Y-77982943D02*
G75*
G03*
X221093778Y-78392942I410433J-57D01*
G01*
X219870027Y-78783975D02*
G75*
G03*
X220300428Y-79193974I410173J-325D01*
G01*
X225249836Y-78399027D02*
G75*
G03*
X225659834Y-77968498I64J410427D01*
G01*
D15*
G04 #@! TO.C,REF\u002A\u002A*
X191070000Y-107825484D02*
X191065611Y-81184721D01*
X192031096Y-108852335D02*
X195951607Y-108847665D01*
X192092462Y-80223625D02*
X204927538Y-80196375D01*
X199232416Y-116227976D02*
X199261449Y-112190009D01*
X200193512Y-117254827D02*
X225677339Y-117228648D01*
X208266236Y-71804151D02*
X208269882Y-76886533D01*
X209293087Y-70843055D02*
X234526912Y-70836946D01*
X226704190Y-116267552D02*
X226712580Y-112217092D01*
X235488008Y-71863797D02*
X235477203Y-76886194D01*
X238787045Y-80228538D02*
X242954116Y-80231462D01*
X242890000Y-108880000D02*
X230054924Y-108907250D01*
X243915212Y-81258313D02*
X243916851Y-107918904D01*
X192092462Y-80223625D02*
G75*
G03*
X191065612Y-81184721I-16851J-1011096D01*
G01*
X191070000Y-107825484D02*
G75*
G03*
X192031096Y-108852335I1011100J-16848D01*
G01*
X199261449Y-112190009D02*
G75*
G03*
X195951607Y-108847665I-3309842J32344D01*
G01*
X199232416Y-116227976D02*
G75*
G03*
X200193512Y-117254826I1011092J-16855D01*
G01*
X209293087Y-70843057D02*
G75*
G03*
X208266237Y-71804151I-16869J-1011076D01*
G01*
X204927538Y-80196375D02*
G75*
G03*
X208269882Y-76886533I32330J3309856D01*
G01*
X225677339Y-117228644D02*
G75*
G03*
X226704190Y-116267552I16891J1011054D01*
G01*
X230054924Y-108907248D02*
G75*
G03*
X226712580Y-112217092I-32324J-3309862D01*
G01*
X235487950Y-71863796D02*
G75*
G03*
X234526912Y-70836947I-1011050J16896D01*
G01*
X235477220Y-76886194D02*
G75*
G03*
X238787045Y-80228538I3309880J-32306D01*
G01*
X243915255Y-81258314D02*
G75*
G03*
X242954116Y-80231462I-1011455J16514D01*
G01*
X242890000Y-108879999D02*
G75*
G03*
X243916850Y-107918904I16810J1011139D01*
G01*
G04 #@! TD*
M02*
