M48
; DRILL file {KiCad 7.0.7} date Thu Oct 12 17:33:57 2023
; FORMAT={-:-/ absolute / inch / decimal}
; #@! TF.CreationDate,2023-10-12T17:33:57+02:00
; #@! TF.GenerationSoftware,Kicad,Pcbnew,7.0.7
; #@! TF.FileFunction,Plated,1,2,PTH
FMAT,2
INCH
; #@! TA.AperFunction,Plated,PTH,ViaDrill
T1C0.0157
; #@! TA.AperFunction,Plated,PTH,ComponentDrill
T2C0.0236
; #@! TA.AperFunction,Plated,PTH,ComponentDrill
T3C0.0630
%
G90
G05
T1
X7.5921Y-4.239
X7.6091Y-4.0173
X7.6209Y-4.1098
X7.6256Y-3.752
X7.6531Y-3.7772
X7.6555Y-3.4339
X7.6571Y-3.4776
X7.7819Y-3.2787
X7.7894Y-3.3567
X7.7894Y-3.3965
X7.8472Y-3.2539
X7.878Y-4.1453
X7.9079Y-3.6669
X7.9091Y-3.7217
X7.911Y-3.8224
X7.9264Y-3.9461
X7.9323Y-4.3031
X7.9343Y-4.1398
X7.961Y-4.2394
X7.9732Y-4.0453
X7.9799Y-3.9725
X7.987Y-4.0929
X8.0024Y-4.4496
X8.0217Y-3.8205
X8.0618Y-4.4961
X8.0913Y-3.237
X8.1028Y-4.585
X8.1161Y-3.9492
X8.1484Y-3.5339
X8.1484Y-3.5854
X8.152Y-4.4941
X8.1701Y-3.2504
X8.1752Y-3.8075
X8.1917Y-4.1996
X8.2353Y-3.6677
X8.2433Y-3.9547
X8.2461Y-3.524
X8.276Y-4.0165
X8.2807Y-3.5071
X8.2823Y-3.4677
X8.2831Y-3.3575
X8.2831Y-3.4319
X8.2839Y-3.3917
X8.3126Y-3.9831
X8.3516Y-4.1295
X8.3913Y-3.8339
X8.3961Y-3.2287
X8.3972Y-3.3913
X8.4126Y-3.613
X8.4177Y-3.5331
X8.426Y-3.3634
X8.4315Y-3.8343
X8.4453Y-3.7417
X8.474Y-3.7039
X8.478Y-3.5366
X8.4783Y-4.1469
X8.6331Y-4.2012
X8.6417Y-3.413
X8.6445Y-3.3634
X8.6519Y-4.3442
X8.6535Y-4.2846
X8.6539Y-3.7248
X8.663Y-3.6732
X8.6717Y-3.7953
X8.6811Y-3.1969
X8.6949Y-3.6547
X8.7059Y-3.7665
X8.713Y-3.5763
X8.7449Y-4.0484
X8.7516Y-3.4819
X8.7577Y-3.8827
X8.7677Y-3.5366
X8.7741Y-3.9173
X8.7811Y-3.3508
X8.8Y-4.2906
X8.8027Y-3.9988
X8.8047Y-3.624
X8.8169Y-4.585
X8.8205Y-3.352
X8.8248Y-4.189
X8.8385Y-3.9091
X8.8437Y-3.3846
X8.8614Y-3.0134
X8.8642Y-3.4205
X8.876Y-3.9035
X8.8803Y-3.385
X8.8805Y-3.9468
X8.9169Y-3.2516
X8.9266Y-3.8983
X8.9354Y-3.1843
X8.9382Y-3.4963
X8.9568Y-3.5217
X8.9594Y-3.3821
X8.965Y-3.7839
X8.9914Y-3.5215
X8.9939Y-2.8681
X9.0193Y-3.5394
X9.0472Y-3.8393
X9.0485Y-3.3616
X9.054Y-3.5805
X9.0654Y-2.9665
X9.0654Y-3.289
X9.0735Y-3.7448
X9.0829Y-3.6225
X9.085Y-3.5886
X9.0992Y-3.2063
X9.1106Y-3.7448
X9.1113Y-2.9672
X9.1238Y-3.686
X9.1302Y-3.6392
X9.1515Y-3.7765
X9.1539Y-2.8508
X9.1598Y-3.5421
X9.1605Y-3.7282
X9.1672Y-3.6369
X9.2169Y-3.2453
X9.2169Y-3.285
X9.2366Y-3.8213
X9.2382Y-3.9098
X9.2782Y-3.6581
X9.2808Y-3.5387
X9.3004Y-3.3965
X9.3402Y-3.3559
X9.3803Y-3.9835
X9.4381Y-3.348
X9.4732Y-3.2614
X9.511Y-3.8594
T3
X8.2756Y-2.9811
X8.5807Y-2.9815
T2
G00X7.6524Y-3.5807
M15
G01X7.6287Y-3.5807
M16
G05
G00X7.6524Y-3.9209
M15
G01X7.6287Y-3.9209
M16
G05
G00X7.8268Y-3.5807
M15
G01X7.7835Y-3.5807
M16
G05
G00X7.8268Y-3.9209
M15
G01X7.7835Y-3.9209
M16
G05
T0
M30
