G04 #@! TF.GenerationSoftware,KiCad,Pcbnew,7.0.7*
G04 #@! TF.CreationDate,2023-10-12T17:33:54+02:00*
G04 #@! TF.ProjectId,LDAD_ABS_ENCLOSURE_52X48_1.69_LCD_TFT_16_bit_INA237,4c444144-5f41-4425-935f-454e434c4f53,5.3*
G04 #@! TF.SameCoordinates,Original*
G04 #@! TF.FileFunction,Copper,L2,Bot*
G04 #@! TF.FilePolarity,Positive*
%FSLAX46Y46*%
G04 Gerber Fmt 4.6, Leading zero omitted, Abs format (unit mm)*
G04 Created by KiCad (PCBNEW 7.0.7) date 2023-10-12 17:33:54*
%MOMM*%
%LPD*%
G01*
G04 APERTURE LIST*
G04 Aperture macros list*
%AMRoundRect*
0 Rectangle with rounded corners*
0 $1 Rounding radius*
0 $2 $3 $4 $5 $6 $7 $8 $9 X,Y pos of 4 corners*
0 Add a 4 corners polygon primitive as box body*
4,1,4,$2,$3,$4,$5,$6,$7,$8,$9,$2,$3,0*
0 Add four circle primitives for the rounded corners*
1,1,$1+$1,$2,$3*
1,1,$1+$1,$4,$5*
1,1,$1+$1,$6,$7*
1,1,$1+$1,$8,$9*
0 Add four rect primitives between the rounded corners*
20,1,$1+$1,$2,$3,$4,$5,0*
20,1,$1+$1,$4,$5,$6,$7,0*
20,1,$1+$1,$6,$7,$8,$9,0*
20,1,$1+$1,$8,$9,$2,$3,0*%
G04 Aperture macros list end*
%ADD10C,0.100000*%
%ADD11C,0.150000*%
%ADD12C,0.300000*%
%ADD13C,0.400000*%
G04 #@! TA.AperFunction,ComponentPad*
%ADD14C,2.800000*%
G04 #@! TD*
G04 #@! TA.AperFunction,ComponentPad*
%ADD15O,2.100000X1.000000*%
G04 #@! TD*
G04 #@! TA.AperFunction,ComponentPad*
%ADD16O,1.600000X1.000000*%
G04 #@! TD*
G04 #@! TA.AperFunction,SMDPad,CuDef*
%ADD17R,1.100000X2.250000*%
G04 #@! TD*
G04 #@! TA.AperFunction,SMDPad,CuDef*
%ADD18R,1.050000X1.100000*%
G04 #@! TD*
G04 #@! TA.AperFunction,SMDPad,CuDef*
%ADD19RoundRect,0.175000X-0.175000X0.175000X-0.175000X-0.175000X0.175000X-0.175000X0.175000X0.175000X0*%
G04 #@! TD*
G04 #@! TA.AperFunction,SMDPad,CuDef*
%ADD20R,2.100000X1.400000*%
G04 #@! TD*
G04 #@! TA.AperFunction,SMDPad,CuDef*
%ADD21C,1.000000*%
G04 #@! TD*
G04 #@! TA.AperFunction,SMDPad,CuDef*
%ADD22R,0.800000X1.100000*%
G04 #@! TD*
G04 #@! TA.AperFunction,SMDPad,CuDef*
%ADD23R,1.000000X1.100000*%
G04 #@! TD*
G04 #@! TA.AperFunction,SMDPad,CuDef*
%ADD24RoundRect,0.037100X0.317900X0.227900X-0.317900X0.227900X-0.317900X-0.227900X0.317900X-0.227900X0*%
G04 #@! TD*
G04 #@! TA.AperFunction,SMDPad,CuDef*
%ADD25RoundRect,0.124800X0.475200X0.275200X-0.475200X0.275200X-0.475200X-0.275200X0.475200X-0.275200X0*%
G04 #@! TD*
G04 #@! TA.AperFunction,SMDPad,CuDef*
%ADD26R,2.800000X0.300000*%
G04 #@! TD*
G04 #@! TA.AperFunction,SMDPad,CuDef*
%ADD27RoundRect,0.243750X0.243750X0.456250X-0.243750X0.456250X-0.243750X-0.456250X0.243750X-0.456250X0*%
G04 #@! TD*
G04 #@! TA.AperFunction,SMDPad,CuDef*
%ADD28R,0.350000X0.500000*%
G04 #@! TD*
G04 #@! TA.AperFunction,ViaPad*
%ADD29C,0.600000*%
G04 #@! TD*
G04 #@! TA.AperFunction,ViaPad*
%ADD30C,0.800000*%
G04 #@! TD*
G04 #@! TA.AperFunction,ViaPad*
%ADD31C,0.700000*%
G04 #@! TD*
G04 #@! TA.AperFunction,Conductor*
%ADD32C,0.400000*%
G04 #@! TD*
G04 #@! TA.AperFunction,Conductor*
%ADD33C,0.250000*%
G04 #@! TD*
G04 #@! TA.AperFunction,Conductor*
%ADD34C,0.150000*%
G04 #@! TD*
G04 #@! TA.AperFunction,Conductor*
%ADD35C,0.300000*%
G04 #@! TD*
G04 #@! TA.AperFunction,Conductor*
%ADD36C,0.320000*%
G04 #@! TD*
G04 #@! TA.AperFunction,Conductor*
%ADD37C,0.200000*%
G04 #@! TD*
G04 #@! TA.AperFunction,Conductor*
%ADD38C,0.510000*%
G04 #@! TD*
G04 #@! TA.AperFunction,Profile*
%ADD39C,0.100000*%
G04 #@! TD*
G04 #@! TA.AperFunction,Profile*
%ADD40C,0.120000*%
G04 #@! TD*
G04 APERTURE END LIST*
D10*
D11*
X177002200Y-166007200D02*
X285002200Y-166007200D01*
X285002200Y-198007200D01*
X177002200Y-198007200D01*
X177002200Y-166007200D01*
D10*
D11*
X10000000Y-10000000D02*
X287002200Y-10000000D01*
X287002200Y-200007200D01*
X10000000Y-200007200D01*
X10000000Y-10000000D01*
D10*
D11*
X12000000Y-12000000D02*
X285002200Y-12000000D01*
X285002200Y-198007200D01*
X12000000Y-198007200D01*
X12000000Y-12000000D01*
D10*
D11*
X60000000Y-12000000D02*
X60000000Y-10000000D01*
D10*
D11*
X110000000Y-12000000D02*
X110000000Y-10000000D01*
D10*
D11*
X160000000Y-12000000D02*
X160000000Y-10000000D01*
D10*
D11*
X210000000Y-12000000D02*
X210000000Y-10000000D01*
D10*
D11*
X260000000Y-12000000D02*
X260000000Y-10000000D01*
D10*
D11*
X36089160Y-11593604D02*
X35346303Y-11593604D01*
X35717731Y-11593604D02*
X35717731Y-10293604D01*
X35717731Y-10293604D02*
X35593922Y-10479319D01*
X35593922Y-10479319D02*
X35470112Y-10603128D01*
X35470112Y-10603128D02*
X35346303Y-10665033D01*
D10*
D11*
X85346303Y-10417414D02*
X85408207Y-10355509D01*
X85408207Y-10355509D02*
X85532017Y-10293604D01*
X85532017Y-10293604D02*
X85841541Y-10293604D01*
X85841541Y-10293604D02*
X85965350Y-10355509D01*
X85965350Y-10355509D02*
X86027255Y-10417414D01*
X86027255Y-10417414D02*
X86089160Y-10541223D01*
X86089160Y-10541223D02*
X86089160Y-10665033D01*
X86089160Y-10665033D02*
X86027255Y-10850747D01*
X86027255Y-10850747D02*
X85284398Y-11593604D01*
X85284398Y-11593604D02*
X86089160Y-11593604D01*
D10*
D11*
X135284398Y-10293604D02*
X136089160Y-10293604D01*
X136089160Y-10293604D02*
X135655826Y-10788842D01*
X135655826Y-10788842D02*
X135841541Y-10788842D01*
X135841541Y-10788842D02*
X135965350Y-10850747D01*
X135965350Y-10850747D02*
X136027255Y-10912652D01*
X136027255Y-10912652D02*
X136089160Y-11036461D01*
X136089160Y-11036461D02*
X136089160Y-11345985D01*
X136089160Y-11345985D02*
X136027255Y-11469795D01*
X136027255Y-11469795D02*
X135965350Y-11531700D01*
X135965350Y-11531700D02*
X135841541Y-11593604D01*
X135841541Y-11593604D02*
X135470112Y-11593604D01*
X135470112Y-11593604D02*
X135346303Y-11531700D01*
X135346303Y-11531700D02*
X135284398Y-11469795D01*
D10*
D11*
X185965350Y-10726938D02*
X185965350Y-11593604D01*
X185655826Y-10231700D02*
X185346303Y-11160271D01*
X185346303Y-11160271D02*
X186151064Y-11160271D01*
D10*
D11*
X236027255Y-10293604D02*
X235408207Y-10293604D01*
X235408207Y-10293604D02*
X235346303Y-10912652D01*
X235346303Y-10912652D02*
X235408207Y-10850747D01*
X235408207Y-10850747D02*
X235532017Y-10788842D01*
X235532017Y-10788842D02*
X235841541Y-10788842D01*
X235841541Y-10788842D02*
X235965350Y-10850747D01*
X235965350Y-10850747D02*
X236027255Y-10912652D01*
X236027255Y-10912652D02*
X236089160Y-11036461D01*
X236089160Y-11036461D02*
X236089160Y-11345985D01*
X236089160Y-11345985D02*
X236027255Y-11469795D01*
X236027255Y-11469795D02*
X235965350Y-11531700D01*
X235965350Y-11531700D02*
X235841541Y-11593604D01*
X235841541Y-11593604D02*
X235532017Y-11593604D01*
X235532017Y-11593604D02*
X235408207Y-11531700D01*
X235408207Y-11531700D02*
X235346303Y-11469795D01*
D10*
D11*
X285965350Y-10293604D02*
X285717731Y-10293604D01*
X285717731Y-10293604D02*
X285593922Y-10355509D01*
X285593922Y-10355509D02*
X285532017Y-10417414D01*
X285532017Y-10417414D02*
X285408207Y-10603128D01*
X285408207Y-10603128D02*
X285346303Y-10850747D01*
X285346303Y-10850747D02*
X285346303Y-11345985D01*
X285346303Y-11345985D02*
X285408207Y-11469795D01*
X285408207Y-11469795D02*
X285470112Y-11531700D01*
X285470112Y-11531700D02*
X285593922Y-11593604D01*
X285593922Y-11593604D02*
X285841541Y-11593604D01*
X285841541Y-11593604D02*
X285965350Y-11531700D01*
X285965350Y-11531700D02*
X286027255Y-11469795D01*
X286027255Y-11469795D02*
X286089160Y-11345985D01*
X286089160Y-11345985D02*
X286089160Y-11036461D01*
X286089160Y-11036461D02*
X286027255Y-10912652D01*
X286027255Y-10912652D02*
X285965350Y-10850747D01*
X285965350Y-10850747D02*
X285841541Y-10788842D01*
X285841541Y-10788842D02*
X285593922Y-10788842D01*
X285593922Y-10788842D02*
X285470112Y-10850747D01*
X285470112Y-10850747D02*
X285408207Y-10912652D01*
X285408207Y-10912652D02*
X285346303Y-11036461D01*
D10*
D11*
X60000000Y-198007200D02*
X60000000Y-200007200D01*
D10*
D11*
X110000000Y-198007200D02*
X110000000Y-200007200D01*
D10*
D11*
X160000000Y-198007200D02*
X160000000Y-200007200D01*
D10*
D11*
X210000000Y-198007200D02*
X210000000Y-200007200D01*
D10*
D11*
X260000000Y-198007200D02*
X260000000Y-200007200D01*
D10*
D11*
X36089160Y-199600804D02*
X35346303Y-199600804D01*
X35717731Y-199600804D02*
X35717731Y-198300804D01*
X35717731Y-198300804D02*
X35593922Y-198486519D01*
X35593922Y-198486519D02*
X35470112Y-198610328D01*
X35470112Y-198610328D02*
X35346303Y-198672233D01*
D10*
D11*
X85346303Y-198424614D02*
X85408207Y-198362709D01*
X85408207Y-198362709D02*
X85532017Y-198300804D01*
X85532017Y-198300804D02*
X85841541Y-198300804D01*
X85841541Y-198300804D02*
X85965350Y-198362709D01*
X85965350Y-198362709D02*
X86027255Y-198424614D01*
X86027255Y-198424614D02*
X86089160Y-198548423D01*
X86089160Y-198548423D02*
X86089160Y-198672233D01*
X86089160Y-198672233D02*
X86027255Y-198857947D01*
X86027255Y-198857947D02*
X85284398Y-199600804D01*
X85284398Y-199600804D02*
X86089160Y-199600804D01*
D10*
D11*
X135284398Y-198300804D02*
X136089160Y-198300804D01*
X136089160Y-198300804D02*
X135655826Y-198796042D01*
X135655826Y-198796042D02*
X135841541Y-198796042D01*
X135841541Y-198796042D02*
X135965350Y-198857947D01*
X135965350Y-198857947D02*
X136027255Y-198919852D01*
X136027255Y-198919852D02*
X136089160Y-199043661D01*
X136089160Y-199043661D02*
X136089160Y-199353185D01*
X136089160Y-199353185D02*
X136027255Y-199476995D01*
X136027255Y-199476995D02*
X135965350Y-199538900D01*
X135965350Y-199538900D02*
X135841541Y-199600804D01*
X135841541Y-199600804D02*
X135470112Y-199600804D01*
X135470112Y-199600804D02*
X135346303Y-199538900D01*
X135346303Y-199538900D02*
X135284398Y-199476995D01*
D10*
D11*
X185965350Y-198734138D02*
X185965350Y-199600804D01*
X185655826Y-198238900D02*
X185346303Y-199167471D01*
X185346303Y-199167471D02*
X186151064Y-199167471D01*
D10*
D11*
X236027255Y-198300804D02*
X235408207Y-198300804D01*
X235408207Y-198300804D02*
X235346303Y-198919852D01*
X235346303Y-198919852D02*
X235408207Y-198857947D01*
X235408207Y-198857947D02*
X235532017Y-198796042D01*
X235532017Y-198796042D02*
X235841541Y-198796042D01*
X235841541Y-198796042D02*
X235965350Y-198857947D01*
X235965350Y-198857947D02*
X236027255Y-198919852D01*
X236027255Y-198919852D02*
X236089160Y-199043661D01*
X236089160Y-199043661D02*
X236089160Y-199353185D01*
X236089160Y-199353185D02*
X236027255Y-199476995D01*
X236027255Y-199476995D02*
X235965350Y-199538900D01*
X235965350Y-199538900D02*
X235841541Y-199600804D01*
X235841541Y-199600804D02*
X235532017Y-199600804D01*
X235532017Y-199600804D02*
X235408207Y-199538900D01*
X235408207Y-199538900D02*
X235346303Y-199476995D01*
D10*
D11*
X285965350Y-198300804D02*
X285717731Y-198300804D01*
X285717731Y-198300804D02*
X285593922Y-198362709D01*
X285593922Y-198362709D02*
X285532017Y-198424614D01*
X285532017Y-198424614D02*
X285408207Y-198610328D01*
X285408207Y-198610328D02*
X285346303Y-198857947D01*
X285346303Y-198857947D02*
X285346303Y-199353185D01*
X285346303Y-199353185D02*
X285408207Y-199476995D01*
X285408207Y-199476995D02*
X285470112Y-199538900D01*
X285470112Y-199538900D02*
X285593922Y-199600804D01*
X285593922Y-199600804D02*
X285841541Y-199600804D01*
X285841541Y-199600804D02*
X285965350Y-199538900D01*
X285965350Y-199538900D02*
X286027255Y-199476995D01*
X286027255Y-199476995D02*
X286089160Y-199353185D01*
X286089160Y-199353185D02*
X286089160Y-199043661D01*
X286089160Y-199043661D02*
X286027255Y-198919852D01*
X286027255Y-198919852D02*
X285965350Y-198857947D01*
X285965350Y-198857947D02*
X285841541Y-198796042D01*
X285841541Y-198796042D02*
X285593922Y-198796042D01*
X285593922Y-198796042D02*
X285470112Y-198857947D01*
X285470112Y-198857947D02*
X285408207Y-198919852D01*
X285408207Y-198919852D02*
X285346303Y-199043661D01*
D10*
D11*
X10000000Y-60000000D02*
X12000000Y-60000000D01*
D10*
D11*
X10000000Y-110000000D02*
X12000000Y-110000000D01*
D10*
D11*
X10000000Y-160000000D02*
X12000000Y-160000000D01*
D10*
D11*
X10690476Y-35222176D02*
X11309523Y-35222176D01*
X10566666Y-35593604D02*
X10999999Y-34293604D01*
X10999999Y-34293604D02*
X11433333Y-35593604D01*
D10*
D11*
X11092857Y-84912652D02*
X11278571Y-84974557D01*
X11278571Y-84974557D02*
X11340476Y-85036461D01*
X11340476Y-85036461D02*
X11402380Y-85160271D01*
X11402380Y-85160271D02*
X11402380Y-85345985D01*
X11402380Y-85345985D02*
X11340476Y-85469795D01*
X11340476Y-85469795D02*
X11278571Y-85531700D01*
X11278571Y-85531700D02*
X11154761Y-85593604D01*
X11154761Y-85593604D02*
X10659523Y-85593604D01*
X10659523Y-85593604D02*
X10659523Y-84293604D01*
X10659523Y-84293604D02*
X11092857Y-84293604D01*
X11092857Y-84293604D02*
X11216666Y-84355509D01*
X11216666Y-84355509D02*
X11278571Y-84417414D01*
X11278571Y-84417414D02*
X11340476Y-84541223D01*
X11340476Y-84541223D02*
X11340476Y-84665033D01*
X11340476Y-84665033D02*
X11278571Y-84788842D01*
X11278571Y-84788842D02*
X11216666Y-84850747D01*
X11216666Y-84850747D02*
X11092857Y-84912652D01*
X11092857Y-84912652D02*
X10659523Y-84912652D01*
D10*
D11*
X11402380Y-135469795D02*
X11340476Y-135531700D01*
X11340476Y-135531700D02*
X11154761Y-135593604D01*
X11154761Y-135593604D02*
X11030952Y-135593604D01*
X11030952Y-135593604D02*
X10845238Y-135531700D01*
X10845238Y-135531700D02*
X10721428Y-135407890D01*
X10721428Y-135407890D02*
X10659523Y-135284080D01*
X10659523Y-135284080D02*
X10597619Y-135036461D01*
X10597619Y-135036461D02*
X10597619Y-134850747D01*
X10597619Y-134850747D02*
X10659523Y-134603128D01*
X10659523Y-134603128D02*
X10721428Y-134479319D01*
X10721428Y-134479319D02*
X10845238Y-134355509D01*
X10845238Y-134355509D02*
X11030952Y-134293604D01*
X11030952Y-134293604D02*
X11154761Y-134293604D01*
X11154761Y-134293604D02*
X11340476Y-134355509D01*
X11340476Y-134355509D02*
X11402380Y-134417414D01*
D10*
D11*
X10659523Y-185593604D02*
X10659523Y-184293604D01*
X10659523Y-184293604D02*
X10969047Y-184293604D01*
X10969047Y-184293604D02*
X11154761Y-184355509D01*
X11154761Y-184355509D02*
X11278571Y-184479319D01*
X11278571Y-184479319D02*
X11340476Y-184603128D01*
X11340476Y-184603128D02*
X11402380Y-184850747D01*
X11402380Y-184850747D02*
X11402380Y-185036461D01*
X11402380Y-185036461D02*
X11340476Y-185284080D01*
X11340476Y-185284080D02*
X11278571Y-185407890D01*
X11278571Y-185407890D02*
X11154761Y-185531700D01*
X11154761Y-185531700D02*
X10969047Y-185593604D01*
X10969047Y-185593604D02*
X10659523Y-185593604D01*
D10*
D11*
X287002200Y-60000000D02*
X285002200Y-60000000D01*
D10*
D11*
X287002200Y-110000000D02*
X285002200Y-110000000D01*
D10*
D11*
X287002200Y-160000000D02*
X285002200Y-160000000D01*
D10*
D11*
X285692676Y-35222176D02*
X286311723Y-35222176D01*
X285568866Y-35593604D02*
X286002199Y-34293604D01*
X286002199Y-34293604D02*
X286435533Y-35593604D01*
D10*
D11*
X286095057Y-84912652D02*
X286280771Y-84974557D01*
X286280771Y-84974557D02*
X286342676Y-85036461D01*
X286342676Y-85036461D02*
X286404580Y-85160271D01*
X286404580Y-85160271D02*
X286404580Y-85345985D01*
X286404580Y-85345985D02*
X286342676Y-85469795D01*
X286342676Y-85469795D02*
X286280771Y-85531700D01*
X286280771Y-85531700D02*
X286156961Y-85593604D01*
X286156961Y-85593604D02*
X285661723Y-85593604D01*
X285661723Y-85593604D02*
X285661723Y-84293604D01*
X285661723Y-84293604D02*
X286095057Y-84293604D01*
X286095057Y-84293604D02*
X286218866Y-84355509D01*
X286218866Y-84355509D02*
X286280771Y-84417414D01*
X286280771Y-84417414D02*
X286342676Y-84541223D01*
X286342676Y-84541223D02*
X286342676Y-84665033D01*
X286342676Y-84665033D02*
X286280771Y-84788842D01*
X286280771Y-84788842D02*
X286218866Y-84850747D01*
X286218866Y-84850747D02*
X286095057Y-84912652D01*
X286095057Y-84912652D02*
X285661723Y-84912652D01*
D10*
D11*
X286404580Y-135469795D02*
X286342676Y-135531700D01*
X286342676Y-135531700D02*
X286156961Y-135593604D01*
X286156961Y-135593604D02*
X286033152Y-135593604D01*
X286033152Y-135593604D02*
X285847438Y-135531700D01*
X285847438Y-135531700D02*
X285723628Y-135407890D01*
X285723628Y-135407890D02*
X285661723Y-135284080D01*
X285661723Y-135284080D02*
X285599819Y-135036461D01*
X285599819Y-135036461D02*
X285599819Y-134850747D01*
X285599819Y-134850747D02*
X285661723Y-134603128D01*
X285661723Y-134603128D02*
X285723628Y-134479319D01*
X285723628Y-134479319D02*
X285847438Y-134355509D01*
X285847438Y-134355509D02*
X286033152Y-134293604D01*
X286033152Y-134293604D02*
X286156961Y-134293604D01*
X286156961Y-134293604D02*
X286342676Y-134355509D01*
X286342676Y-134355509D02*
X286404580Y-134417414D01*
D10*
D11*
X285661723Y-185593604D02*
X285661723Y-184293604D01*
X285661723Y-184293604D02*
X285971247Y-184293604D01*
X285971247Y-184293604D02*
X286156961Y-184355509D01*
X286156961Y-184355509D02*
X286280771Y-184479319D01*
X286280771Y-184479319D02*
X286342676Y-184603128D01*
X286342676Y-184603128D02*
X286404580Y-184850747D01*
X286404580Y-184850747D02*
X286404580Y-185036461D01*
X286404580Y-185036461D02*
X286342676Y-185284080D01*
X286342676Y-185284080D02*
X286280771Y-185407890D01*
X286280771Y-185407890D02*
X286156961Y-185531700D01*
X286156961Y-185531700D02*
X285971247Y-185593604D01*
X285971247Y-185593604D02*
X285661723Y-185593604D01*
D10*
D11*
X200458026Y-193793328D02*
X200458026Y-192293328D01*
X200458026Y-192293328D02*
X200815169Y-192293328D01*
X200815169Y-192293328D02*
X201029455Y-192364757D01*
X201029455Y-192364757D02*
X201172312Y-192507614D01*
X201172312Y-192507614D02*
X201243741Y-192650471D01*
X201243741Y-192650471D02*
X201315169Y-192936185D01*
X201315169Y-192936185D02*
X201315169Y-193150471D01*
X201315169Y-193150471D02*
X201243741Y-193436185D01*
X201243741Y-193436185D02*
X201172312Y-193579042D01*
X201172312Y-193579042D02*
X201029455Y-193721900D01*
X201029455Y-193721900D02*
X200815169Y-193793328D01*
X200815169Y-193793328D02*
X200458026Y-193793328D01*
X202600884Y-193793328D02*
X202600884Y-193007614D01*
X202600884Y-193007614D02*
X202529455Y-192864757D01*
X202529455Y-192864757D02*
X202386598Y-192793328D01*
X202386598Y-192793328D02*
X202100884Y-192793328D01*
X202100884Y-192793328D02*
X201958026Y-192864757D01*
X202600884Y-193721900D02*
X202458026Y-193793328D01*
X202458026Y-193793328D02*
X202100884Y-193793328D01*
X202100884Y-193793328D02*
X201958026Y-193721900D01*
X201958026Y-193721900D02*
X201886598Y-193579042D01*
X201886598Y-193579042D02*
X201886598Y-193436185D01*
X201886598Y-193436185D02*
X201958026Y-193293328D01*
X201958026Y-193293328D02*
X202100884Y-193221900D01*
X202100884Y-193221900D02*
X202458026Y-193221900D01*
X202458026Y-193221900D02*
X202600884Y-193150471D01*
X203100884Y-192793328D02*
X203672312Y-192793328D01*
X203315169Y-192293328D02*
X203315169Y-193579042D01*
X203315169Y-193579042D02*
X203386598Y-193721900D01*
X203386598Y-193721900D02*
X203529455Y-193793328D01*
X203529455Y-193793328D02*
X203672312Y-193793328D01*
X204743741Y-193721900D02*
X204600884Y-193793328D01*
X204600884Y-193793328D02*
X204315170Y-193793328D01*
X204315170Y-193793328D02*
X204172312Y-193721900D01*
X204172312Y-193721900D02*
X204100884Y-193579042D01*
X204100884Y-193579042D02*
X204100884Y-193007614D01*
X204100884Y-193007614D02*
X204172312Y-192864757D01*
X204172312Y-192864757D02*
X204315170Y-192793328D01*
X204315170Y-192793328D02*
X204600884Y-192793328D01*
X204600884Y-192793328D02*
X204743741Y-192864757D01*
X204743741Y-192864757D02*
X204815170Y-193007614D01*
X204815170Y-193007614D02*
X204815170Y-193150471D01*
X204815170Y-193150471D02*
X204100884Y-193293328D01*
X205458026Y-193650471D02*
X205529455Y-193721900D01*
X205529455Y-193721900D02*
X205458026Y-193793328D01*
X205458026Y-193793328D02*
X205386598Y-193721900D01*
X205386598Y-193721900D02*
X205458026Y-193650471D01*
X205458026Y-193650471D02*
X205458026Y-193793328D01*
X205458026Y-192864757D02*
X205529455Y-192936185D01*
X205529455Y-192936185D02*
X205458026Y-193007614D01*
X205458026Y-193007614D02*
X205386598Y-192936185D01*
X205386598Y-192936185D02*
X205458026Y-192864757D01*
X205458026Y-192864757D02*
X205458026Y-193007614D01*
X207243741Y-192436185D02*
X207315169Y-192364757D01*
X207315169Y-192364757D02*
X207458027Y-192293328D01*
X207458027Y-192293328D02*
X207815169Y-192293328D01*
X207815169Y-192293328D02*
X207958027Y-192364757D01*
X207958027Y-192364757D02*
X208029455Y-192436185D01*
X208029455Y-192436185D02*
X208100884Y-192579042D01*
X208100884Y-192579042D02*
X208100884Y-192721900D01*
X208100884Y-192721900D02*
X208029455Y-192936185D01*
X208029455Y-192936185D02*
X207172312Y-193793328D01*
X207172312Y-193793328D02*
X208100884Y-193793328D01*
X209029455Y-192293328D02*
X209172312Y-192293328D01*
X209172312Y-192293328D02*
X209315169Y-192364757D01*
X209315169Y-192364757D02*
X209386598Y-192436185D01*
X209386598Y-192436185D02*
X209458026Y-192579042D01*
X209458026Y-192579042D02*
X209529455Y-192864757D01*
X209529455Y-192864757D02*
X209529455Y-193221900D01*
X209529455Y-193221900D02*
X209458026Y-193507614D01*
X209458026Y-193507614D02*
X209386598Y-193650471D01*
X209386598Y-193650471D02*
X209315169Y-193721900D01*
X209315169Y-193721900D02*
X209172312Y-193793328D01*
X209172312Y-193793328D02*
X209029455Y-193793328D01*
X209029455Y-193793328D02*
X208886598Y-193721900D01*
X208886598Y-193721900D02*
X208815169Y-193650471D01*
X208815169Y-193650471D02*
X208743740Y-193507614D01*
X208743740Y-193507614D02*
X208672312Y-193221900D01*
X208672312Y-193221900D02*
X208672312Y-192864757D01*
X208672312Y-192864757D02*
X208743740Y-192579042D01*
X208743740Y-192579042D02*
X208815169Y-192436185D01*
X208815169Y-192436185D02*
X208886598Y-192364757D01*
X208886598Y-192364757D02*
X209029455Y-192293328D01*
X210100883Y-192436185D02*
X210172311Y-192364757D01*
X210172311Y-192364757D02*
X210315169Y-192293328D01*
X210315169Y-192293328D02*
X210672311Y-192293328D01*
X210672311Y-192293328D02*
X210815169Y-192364757D01*
X210815169Y-192364757D02*
X210886597Y-192436185D01*
X210886597Y-192436185D02*
X210958026Y-192579042D01*
X210958026Y-192579042D02*
X210958026Y-192721900D01*
X210958026Y-192721900D02*
X210886597Y-192936185D01*
X210886597Y-192936185D02*
X210029454Y-193793328D01*
X210029454Y-193793328D02*
X210958026Y-193793328D01*
X212386597Y-193793328D02*
X211529454Y-193793328D01*
X211958025Y-193793328D02*
X211958025Y-192293328D01*
X211958025Y-192293328D02*
X211815168Y-192507614D01*
X211815168Y-192507614D02*
X211672311Y-192650471D01*
X211672311Y-192650471D02*
X211529454Y-192721900D01*
X213029453Y-193221900D02*
X214172311Y-193221900D01*
X215672311Y-193793328D02*
X214815168Y-193793328D01*
X215243739Y-193793328D02*
X215243739Y-192293328D01*
X215243739Y-192293328D02*
X215100882Y-192507614D01*
X215100882Y-192507614D02*
X214958025Y-192650471D01*
X214958025Y-192650471D02*
X214815168Y-192721900D01*
X216243739Y-192436185D02*
X216315167Y-192364757D01*
X216315167Y-192364757D02*
X216458025Y-192293328D01*
X216458025Y-192293328D02*
X216815167Y-192293328D01*
X216815167Y-192293328D02*
X216958025Y-192364757D01*
X216958025Y-192364757D02*
X217029453Y-192436185D01*
X217029453Y-192436185D02*
X217100882Y-192579042D01*
X217100882Y-192579042D02*
X217100882Y-192721900D01*
X217100882Y-192721900D02*
X217029453Y-192936185D01*
X217029453Y-192936185D02*
X216172310Y-193793328D01*
X216172310Y-193793328D02*
X217100882Y-193793328D01*
X217743738Y-193221900D02*
X218886596Y-193221900D01*
X219529453Y-192436185D02*
X219600881Y-192364757D01*
X219600881Y-192364757D02*
X219743739Y-192293328D01*
X219743739Y-192293328D02*
X220100881Y-192293328D01*
X220100881Y-192293328D02*
X220243739Y-192364757D01*
X220243739Y-192364757D02*
X220315167Y-192436185D01*
X220315167Y-192436185D02*
X220386596Y-192579042D01*
X220386596Y-192579042D02*
X220386596Y-192721900D01*
X220386596Y-192721900D02*
X220315167Y-192936185D01*
X220315167Y-192936185D02*
X219458024Y-193793328D01*
X219458024Y-193793328D02*
X220386596Y-193793328D01*
X221243738Y-192936185D02*
X221100881Y-192864757D01*
X221100881Y-192864757D02*
X221029452Y-192793328D01*
X221029452Y-192793328D02*
X220958024Y-192650471D01*
X220958024Y-192650471D02*
X220958024Y-192579042D01*
X220958024Y-192579042D02*
X221029452Y-192436185D01*
X221029452Y-192436185D02*
X221100881Y-192364757D01*
X221100881Y-192364757D02*
X221243738Y-192293328D01*
X221243738Y-192293328D02*
X221529452Y-192293328D01*
X221529452Y-192293328D02*
X221672310Y-192364757D01*
X221672310Y-192364757D02*
X221743738Y-192436185D01*
X221743738Y-192436185D02*
X221815167Y-192579042D01*
X221815167Y-192579042D02*
X221815167Y-192650471D01*
X221815167Y-192650471D02*
X221743738Y-192793328D01*
X221743738Y-192793328D02*
X221672310Y-192864757D01*
X221672310Y-192864757D02*
X221529452Y-192936185D01*
X221529452Y-192936185D02*
X221243738Y-192936185D01*
X221243738Y-192936185D02*
X221100881Y-193007614D01*
X221100881Y-193007614D02*
X221029452Y-193079042D01*
X221029452Y-193079042D02*
X220958024Y-193221900D01*
X220958024Y-193221900D02*
X220958024Y-193507614D01*
X220958024Y-193507614D02*
X221029452Y-193650471D01*
X221029452Y-193650471D02*
X221100881Y-193721900D01*
X221100881Y-193721900D02*
X221243738Y-193793328D01*
X221243738Y-193793328D02*
X221529452Y-193793328D01*
X221529452Y-193793328D02*
X221672310Y-193721900D01*
X221672310Y-193721900D02*
X221743738Y-193650471D01*
X221743738Y-193650471D02*
X221815167Y-193507614D01*
X221815167Y-193507614D02*
X221815167Y-193221900D01*
X221815167Y-193221900D02*
X221743738Y-193079042D01*
X221743738Y-193079042D02*
X221672310Y-193007614D01*
X221672310Y-193007614D02*
X221529452Y-192936185D01*
D10*
D11*
X177002200Y-194507200D02*
X285002200Y-194507200D01*
D10*
D11*
X178458026Y-196593328D02*
X178458026Y-195093328D01*
X179315169Y-196593328D02*
X178672312Y-195736185D01*
X179315169Y-195093328D02*
X178458026Y-195950471D01*
X179958026Y-196593328D02*
X179958026Y-195593328D01*
X179958026Y-195093328D02*
X179886598Y-195164757D01*
X179886598Y-195164757D02*
X179958026Y-195236185D01*
X179958026Y-195236185D02*
X180029455Y-195164757D01*
X180029455Y-195164757D02*
X179958026Y-195093328D01*
X179958026Y-195093328D02*
X179958026Y-195236185D01*
X181529455Y-196450471D02*
X181458027Y-196521900D01*
X181458027Y-196521900D02*
X181243741Y-196593328D01*
X181243741Y-196593328D02*
X181100884Y-196593328D01*
X181100884Y-196593328D02*
X180886598Y-196521900D01*
X180886598Y-196521900D02*
X180743741Y-196379042D01*
X180743741Y-196379042D02*
X180672312Y-196236185D01*
X180672312Y-196236185D02*
X180600884Y-195950471D01*
X180600884Y-195950471D02*
X180600884Y-195736185D01*
X180600884Y-195736185D02*
X180672312Y-195450471D01*
X180672312Y-195450471D02*
X180743741Y-195307614D01*
X180743741Y-195307614D02*
X180886598Y-195164757D01*
X180886598Y-195164757D02*
X181100884Y-195093328D01*
X181100884Y-195093328D02*
X181243741Y-195093328D01*
X181243741Y-195093328D02*
X181458027Y-195164757D01*
X181458027Y-195164757D02*
X181529455Y-195236185D01*
X182815170Y-196593328D02*
X182815170Y-195807614D01*
X182815170Y-195807614D02*
X182743741Y-195664757D01*
X182743741Y-195664757D02*
X182600884Y-195593328D01*
X182600884Y-195593328D02*
X182315170Y-195593328D01*
X182315170Y-195593328D02*
X182172312Y-195664757D01*
X182815170Y-196521900D02*
X182672312Y-196593328D01*
X182672312Y-196593328D02*
X182315170Y-196593328D01*
X182315170Y-196593328D02*
X182172312Y-196521900D01*
X182172312Y-196521900D02*
X182100884Y-196379042D01*
X182100884Y-196379042D02*
X182100884Y-196236185D01*
X182100884Y-196236185D02*
X182172312Y-196093328D01*
X182172312Y-196093328D02*
X182315170Y-196021900D01*
X182315170Y-196021900D02*
X182672312Y-196021900D01*
X182672312Y-196021900D02*
X182815170Y-195950471D01*
X184172313Y-196593328D02*
X184172313Y-195093328D01*
X184172313Y-196521900D02*
X184029455Y-196593328D01*
X184029455Y-196593328D02*
X183743741Y-196593328D01*
X183743741Y-196593328D02*
X183600884Y-196521900D01*
X183600884Y-196521900D02*
X183529455Y-196450471D01*
X183529455Y-196450471D02*
X183458027Y-196307614D01*
X183458027Y-196307614D02*
X183458027Y-195879042D01*
X183458027Y-195879042D02*
X183529455Y-195736185D01*
X183529455Y-195736185D02*
X183600884Y-195664757D01*
X183600884Y-195664757D02*
X183743741Y-195593328D01*
X183743741Y-195593328D02*
X184029455Y-195593328D01*
X184029455Y-195593328D02*
X184172313Y-195664757D01*
X186029455Y-195807614D02*
X186529455Y-195807614D01*
X186743741Y-196593328D02*
X186029455Y-196593328D01*
X186029455Y-196593328D02*
X186029455Y-195093328D01*
X186029455Y-195093328D02*
X186743741Y-195093328D01*
X187386598Y-196450471D02*
X187458027Y-196521900D01*
X187458027Y-196521900D02*
X187386598Y-196593328D01*
X187386598Y-196593328D02*
X187315170Y-196521900D01*
X187315170Y-196521900D02*
X187386598Y-196450471D01*
X187386598Y-196450471D02*
X187386598Y-196593328D01*
X188100884Y-196593328D02*
X188100884Y-195093328D01*
X188100884Y-195093328D02*
X188458027Y-195093328D01*
X188458027Y-195093328D02*
X188672313Y-195164757D01*
X188672313Y-195164757D02*
X188815170Y-195307614D01*
X188815170Y-195307614D02*
X188886599Y-195450471D01*
X188886599Y-195450471D02*
X188958027Y-195736185D01*
X188958027Y-195736185D02*
X188958027Y-195950471D01*
X188958027Y-195950471D02*
X188886599Y-196236185D01*
X188886599Y-196236185D02*
X188815170Y-196379042D01*
X188815170Y-196379042D02*
X188672313Y-196521900D01*
X188672313Y-196521900D02*
X188458027Y-196593328D01*
X188458027Y-196593328D02*
X188100884Y-196593328D01*
X189600884Y-196450471D02*
X189672313Y-196521900D01*
X189672313Y-196521900D02*
X189600884Y-196593328D01*
X189600884Y-196593328D02*
X189529456Y-196521900D01*
X189529456Y-196521900D02*
X189600884Y-196450471D01*
X189600884Y-196450471D02*
X189600884Y-196593328D01*
X190243742Y-196164757D02*
X190958028Y-196164757D01*
X190100885Y-196593328D02*
X190600885Y-195093328D01*
X190600885Y-195093328D02*
X191100885Y-196593328D01*
X191600884Y-196450471D02*
X191672313Y-196521900D01*
X191672313Y-196521900D02*
X191600884Y-196593328D01*
X191600884Y-196593328D02*
X191529456Y-196521900D01*
X191529456Y-196521900D02*
X191600884Y-196450471D01*
X191600884Y-196450471D02*
X191600884Y-196593328D01*
X194600884Y-196593328D02*
X194600884Y-195093328D01*
X194743742Y-196021900D02*
X195172313Y-196593328D01*
X195172313Y-195593328D02*
X194600884Y-196164757D01*
X195815170Y-196593328D02*
X195815170Y-195593328D01*
X195815170Y-195093328D02*
X195743742Y-195164757D01*
X195743742Y-195164757D02*
X195815170Y-195236185D01*
X195815170Y-195236185D02*
X195886599Y-195164757D01*
X195886599Y-195164757D02*
X195815170Y-195093328D01*
X195815170Y-195093328D02*
X195815170Y-195236185D01*
X197172314Y-196521900D02*
X197029456Y-196593328D01*
X197029456Y-196593328D02*
X196743742Y-196593328D01*
X196743742Y-196593328D02*
X196600885Y-196521900D01*
X196600885Y-196521900D02*
X196529456Y-196450471D01*
X196529456Y-196450471D02*
X196458028Y-196307614D01*
X196458028Y-196307614D02*
X196458028Y-195879042D01*
X196458028Y-195879042D02*
X196529456Y-195736185D01*
X196529456Y-195736185D02*
X196600885Y-195664757D01*
X196600885Y-195664757D02*
X196743742Y-195593328D01*
X196743742Y-195593328D02*
X197029456Y-195593328D01*
X197029456Y-195593328D02*
X197172314Y-195664757D01*
X198458028Y-196593328D02*
X198458028Y-195807614D01*
X198458028Y-195807614D02*
X198386599Y-195664757D01*
X198386599Y-195664757D02*
X198243742Y-195593328D01*
X198243742Y-195593328D02*
X197958028Y-195593328D01*
X197958028Y-195593328D02*
X197815170Y-195664757D01*
X198458028Y-196521900D02*
X198315170Y-196593328D01*
X198315170Y-196593328D02*
X197958028Y-196593328D01*
X197958028Y-196593328D02*
X197815170Y-196521900D01*
X197815170Y-196521900D02*
X197743742Y-196379042D01*
X197743742Y-196379042D02*
X197743742Y-196236185D01*
X197743742Y-196236185D02*
X197815170Y-196093328D01*
X197815170Y-196093328D02*
X197958028Y-196021900D01*
X197958028Y-196021900D02*
X198315170Y-196021900D01*
X198315170Y-196021900D02*
X198458028Y-195950471D01*
X199815171Y-196593328D02*
X199815171Y-195093328D01*
X199815171Y-196521900D02*
X199672313Y-196593328D01*
X199672313Y-196593328D02*
X199386599Y-196593328D01*
X199386599Y-196593328D02*
X199243742Y-196521900D01*
X199243742Y-196521900D02*
X199172313Y-196450471D01*
X199172313Y-196450471D02*
X199100885Y-196307614D01*
X199100885Y-196307614D02*
X199100885Y-195879042D01*
X199100885Y-195879042D02*
X199172313Y-195736185D01*
X199172313Y-195736185D02*
X199243742Y-195664757D01*
X199243742Y-195664757D02*
X199386599Y-195593328D01*
X199386599Y-195593328D02*
X199672313Y-195593328D01*
X199672313Y-195593328D02*
X199815171Y-195664757D01*
X201529456Y-195093328D02*
X202529456Y-195093328D01*
X202529456Y-195093328D02*
X201886599Y-196593328D01*
X203100884Y-196450471D02*
X203172313Y-196521900D01*
X203172313Y-196521900D02*
X203100884Y-196593328D01*
X203100884Y-196593328D02*
X203029456Y-196521900D01*
X203029456Y-196521900D02*
X203100884Y-196450471D01*
X203100884Y-196450471D02*
X203100884Y-196593328D01*
X204100885Y-195093328D02*
X204243742Y-195093328D01*
X204243742Y-195093328D02*
X204386599Y-195164757D01*
X204386599Y-195164757D02*
X204458028Y-195236185D01*
X204458028Y-195236185D02*
X204529456Y-195379042D01*
X204529456Y-195379042D02*
X204600885Y-195664757D01*
X204600885Y-195664757D02*
X204600885Y-196021900D01*
X204600885Y-196021900D02*
X204529456Y-196307614D01*
X204529456Y-196307614D02*
X204458028Y-196450471D01*
X204458028Y-196450471D02*
X204386599Y-196521900D01*
X204386599Y-196521900D02*
X204243742Y-196593328D01*
X204243742Y-196593328D02*
X204100885Y-196593328D01*
X204100885Y-196593328D02*
X203958028Y-196521900D01*
X203958028Y-196521900D02*
X203886599Y-196450471D01*
X203886599Y-196450471D02*
X203815170Y-196307614D01*
X203815170Y-196307614D02*
X203743742Y-196021900D01*
X203743742Y-196021900D02*
X203743742Y-195664757D01*
X203743742Y-195664757D02*
X203815170Y-195379042D01*
X203815170Y-195379042D02*
X203886599Y-195236185D01*
X203886599Y-195236185D02*
X203958028Y-195164757D01*
X203958028Y-195164757D02*
X204100885Y-195093328D01*
X205243741Y-196450471D02*
X205315170Y-196521900D01*
X205315170Y-196521900D02*
X205243741Y-196593328D01*
X205243741Y-196593328D02*
X205172313Y-196521900D01*
X205172313Y-196521900D02*
X205243741Y-196450471D01*
X205243741Y-196450471D02*
X205243741Y-196593328D01*
X205815170Y-195093328D02*
X206815170Y-195093328D01*
X206815170Y-195093328D02*
X206172313Y-196593328D01*
D10*
D11*
X177002200Y-191507200D02*
X285002200Y-191507200D01*
D10*
D12*
X264413853Y-193785528D02*
X263913853Y-193071242D01*
X263556710Y-193785528D02*
X263556710Y-192285528D01*
X263556710Y-192285528D02*
X264128139Y-192285528D01*
X264128139Y-192285528D02*
X264270996Y-192356957D01*
X264270996Y-192356957D02*
X264342425Y-192428385D01*
X264342425Y-192428385D02*
X264413853Y-192571242D01*
X264413853Y-192571242D02*
X264413853Y-192785528D01*
X264413853Y-192785528D02*
X264342425Y-192928385D01*
X264342425Y-192928385D02*
X264270996Y-192999814D01*
X264270996Y-192999814D02*
X264128139Y-193071242D01*
X264128139Y-193071242D02*
X263556710Y-193071242D01*
X265628139Y-193714100D02*
X265485282Y-193785528D01*
X265485282Y-193785528D02*
X265199568Y-193785528D01*
X265199568Y-193785528D02*
X265056710Y-193714100D01*
X265056710Y-193714100D02*
X264985282Y-193571242D01*
X264985282Y-193571242D02*
X264985282Y-192999814D01*
X264985282Y-192999814D02*
X265056710Y-192856957D01*
X265056710Y-192856957D02*
X265199568Y-192785528D01*
X265199568Y-192785528D02*
X265485282Y-192785528D01*
X265485282Y-192785528D02*
X265628139Y-192856957D01*
X265628139Y-192856957D02*
X265699568Y-192999814D01*
X265699568Y-192999814D02*
X265699568Y-193142671D01*
X265699568Y-193142671D02*
X264985282Y-193285528D01*
X266199567Y-192785528D02*
X266556710Y-193785528D01*
X266556710Y-193785528D02*
X266913853Y-192785528D01*
X267485281Y-193642671D02*
X267556710Y-193714100D01*
X267556710Y-193714100D02*
X267485281Y-193785528D01*
X267485281Y-193785528D02*
X267413853Y-193714100D01*
X267413853Y-193714100D02*
X267485281Y-193642671D01*
X267485281Y-193642671D02*
X267485281Y-193785528D01*
X267485281Y-192856957D02*
X267556710Y-192928385D01*
X267556710Y-192928385D02*
X267485281Y-192999814D01*
X267485281Y-192999814D02*
X267413853Y-192928385D01*
X267413853Y-192928385D02*
X267485281Y-192856957D01*
X267485281Y-192856957D02*
X267485281Y-192999814D01*
X270056710Y-192285528D02*
X269342424Y-192285528D01*
X269342424Y-192285528D02*
X269270996Y-192999814D01*
X269270996Y-192999814D02*
X269342424Y-192928385D01*
X269342424Y-192928385D02*
X269485282Y-192856957D01*
X269485282Y-192856957D02*
X269842424Y-192856957D01*
X269842424Y-192856957D02*
X269985282Y-192928385D01*
X269985282Y-192928385D02*
X270056710Y-192999814D01*
X270056710Y-192999814D02*
X270128139Y-193142671D01*
X270128139Y-193142671D02*
X270128139Y-193499814D01*
X270128139Y-193499814D02*
X270056710Y-193642671D01*
X270056710Y-193642671D02*
X269985282Y-193714100D01*
X269985282Y-193714100D02*
X269842424Y-193785528D01*
X269842424Y-193785528D02*
X269485282Y-193785528D01*
X269485282Y-193785528D02*
X269342424Y-193714100D01*
X269342424Y-193714100D02*
X269270996Y-193642671D01*
X270770995Y-193642671D02*
X270842424Y-193714100D01*
X270842424Y-193714100D02*
X270770995Y-193785528D01*
X270770995Y-193785528D02*
X270699567Y-193714100D01*
X270699567Y-193714100D02*
X270770995Y-193642671D01*
X270770995Y-193642671D02*
X270770995Y-193785528D01*
X271342424Y-192285528D02*
X272270996Y-192285528D01*
X272270996Y-192285528D02*
X271770996Y-192856957D01*
X271770996Y-192856957D02*
X271985281Y-192856957D01*
X271985281Y-192856957D02*
X272128139Y-192928385D01*
X272128139Y-192928385D02*
X272199567Y-192999814D01*
X272199567Y-192999814D02*
X272270996Y-193142671D01*
X272270996Y-193142671D02*
X272270996Y-193499814D01*
X272270996Y-193499814D02*
X272199567Y-193642671D01*
X272199567Y-193642671D02*
X272128139Y-193714100D01*
X272128139Y-193714100D02*
X271985281Y-193785528D01*
X271985281Y-193785528D02*
X271556710Y-193785528D01*
X271556710Y-193785528D02*
X271413853Y-193714100D01*
X271413853Y-193714100D02*
X271342424Y-193642671D01*
D10*
D11*
X178386598Y-193721900D02*
X178600884Y-193793328D01*
X178600884Y-193793328D02*
X178958026Y-193793328D01*
X178958026Y-193793328D02*
X179100884Y-193721900D01*
X179100884Y-193721900D02*
X179172312Y-193650471D01*
X179172312Y-193650471D02*
X179243741Y-193507614D01*
X179243741Y-193507614D02*
X179243741Y-193364757D01*
X179243741Y-193364757D02*
X179172312Y-193221900D01*
X179172312Y-193221900D02*
X179100884Y-193150471D01*
X179100884Y-193150471D02*
X178958026Y-193079042D01*
X178958026Y-193079042D02*
X178672312Y-193007614D01*
X178672312Y-193007614D02*
X178529455Y-192936185D01*
X178529455Y-192936185D02*
X178458026Y-192864757D01*
X178458026Y-192864757D02*
X178386598Y-192721900D01*
X178386598Y-192721900D02*
X178386598Y-192579042D01*
X178386598Y-192579042D02*
X178458026Y-192436185D01*
X178458026Y-192436185D02*
X178529455Y-192364757D01*
X178529455Y-192364757D02*
X178672312Y-192293328D01*
X178672312Y-192293328D02*
X179029455Y-192293328D01*
X179029455Y-192293328D02*
X179243741Y-192364757D01*
X179886597Y-193793328D02*
X179886597Y-192793328D01*
X179886597Y-192293328D02*
X179815169Y-192364757D01*
X179815169Y-192364757D02*
X179886597Y-192436185D01*
X179886597Y-192436185D02*
X179958026Y-192364757D01*
X179958026Y-192364757D02*
X179886597Y-192293328D01*
X179886597Y-192293328D02*
X179886597Y-192436185D01*
X180458026Y-192793328D02*
X181243741Y-192793328D01*
X181243741Y-192793328D02*
X180458026Y-193793328D01*
X180458026Y-193793328D02*
X181243741Y-193793328D01*
X182386598Y-193721900D02*
X182243741Y-193793328D01*
X182243741Y-193793328D02*
X181958027Y-193793328D01*
X181958027Y-193793328D02*
X181815169Y-193721900D01*
X181815169Y-193721900D02*
X181743741Y-193579042D01*
X181743741Y-193579042D02*
X181743741Y-193007614D01*
X181743741Y-193007614D02*
X181815169Y-192864757D01*
X181815169Y-192864757D02*
X181958027Y-192793328D01*
X181958027Y-192793328D02*
X182243741Y-192793328D01*
X182243741Y-192793328D02*
X182386598Y-192864757D01*
X182386598Y-192864757D02*
X182458027Y-193007614D01*
X182458027Y-193007614D02*
X182458027Y-193150471D01*
X182458027Y-193150471D02*
X181743741Y-193293328D01*
X183100883Y-193650471D02*
X183172312Y-193721900D01*
X183172312Y-193721900D02*
X183100883Y-193793328D01*
X183100883Y-193793328D02*
X183029455Y-193721900D01*
X183029455Y-193721900D02*
X183100883Y-193650471D01*
X183100883Y-193650471D02*
X183100883Y-193793328D01*
X183100883Y-192864757D02*
X183172312Y-192936185D01*
X183172312Y-192936185D02*
X183100883Y-193007614D01*
X183100883Y-193007614D02*
X183029455Y-192936185D01*
X183029455Y-192936185D02*
X183100883Y-192864757D01*
X183100883Y-192864757D02*
X183100883Y-193007614D01*
X184886598Y-193364757D02*
X185600884Y-193364757D01*
X184743741Y-193793328D02*
X185243741Y-192293328D01*
X185243741Y-192293328D02*
X185743741Y-193793328D01*
X186886598Y-192793328D02*
X186886598Y-193793328D01*
X186529455Y-192221900D02*
X186172312Y-193293328D01*
X186172312Y-193293328D02*
X187100883Y-193293328D01*
D10*
D11*
X263458026Y-196593328D02*
X263458026Y-195093328D01*
X264815170Y-196593328D02*
X264815170Y-195093328D01*
X264815170Y-196521900D02*
X264672312Y-196593328D01*
X264672312Y-196593328D02*
X264386598Y-196593328D01*
X264386598Y-196593328D02*
X264243741Y-196521900D01*
X264243741Y-196521900D02*
X264172312Y-196450471D01*
X264172312Y-196450471D02*
X264100884Y-196307614D01*
X264100884Y-196307614D02*
X264100884Y-195879042D01*
X264100884Y-195879042D02*
X264172312Y-195736185D01*
X264172312Y-195736185D02*
X264243741Y-195664757D01*
X264243741Y-195664757D02*
X264386598Y-195593328D01*
X264386598Y-195593328D02*
X264672312Y-195593328D01*
X264672312Y-195593328D02*
X264815170Y-195664757D01*
X265529455Y-196450471D02*
X265600884Y-196521900D01*
X265600884Y-196521900D02*
X265529455Y-196593328D01*
X265529455Y-196593328D02*
X265458027Y-196521900D01*
X265458027Y-196521900D02*
X265529455Y-196450471D01*
X265529455Y-196450471D02*
X265529455Y-196593328D01*
X265529455Y-195664757D02*
X265600884Y-195736185D01*
X265600884Y-195736185D02*
X265529455Y-195807614D01*
X265529455Y-195807614D02*
X265458027Y-195736185D01*
X265458027Y-195736185D02*
X265529455Y-195664757D01*
X265529455Y-195664757D02*
X265529455Y-195807614D01*
X268172313Y-196593328D02*
X267315170Y-196593328D01*
X267743741Y-196593328D02*
X267743741Y-195093328D01*
X267743741Y-195093328D02*
X267600884Y-195307614D01*
X267600884Y-195307614D02*
X267458027Y-195450471D01*
X267458027Y-195450471D02*
X267315170Y-195521900D01*
X269886598Y-195021900D02*
X268600884Y-196950471D01*
X271172313Y-196593328D02*
X270315170Y-196593328D01*
X270743741Y-196593328D02*
X270743741Y-195093328D01*
X270743741Y-195093328D02*
X270600884Y-195307614D01*
X270600884Y-195307614D02*
X270458027Y-195450471D01*
X270458027Y-195450471D02*
X270315170Y-195521900D01*
D10*
D11*
X177002200Y-187507200D02*
X285002200Y-187507200D01*
D10*
D13*
X178693928Y-188211638D02*
X179836785Y-188211638D01*
X179015357Y-190211638D02*
X179265357Y-188211638D01*
X180253452Y-190211638D02*
X180420119Y-188878304D01*
X180503452Y-188211638D02*
X180396309Y-188306876D01*
X180396309Y-188306876D02*
X180479643Y-188402114D01*
X180479643Y-188402114D02*
X180586786Y-188306876D01*
X180586786Y-188306876D02*
X180503452Y-188211638D01*
X180503452Y-188211638D02*
X180479643Y-188402114D01*
X181086786Y-188878304D02*
X181848690Y-188878304D01*
X181455833Y-188211638D02*
X181241548Y-189925923D01*
X181241548Y-189925923D02*
X181312976Y-190116400D01*
X181312976Y-190116400D02*
X181491548Y-190211638D01*
X181491548Y-190211638D02*
X181682024Y-190211638D01*
X182634405Y-190211638D02*
X182455833Y-190116400D01*
X182455833Y-190116400D02*
X182384405Y-189925923D01*
X182384405Y-189925923D02*
X182598690Y-188211638D01*
X184170119Y-190116400D02*
X183967738Y-190211638D01*
X183967738Y-190211638D02*
X183586785Y-190211638D01*
X183586785Y-190211638D02*
X183408214Y-190116400D01*
X183408214Y-190116400D02*
X183336785Y-189925923D01*
X183336785Y-189925923D02*
X183432024Y-189164019D01*
X183432024Y-189164019D02*
X183551071Y-188973542D01*
X183551071Y-188973542D02*
X183753452Y-188878304D01*
X183753452Y-188878304D02*
X184134404Y-188878304D01*
X184134404Y-188878304D02*
X184312976Y-188973542D01*
X184312976Y-188973542D02*
X184384404Y-189164019D01*
X184384404Y-189164019D02*
X184360595Y-189354495D01*
X184360595Y-189354495D02*
X183384404Y-189544971D01*
X185134405Y-190021161D02*
X185217738Y-190116400D01*
X185217738Y-190116400D02*
X185110595Y-190211638D01*
X185110595Y-190211638D02*
X185027262Y-190116400D01*
X185027262Y-190116400D02*
X185134405Y-190021161D01*
X185134405Y-190021161D02*
X185110595Y-190211638D01*
X185265357Y-188973542D02*
X185348690Y-189068780D01*
X185348690Y-189068780D02*
X185241548Y-189164019D01*
X185241548Y-189164019D02*
X185158214Y-189068780D01*
X185158214Y-189068780D02*
X185265357Y-188973542D01*
X185265357Y-188973542D02*
X185241548Y-189164019D01*
D10*
D11*
X178958026Y-185607614D02*
X178458026Y-185607614D01*
X178458026Y-186393328D02*
X178458026Y-184893328D01*
X178458026Y-184893328D02*
X179172312Y-184893328D01*
X179743740Y-186393328D02*
X179743740Y-185393328D01*
X179743740Y-184893328D02*
X179672312Y-184964757D01*
X179672312Y-184964757D02*
X179743740Y-185036185D01*
X179743740Y-185036185D02*
X179815169Y-184964757D01*
X179815169Y-184964757D02*
X179743740Y-184893328D01*
X179743740Y-184893328D02*
X179743740Y-185036185D01*
X180672312Y-186393328D02*
X180529455Y-186321900D01*
X180529455Y-186321900D02*
X180458026Y-186179042D01*
X180458026Y-186179042D02*
X180458026Y-184893328D01*
X181815169Y-186321900D02*
X181672312Y-186393328D01*
X181672312Y-186393328D02*
X181386598Y-186393328D01*
X181386598Y-186393328D02*
X181243740Y-186321900D01*
X181243740Y-186321900D02*
X181172312Y-186179042D01*
X181172312Y-186179042D02*
X181172312Y-185607614D01*
X181172312Y-185607614D02*
X181243740Y-185464757D01*
X181243740Y-185464757D02*
X181386598Y-185393328D01*
X181386598Y-185393328D02*
X181672312Y-185393328D01*
X181672312Y-185393328D02*
X181815169Y-185464757D01*
X181815169Y-185464757D02*
X181886598Y-185607614D01*
X181886598Y-185607614D02*
X181886598Y-185750471D01*
X181886598Y-185750471D02*
X181172312Y-185893328D01*
X182529454Y-186250471D02*
X182600883Y-186321900D01*
X182600883Y-186321900D02*
X182529454Y-186393328D01*
X182529454Y-186393328D02*
X182458026Y-186321900D01*
X182458026Y-186321900D02*
X182529454Y-186250471D01*
X182529454Y-186250471D02*
X182529454Y-186393328D01*
X182529454Y-185464757D02*
X182600883Y-185536185D01*
X182600883Y-185536185D02*
X182529454Y-185607614D01*
X182529454Y-185607614D02*
X182458026Y-185536185D01*
X182458026Y-185536185D02*
X182529454Y-185464757D01*
X182529454Y-185464757D02*
X182529454Y-185607614D01*
X185100883Y-186393328D02*
X184386597Y-186393328D01*
X184386597Y-186393328D02*
X184386597Y-184893328D01*
X185600883Y-186393328D02*
X185600883Y-184893328D01*
X185600883Y-184893328D02*
X185958026Y-184893328D01*
X185958026Y-184893328D02*
X186172312Y-184964757D01*
X186172312Y-184964757D02*
X186315169Y-185107614D01*
X186315169Y-185107614D02*
X186386598Y-185250471D01*
X186386598Y-185250471D02*
X186458026Y-185536185D01*
X186458026Y-185536185D02*
X186458026Y-185750471D01*
X186458026Y-185750471D02*
X186386598Y-186036185D01*
X186386598Y-186036185D02*
X186315169Y-186179042D01*
X186315169Y-186179042D02*
X186172312Y-186321900D01*
X186172312Y-186321900D02*
X185958026Y-186393328D01*
X185958026Y-186393328D02*
X185600883Y-186393328D01*
X187029455Y-185964757D02*
X187743741Y-185964757D01*
X186886598Y-186393328D02*
X187386598Y-184893328D01*
X187386598Y-184893328D02*
X187886598Y-186393328D01*
X188386597Y-186393328D02*
X188386597Y-184893328D01*
X188386597Y-184893328D02*
X188743740Y-184893328D01*
X188743740Y-184893328D02*
X188958026Y-184964757D01*
X188958026Y-184964757D02*
X189100883Y-185107614D01*
X189100883Y-185107614D02*
X189172312Y-185250471D01*
X189172312Y-185250471D02*
X189243740Y-185536185D01*
X189243740Y-185536185D02*
X189243740Y-185750471D01*
X189243740Y-185750471D02*
X189172312Y-186036185D01*
X189172312Y-186036185D02*
X189100883Y-186179042D01*
X189100883Y-186179042D02*
X188958026Y-186321900D01*
X188958026Y-186321900D02*
X188743740Y-186393328D01*
X188743740Y-186393328D02*
X188386597Y-186393328D01*
X189529455Y-186536185D02*
X190672312Y-186536185D01*
X190958026Y-185964757D02*
X191672312Y-185964757D01*
X190815169Y-186393328D02*
X191315169Y-184893328D01*
X191315169Y-184893328D02*
X191815169Y-186393328D01*
X192815168Y-185607614D02*
X193029454Y-185679042D01*
X193029454Y-185679042D02*
X193100883Y-185750471D01*
X193100883Y-185750471D02*
X193172311Y-185893328D01*
X193172311Y-185893328D02*
X193172311Y-186107614D01*
X193172311Y-186107614D02*
X193100883Y-186250471D01*
X193100883Y-186250471D02*
X193029454Y-186321900D01*
X193029454Y-186321900D02*
X192886597Y-186393328D01*
X192886597Y-186393328D02*
X192315168Y-186393328D01*
X192315168Y-186393328D02*
X192315168Y-184893328D01*
X192315168Y-184893328D02*
X192815168Y-184893328D01*
X192815168Y-184893328D02*
X192958026Y-184964757D01*
X192958026Y-184964757D02*
X193029454Y-185036185D01*
X193029454Y-185036185D02*
X193100883Y-185179042D01*
X193100883Y-185179042D02*
X193100883Y-185321900D01*
X193100883Y-185321900D02*
X193029454Y-185464757D01*
X193029454Y-185464757D02*
X192958026Y-185536185D01*
X192958026Y-185536185D02*
X192815168Y-185607614D01*
X192815168Y-185607614D02*
X192315168Y-185607614D01*
X193743740Y-186321900D02*
X193958026Y-186393328D01*
X193958026Y-186393328D02*
X194315168Y-186393328D01*
X194315168Y-186393328D02*
X194458026Y-186321900D01*
X194458026Y-186321900D02*
X194529454Y-186250471D01*
X194529454Y-186250471D02*
X194600883Y-186107614D01*
X194600883Y-186107614D02*
X194600883Y-185964757D01*
X194600883Y-185964757D02*
X194529454Y-185821900D01*
X194529454Y-185821900D02*
X194458026Y-185750471D01*
X194458026Y-185750471D02*
X194315168Y-185679042D01*
X194315168Y-185679042D02*
X194029454Y-185607614D01*
X194029454Y-185607614D02*
X193886597Y-185536185D01*
X193886597Y-185536185D02*
X193815168Y-185464757D01*
X193815168Y-185464757D02*
X193743740Y-185321900D01*
X193743740Y-185321900D02*
X193743740Y-185179042D01*
X193743740Y-185179042D02*
X193815168Y-185036185D01*
X193815168Y-185036185D02*
X193886597Y-184964757D01*
X193886597Y-184964757D02*
X194029454Y-184893328D01*
X194029454Y-184893328D02*
X194386597Y-184893328D01*
X194386597Y-184893328D02*
X194600883Y-184964757D01*
X194886597Y-186536185D02*
X196029454Y-186536185D01*
X196386596Y-185607614D02*
X196886596Y-185607614D01*
X197100882Y-186393328D02*
X196386596Y-186393328D01*
X196386596Y-186393328D02*
X196386596Y-184893328D01*
X196386596Y-184893328D02*
X197100882Y-184893328D01*
X197743739Y-186393328D02*
X197743739Y-184893328D01*
X197743739Y-184893328D02*
X198600882Y-186393328D01*
X198600882Y-186393328D02*
X198600882Y-184893328D01*
X200172311Y-186250471D02*
X200100883Y-186321900D01*
X200100883Y-186321900D02*
X199886597Y-186393328D01*
X199886597Y-186393328D02*
X199743740Y-186393328D01*
X199743740Y-186393328D02*
X199529454Y-186321900D01*
X199529454Y-186321900D02*
X199386597Y-186179042D01*
X199386597Y-186179042D02*
X199315168Y-186036185D01*
X199315168Y-186036185D02*
X199243740Y-185750471D01*
X199243740Y-185750471D02*
X199243740Y-185536185D01*
X199243740Y-185536185D02*
X199315168Y-185250471D01*
X199315168Y-185250471D02*
X199386597Y-185107614D01*
X199386597Y-185107614D02*
X199529454Y-184964757D01*
X199529454Y-184964757D02*
X199743740Y-184893328D01*
X199743740Y-184893328D02*
X199886597Y-184893328D01*
X199886597Y-184893328D02*
X200100883Y-184964757D01*
X200100883Y-184964757D02*
X200172311Y-185036185D01*
X201529454Y-186393328D02*
X200815168Y-186393328D01*
X200815168Y-186393328D02*
X200815168Y-184893328D01*
X202315169Y-184893328D02*
X202600883Y-184893328D01*
X202600883Y-184893328D02*
X202743740Y-184964757D01*
X202743740Y-184964757D02*
X202886597Y-185107614D01*
X202886597Y-185107614D02*
X202958026Y-185393328D01*
X202958026Y-185393328D02*
X202958026Y-185893328D01*
X202958026Y-185893328D02*
X202886597Y-186179042D01*
X202886597Y-186179042D02*
X202743740Y-186321900D01*
X202743740Y-186321900D02*
X202600883Y-186393328D01*
X202600883Y-186393328D02*
X202315169Y-186393328D01*
X202315169Y-186393328D02*
X202172312Y-186321900D01*
X202172312Y-186321900D02*
X202029454Y-186179042D01*
X202029454Y-186179042D02*
X201958026Y-185893328D01*
X201958026Y-185893328D02*
X201958026Y-185393328D01*
X201958026Y-185393328D02*
X202029454Y-185107614D01*
X202029454Y-185107614D02*
X202172312Y-184964757D01*
X202172312Y-184964757D02*
X202315169Y-184893328D01*
X203529455Y-186321900D02*
X203743741Y-186393328D01*
X203743741Y-186393328D02*
X204100883Y-186393328D01*
X204100883Y-186393328D02*
X204243741Y-186321900D01*
X204243741Y-186321900D02*
X204315169Y-186250471D01*
X204315169Y-186250471D02*
X204386598Y-186107614D01*
X204386598Y-186107614D02*
X204386598Y-185964757D01*
X204386598Y-185964757D02*
X204315169Y-185821900D01*
X204315169Y-185821900D02*
X204243741Y-185750471D01*
X204243741Y-185750471D02*
X204100883Y-185679042D01*
X204100883Y-185679042D02*
X203815169Y-185607614D01*
X203815169Y-185607614D02*
X203672312Y-185536185D01*
X203672312Y-185536185D02*
X203600883Y-185464757D01*
X203600883Y-185464757D02*
X203529455Y-185321900D01*
X203529455Y-185321900D02*
X203529455Y-185179042D01*
X203529455Y-185179042D02*
X203600883Y-185036185D01*
X203600883Y-185036185D02*
X203672312Y-184964757D01*
X203672312Y-184964757D02*
X203815169Y-184893328D01*
X203815169Y-184893328D02*
X204172312Y-184893328D01*
X204172312Y-184893328D02*
X204386598Y-184964757D01*
X205029454Y-184893328D02*
X205029454Y-186107614D01*
X205029454Y-186107614D02*
X205100883Y-186250471D01*
X205100883Y-186250471D02*
X205172312Y-186321900D01*
X205172312Y-186321900D02*
X205315169Y-186393328D01*
X205315169Y-186393328D02*
X205600883Y-186393328D01*
X205600883Y-186393328D02*
X205743740Y-186321900D01*
X205743740Y-186321900D02*
X205815169Y-186250471D01*
X205815169Y-186250471D02*
X205886597Y-186107614D01*
X205886597Y-186107614D02*
X205886597Y-184893328D01*
X207458026Y-186393328D02*
X206958026Y-185679042D01*
X206600883Y-186393328D02*
X206600883Y-184893328D01*
X206600883Y-184893328D02*
X207172312Y-184893328D01*
X207172312Y-184893328D02*
X207315169Y-184964757D01*
X207315169Y-184964757D02*
X207386598Y-185036185D01*
X207386598Y-185036185D02*
X207458026Y-185179042D01*
X207458026Y-185179042D02*
X207458026Y-185393328D01*
X207458026Y-185393328D02*
X207386598Y-185536185D01*
X207386598Y-185536185D02*
X207315169Y-185607614D01*
X207315169Y-185607614D02*
X207172312Y-185679042D01*
X207172312Y-185679042D02*
X206600883Y-185679042D01*
X208100883Y-185607614D02*
X208600883Y-185607614D01*
X208815169Y-186393328D02*
X208100883Y-186393328D01*
X208100883Y-186393328D02*
X208100883Y-184893328D01*
X208100883Y-184893328D02*
X208815169Y-184893328D01*
X209100884Y-186536185D02*
X210243741Y-186536185D01*
X211315169Y-184893328D02*
X210600883Y-184893328D01*
X210600883Y-184893328D02*
X210529455Y-185607614D01*
X210529455Y-185607614D02*
X210600883Y-185536185D01*
X210600883Y-185536185D02*
X210743741Y-185464757D01*
X210743741Y-185464757D02*
X211100883Y-185464757D01*
X211100883Y-185464757D02*
X211243741Y-185536185D01*
X211243741Y-185536185D02*
X211315169Y-185607614D01*
X211315169Y-185607614D02*
X211386598Y-185750471D01*
X211386598Y-185750471D02*
X211386598Y-186107614D01*
X211386598Y-186107614D02*
X211315169Y-186250471D01*
X211315169Y-186250471D02*
X211243741Y-186321900D01*
X211243741Y-186321900D02*
X211100883Y-186393328D01*
X211100883Y-186393328D02*
X210743741Y-186393328D01*
X210743741Y-186393328D02*
X210600883Y-186321900D01*
X210600883Y-186321900D02*
X210529455Y-186250471D01*
X211958026Y-185036185D02*
X212029454Y-184964757D01*
X212029454Y-184964757D02*
X212172312Y-184893328D01*
X212172312Y-184893328D02*
X212529454Y-184893328D01*
X212529454Y-184893328D02*
X212672312Y-184964757D01*
X212672312Y-184964757D02*
X212743740Y-185036185D01*
X212743740Y-185036185D02*
X212815169Y-185179042D01*
X212815169Y-185179042D02*
X212815169Y-185321900D01*
X212815169Y-185321900D02*
X212743740Y-185536185D01*
X212743740Y-185536185D02*
X211886597Y-186393328D01*
X211886597Y-186393328D02*
X212815169Y-186393328D01*
X213315168Y-184893328D02*
X214315168Y-186393328D01*
X214315168Y-184893328D02*
X213315168Y-186393328D01*
X215529454Y-185393328D02*
X215529454Y-186393328D01*
X215172311Y-184821900D02*
X214815168Y-185893328D01*
X214815168Y-185893328D02*
X215743739Y-185893328D01*
X216529453Y-185536185D02*
X216386596Y-185464757D01*
X216386596Y-185464757D02*
X216315167Y-185393328D01*
X216315167Y-185393328D02*
X216243739Y-185250471D01*
X216243739Y-185250471D02*
X216243739Y-185179042D01*
X216243739Y-185179042D02*
X216315167Y-185036185D01*
X216315167Y-185036185D02*
X216386596Y-184964757D01*
X216386596Y-184964757D02*
X216529453Y-184893328D01*
X216529453Y-184893328D02*
X216815167Y-184893328D01*
X216815167Y-184893328D02*
X216958025Y-184964757D01*
X216958025Y-184964757D02*
X217029453Y-185036185D01*
X217029453Y-185036185D02*
X217100882Y-185179042D01*
X217100882Y-185179042D02*
X217100882Y-185250471D01*
X217100882Y-185250471D02*
X217029453Y-185393328D01*
X217029453Y-185393328D02*
X216958025Y-185464757D01*
X216958025Y-185464757D02*
X216815167Y-185536185D01*
X216815167Y-185536185D02*
X216529453Y-185536185D01*
X216529453Y-185536185D02*
X216386596Y-185607614D01*
X216386596Y-185607614D02*
X216315167Y-185679042D01*
X216315167Y-185679042D02*
X216243739Y-185821900D01*
X216243739Y-185821900D02*
X216243739Y-186107614D01*
X216243739Y-186107614D02*
X216315167Y-186250471D01*
X216315167Y-186250471D02*
X216386596Y-186321900D01*
X216386596Y-186321900D02*
X216529453Y-186393328D01*
X216529453Y-186393328D02*
X216815167Y-186393328D01*
X216815167Y-186393328D02*
X216958025Y-186321900D01*
X216958025Y-186321900D02*
X217029453Y-186250471D01*
X217029453Y-186250471D02*
X217100882Y-186107614D01*
X217100882Y-186107614D02*
X217100882Y-185821900D01*
X217100882Y-185821900D02*
X217029453Y-185679042D01*
X217029453Y-185679042D02*
X216958025Y-185607614D01*
X216958025Y-185607614D02*
X216815167Y-185536185D01*
X217386596Y-186536185D02*
X218529453Y-186536185D01*
X219672310Y-186393328D02*
X218815167Y-186393328D01*
X219243738Y-186393328D02*
X219243738Y-184893328D01*
X219243738Y-184893328D02*
X219100881Y-185107614D01*
X219100881Y-185107614D02*
X218958024Y-185250471D01*
X218958024Y-185250471D02*
X218815167Y-185321900D01*
X220315166Y-186250471D02*
X220386595Y-186321900D01*
X220386595Y-186321900D02*
X220315166Y-186393328D01*
X220315166Y-186393328D02*
X220243738Y-186321900D01*
X220243738Y-186321900D02*
X220315166Y-186250471D01*
X220315166Y-186250471D02*
X220315166Y-186393328D01*
X221672310Y-184893328D02*
X221386595Y-184893328D01*
X221386595Y-184893328D02*
X221243738Y-184964757D01*
X221243738Y-184964757D02*
X221172310Y-185036185D01*
X221172310Y-185036185D02*
X221029452Y-185250471D01*
X221029452Y-185250471D02*
X220958024Y-185536185D01*
X220958024Y-185536185D02*
X220958024Y-186107614D01*
X220958024Y-186107614D02*
X221029452Y-186250471D01*
X221029452Y-186250471D02*
X221100881Y-186321900D01*
X221100881Y-186321900D02*
X221243738Y-186393328D01*
X221243738Y-186393328D02*
X221529452Y-186393328D01*
X221529452Y-186393328D02*
X221672310Y-186321900D01*
X221672310Y-186321900D02*
X221743738Y-186250471D01*
X221743738Y-186250471D02*
X221815167Y-186107614D01*
X221815167Y-186107614D02*
X221815167Y-185750471D01*
X221815167Y-185750471D02*
X221743738Y-185607614D01*
X221743738Y-185607614D02*
X221672310Y-185536185D01*
X221672310Y-185536185D02*
X221529452Y-185464757D01*
X221529452Y-185464757D02*
X221243738Y-185464757D01*
X221243738Y-185464757D02*
X221100881Y-185536185D01*
X221100881Y-185536185D02*
X221029452Y-185607614D01*
X221029452Y-185607614D02*
X220958024Y-185750471D01*
X222529452Y-186393328D02*
X222815166Y-186393328D01*
X222815166Y-186393328D02*
X222958023Y-186321900D01*
X222958023Y-186321900D02*
X223029452Y-186250471D01*
X223029452Y-186250471D02*
X223172309Y-186036185D01*
X223172309Y-186036185D02*
X223243738Y-185750471D01*
X223243738Y-185750471D02*
X223243738Y-185179042D01*
X223243738Y-185179042D02*
X223172309Y-185036185D01*
X223172309Y-185036185D02*
X223100881Y-184964757D01*
X223100881Y-184964757D02*
X222958023Y-184893328D01*
X222958023Y-184893328D02*
X222672309Y-184893328D01*
X222672309Y-184893328D02*
X222529452Y-184964757D01*
X222529452Y-184964757D02*
X222458023Y-185036185D01*
X222458023Y-185036185D02*
X222386595Y-185179042D01*
X222386595Y-185179042D02*
X222386595Y-185536185D01*
X222386595Y-185536185D02*
X222458023Y-185679042D01*
X222458023Y-185679042D02*
X222529452Y-185750471D01*
X222529452Y-185750471D02*
X222672309Y-185821900D01*
X222672309Y-185821900D02*
X222958023Y-185821900D01*
X222958023Y-185821900D02*
X223100881Y-185750471D01*
X223100881Y-185750471D02*
X223172309Y-185679042D01*
X223172309Y-185679042D02*
X223243738Y-185536185D01*
X223529452Y-186536185D02*
X224672309Y-186536185D01*
X225743737Y-186393328D02*
X225029451Y-186393328D01*
X225029451Y-186393328D02*
X225029451Y-184893328D01*
X227100880Y-186250471D02*
X227029452Y-186321900D01*
X227029452Y-186321900D02*
X226815166Y-186393328D01*
X226815166Y-186393328D02*
X226672309Y-186393328D01*
X226672309Y-186393328D02*
X226458023Y-186321900D01*
X226458023Y-186321900D02*
X226315166Y-186179042D01*
X226315166Y-186179042D02*
X226243737Y-186036185D01*
X226243737Y-186036185D02*
X226172309Y-185750471D01*
X226172309Y-185750471D02*
X226172309Y-185536185D01*
X226172309Y-185536185D02*
X226243737Y-185250471D01*
X226243737Y-185250471D02*
X226315166Y-185107614D01*
X226315166Y-185107614D02*
X226458023Y-184964757D01*
X226458023Y-184964757D02*
X226672309Y-184893328D01*
X226672309Y-184893328D02*
X226815166Y-184893328D01*
X226815166Y-184893328D02*
X227029452Y-184964757D01*
X227029452Y-184964757D02*
X227100880Y-185036185D01*
X227743737Y-186393328D02*
X227743737Y-184893328D01*
X227743737Y-184893328D02*
X228100880Y-184893328D01*
X228100880Y-184893328D02*
X228315166Y-184964757D01*
X228315166Y-184964757D02*
X228458023Y-185107614D01*
X228458023Y-185107614D02*
X228529452Y-185250471D01*
X228529452Y-185250471D02*
X228600880Y-185536185D01*
X228600880Y-185536185D02*
X228600880Y-185750471D01*
X228600880Y-185750471D02*
X228529452Y-186036185D01*
X228529452Y-186036185D02*
X228458023Y-186179042D01*
X228458023Y-186179042D02*
X228315166Y-186321900D01*
X228315166Y-186321900D02*
X228100880Y-186393328D01*
X228100880Y-186393328D02*
X227743737Y-186393328D01*
X228886595Y-186536185D02*
X230029452Y-186536185D01*
X230172309Y-184893328D02*
X231029452Y-184893328D01*
X230600880Y-186393328D02*
X230600880Y-184893328D01*
X232029451Y-185607614D02*
X231529451Y-185607614D01*
X231529451Y-186393328D02*
X231529451Y-184893328D01*
X231529451Y-184893328D02*
X232243737Y-184893328D01*
X232600880Y-184893328D02*
X233458023Y-184893328D01*
X233029451Y-186393328D02*
X233029451Y-184893328D01*
X233600880Y-186536185D02*
X234743737Y-186536185D01*
X235886594Y-186393328D02*
X235029451Y-186393328D01*
X235458022Y-186393328D02*
X235458022Y-184893328D01*
X235458022Y-184893328D02*
X235315165Y-185107614D01*
X235315165Y-185107614D02*
X235172308Y-185250471D01*
X235172308Y-185250471D02*
X235029451Y-185321900D01*
X237172308Y-184893328D02*
X236886593Y-184893328D01*
X236886593Y-184893328D02*
X236743736Y-184964757D01*
X236743736Y-184964757D02*
X236672308Y-185036185D01*
X236672308Y-185036185D02*
X236529450Y-185250471D01*
X236529450Y-185250471D02*
X236458022Y-185536185D01*
X236458022Y-185536185D02*
X236458022Y-186107614D01*
X236458022Y-186107614D02*
X236529450Y-186250471D01*
X236529450Y-186250471D02*
X236600879Y-186321900D01*
X236600879Y-186321900D02*
X236743736Y-186393328D01*
X236743736Y-186393328D02*
X237029450Y-186393328D01*
X237029450Y-186393328D02*
X237172308Y-186321900D01*
X237172308Y-186321900D02*
X237243736Y-186250471D01*
X237243736Y-186250471D02*
X237315165Y-186107614D01*
X237315165Y-186107614D02*
X237315165Y-185750471D01*
X237315165Y-185750471D02*
X237243736Y-185607614D01*
X237243736Y-185607614D02*
X237172308Y-185536185D01*
X237172308Y-185536185D02*
X237029450Y-185464757D01*
X237029450Y-185464757D02*
X236743736Y-185464757D01*
X236743736Y-185464757D02*
X236600879Y-185536185D01*
X236600879Y-185536185D02*
X236529450Y-185607614D01*
X236529450Y-185607614D02*
X236458022Y-185750471D01*
X237600879Y-186536185D02*
X238743736Y-186536185D01*
X239100878Y-186393328D02*
X239100878Y-184893328D01*
X239100878Y-185464757D02*
X239243736Y-185393328D01*
X239243736Y-185393328D02*
X239529450Y-185393328D01*
X239529450Y-185393328D02*
X239672307Y-185464757D01*
X239672307Y-185464757D02*
X239743736Y-185536185D01*
X239743736Y-185536185D02*
X239815164Y-185679042D01*
X239815164Y-185679042D02*
X239815164Y-186107614D01*
X239815164Y-186107614D02*
X239743736Y-186250471D01*
X239743736Y-186250471D02*
X239672307Y-186321900D01*
X239672307Y-186321900D02*
X239529450Y-186393328D01*
X239529450Y-186393328D02*
X239243736Y-186393328D01*
X239243736Y-186393328D02*
X239100878Y-186321900D01*
X240458021Y-186393328D02*
X240458021Y-185393328D01*
X240458021Y-184893328D02*
X240386593Y-184964757D01*
X240386593Y-184964757D02*
X240458021Y-185036185D01*
X240458021Y-185036185D02*
X240529450Y-184964757D01*
X240529450Y-184964757D02*
X240458021Y-184893328D01*
X240458021Y-184893328D02*
X240458021Y-185036185D01*
X240958022Y-185393328D02*
X241529450Y-185393328D01*
X241172307Y-184893328D02*
X241172307Y-186179042D01*
X241172307Y-186179042D02*
X241243736Y-186321900D01*
X241243736Y-186321900D02*
X241386593Y-186393328D01*
X241386593Y-186393328D02*
X241529450Y-186393328D01*
X241672308Y-186536185D02*
X242815165Y-186536185D01*
X243172307Y-186393328D02*
X243172307Y-184893328D01*
X243886593Y-186393328D02*
X243886593Y-184893328D01*
X243886593Y-184893328D02*
X244743736Y-186393328D01*
X244743736Y-186393328D02*
X244743736Y-184893328D01*
X245386594Y-185964757D02*
X246100880Y-185964757D01*
X245243737Y-186393328D02*
X245743737Y-184893328D01*
X245743737Y-184893328D02*
X246243737Y-186393328D01*
X246672308Y-185036185D02*
X246743736Y-184964757D01*
X246743736Y-184964757D02*
X246886594Y-184893328D01*
X246886594Y-184893328D02*
X247243736Y-184893328D01*
X247243736Y-184893328D02*
X247386594Y-184964757D01*
X247386594Y-184964757D02*
X247458022Y-185036185D01*
X247458022Y-185036185D02*
X247529451Y-185179042D01*
X247529451Y-185179042D02*
X247529451Y-185321900D01*
X247529451Y-185321900D02*
X247458022Y-185536185D01*
X247458022Y-185536185D02*
X246600879Y-186393328D01*
X246600879Y-186393328D02*
X247529451Y-186393328D01*
X248029450Y-184893328D02*
X248958022Y-184893328D01*
X248958022Y-184893328D02*
X248458022Y-185464757D01*
X248458022Y-185464757D02*
X248672307Y-185464757D01*
X248672307Y-185464757D02*
X248815165Y-185536185D01*
X248815165Y-185536185D02*
X248886593Y-185607614D01*
X248886593Y-185607614D02*
X248958022Y-185750471D01*
X248958022Y-185750471D02*
X248958022Y-186107614D01*
X248958022Y-186107614D02*
X248886593Y-186250471D01*
X248886593Y-186250471D02*
X248815165Y-186321900D01*
X248815165Y-186321900D02*
X248672307Y-186393328D01*
X248672307Y-186393328D02*
X248243736Y-186393328D01*
X248243736Y-186393328D02*
X248100879Y-186321900D01*
X248100879Y-186321900D02*
X248029450Y-186250471D01*
X249458021Y-184893328D02*
X250458021Y-184893328D01*
X250458021Y-184893328D02*
X249815164Y-186393328D01*
X251029449Y-186250471D02*
X251100878Y-186321900D01*
X251100878Y-186321900D02*
X251029449Y-186393328D01*
X251029449Y-186393328D02*
X250958021Y-186321900D01*
X250958021Y-186321900D02*
X251029449Y-186250471D01*
X251029449Y-186250471D02*
X251029449Y-186393328D01*
X251743735Y-186393328D02*
X251743735Y-184893328D01*
X251886593Y-185821900D02*
X252315164Y-186393328D01*
X252315164Y-185393328D02*
X251743735Y-185964757D01*
X252958021Y-186393328D02*
X252958021Y-185393328D01*
X252958021Y-184893328D02*
X252886593Y-184964757D01*
X252886593Y-184964757D02*
X252958021Y-185036185D01*
X252958021Y-185036185D02*
X253029450Y-184964757D01*
X253029450Y-184964757D02*
X252958021Y-184893328D01*
X252958021Y-184893328D02*
X252958021Y-185036185D01*
X254315165Y-186321900D02*
X254172307Y-186393328D01*
X254172307Y-186393328D02*
X253886593Y-186393328D01*
X253886593Y-186393328D02*
X253743736Y-186321900D01*
X253743736Y-186321900D02*
X253672307Y-186250471D01*
X253672307Y-186250471D02*
X253600879Y-186107614D01*
X253600879Y-186107614D02*
X253600879Y-185679042D01*
X253600879Y-185679042D02*
X253672307Y-185536185D01*
X253672307Y-185536185D02*
X253743736Y-185464757D01*
X253743736Y-185464757D02*
X253886593Y-185393328D01*
X253886593Y-185393328D02*
X254172307Y-185393328D01*
X254172307Y-185393328D02*
X254315165Y-185464757D01*
X255600879Y-186393328D02*
X255600879Y-185607614D01*
X255600879Y-185607614D02*
X255529450Y-185464757D01*
X255529450Y-185464757D02*
X255386593Y-185393328D01*
X255386593Y-185393328D02*
X255100879Y-185393328D01*
X255100879Y-185393328D02*
X254958021Y-185464757D01*
X255600879Y-186321900D02*
X255458021Y-186393328D01*
X255458021Y-186393328D02*
X255100879Y-186393328D01*
X255100879Y-186393328D02*
X254958021Y-186321900D01*
X254958021Y-186321900D02*
X254886593Y-186179042D01*
X254886593Y-186179042D02*
X254886593Y-186036185D01*
X254886593Y-186036185D02*
X254958021Y-185893328D01*
X254958021Y-185893328D02*
X255100879Y-185821900D01*
X255100879Y-185821900D02*
X255458021Y-185821900D01*
X255458021Y-185821900D02*
X255600879Y-185750471D01*
X256958022Y-186393328D02*
X256958022Y-184893328D01*
X256958022Y-186321900D02*
X256815164Y-186393328D01*
X256815164Y-186393328D02*
X256529450Y-186393328D01*
X256529450Y-186393328D02*
X256386593Y-186321900D01*
X256386593Y-186321900D02*
X256315164Y-186250471D01*
X256315164Y-186250471D02*
X256243736Y-186107614D01*
X256243736Y-186107614D02*
X256243736Y-185679042D01*
X256243736Y-185679042D02*
X256315164Y-185536185D01*
X256315164Y-185536185D02*
X256386593Y-185464757D01*
X256386593Y-185464757D02*
X256529450Y-185393328D01*
X256529450Y-185393328D02*
X256815164Y-185393328D01*
X256815164Y-185393328D02*
X256958022Y-185464757D01*
X257315165Y-186536185D02*
X258458022Y-186536185D01*
X258815164Y-185393328D02*
X258815164Y-186893328D01*
X258815164Y-185464757D02*
X258958022Y-185393328D01*
X258958022Y-185393328D02*
X259243736Y-185393328D01*
X259243736Y-185393328D02*
X259386593Y-185464757D01*
X259386593Y-185464757D02*
X259458022Y-185536185D01*
X259458022Y-185536185D02*
X259529450Y-185679042D01*
X259529450Y-185679042D02*
X259529450Y-186107614D01*
X259529450Y-186107614D02*
X259458022Y-186250471D01*
X259458022Y-186250471D02*
X259386593Y-186321900D01*
X259386593Y-186321900D02*
X259243736Y-186393328D01*
X259243736Y-186393328D02*
X258958022Y-186393328D01*
X258958022Y-186393328D02*
X258815164Y-186321900D01*
X260815165Y-186321900D02*
X260672307Y-186393328D01*
X260672307Y-186393328D02*
X260386593Y-186393328D01*
X260386593Y-186393328D02*
X260243736Y-186321900D01*
X260243736Y-186321900D02*
X260172307Y-186250471D01*
X260172307Y-186250471D02*
X260100879Y-186107614D01*
X260100879Y-186107614D02*
X260100879Y-185679042D01*
X260100879Y-185679042D02*
X260172307Y-185536185D01*
X260172307Y-185536185D02*
X260243736Y-185464757D01*
X260243736Y-185464757D02*
X260386593Y-185393328D01*
X260386593Y-185393328D02*
X260672307Y-185393328D01*
X260672307Y-185393328D02*
X260815165Y-185464757D01*
X261458021Y-186393328D02*
X261458021Y-184893328D01*
X261458021Y-185464757D02*
X261600879Y-185393328D01*
X261600879Y-185393328D02*
X261886593Y-185393328D01*
X261886593Y-185393328D02*
X262029450Y-185464757D01*
X262029450Y-185464757D02*
X262100879Y-185536185D01*
X262100879Y-185536185D02*
X262172307Y-185679042D01*
X262172307Y-185679042D02*
X262172307Y-186107614D01*
X262172307Y-186107614D02*
X262100879Y-186250471D01*
X262100879Y-186250471D02*
X262029450Y-186321900D01*
X262029450Y-186321900D02*
X261886593Y-186393328D01*
X261886593Y-186393328D02*
X261600879Y-186393328D01*
X261600879Y-186393328D02*
X261458021Y-186321900D01*
D10*
D11*
X177002200Y-181507200D02*
X285002200Y-181507200D01*
D10*
D11*
X178386598Y-183621900D02*
X178600884Y-183693328D01*
X178600884Y-183693328D02*
X178958026Y-183693328D01*
X178958026Y-183693328D02*
X179100884Y-183621900D01*
X179100884Y-183621900D02*
X179172312Y-183550471D01*
X179172312Y-183550471D02*
X179243741Y-183407614D01*
X179243741Y-183407614D02*
X179243741Y-183264757D01*
X179243741Y-183264757D02*
X179172312Y-183121900D01*
X179172312Y-183121900D02*
X179100884Y-183050471D01*
X179100884Y-183050471D02*
X178958026Y-182979042D01*
X178958026Y-182979042D02*
X178672312Y-182907614D01*
X178672312Y-182907614D02*
X178529455Y-182836185D01*
X178529455Y-182836185D02*
X178458026Y-182764757D01*
X178458026Y-182764757D02*
X178386598Y-182621900D01*
X178386598Y-182621900D02*
X178386598Y-182479042D01*
X178386598Y-182479042D02*
X178458026Y-182336185D01*
X178458026Y-182336185D02*
X178529455Y-182264757D01*
X178529455Y-182264757D02*
X178672312Y-182193328D01*
X178672312Y-182193328D02*
X179029455Y-182193328D01*
X179029455Y-182193328D02*
X179243741Y-182264757D01*
X179886597Y-183693328D02*
X179886597Y-182193328D01*
X180529455Y-183693328D02*
X180529455Y-182907614D01*
X180529455Y-182907614D02*
X180458026Y-182764757D01*
X180458026Y-182764757D02*
X180315169Y-182693328D01*
X180315169Y-182693328D02*
X180100883Y-182693328D01*
X180100883Y-182693328D02*
X179958026Y-182764757D01*
X179958026Y-182764757D02*
X179886597Y-182836185D01*
X181815169Y-183621900D02*
X181672312Y-183693328D01*
X181672312Y-183693328D02*
X181386598Y-183693328D01*
X181386598Y-183693328D02*
X181243740Y-183621900D01*
X181243740Y-183621900D02*
X181172312Y-183479042D01*
X181172312Y-183479042D02*
X181172312Y-182907614D01*
X181172312Y-182907614D02*
X181243740Y-182764757D01*
X181243740Y-182764757D02*
X181386598Y-182693328D01*
X181386598Y-182693328D02*
X181672312Y-182693328D01*
X181672312Y-182693328D02*
X181815169Y-182764757D01*
X181815169Y-182764757D02*
X181886598Y-182907614D01*
X181886598Y-182907614D02*
X181886598Y-183050471D01*
X181886598Y-183050471D02*
X181172312Y-183193328D01*
X183100883Y-183621900D02*
X182958026Y-183693328D01*
X182958026Y-183693328D02*
X182672312Y-183693328D01*
X182672312Y-183693328D02*
X182529454Y-183621900D01*
X182529454Y-183621900D02*
X182458026Y-183479042D01*
X182458026Y-183479042D02*
X182458026Y-182907614D01*
X182458026Y-182907614D02*
X182529454Y-182764757D01*
X182529454Y-182764757D02*
X182672312Y-182693328D01*
X182672312Y-182693328D02*
X182958026Y-182693328D01*
X182958026Y-182693328D02*
X183100883Y-182764757D01*
X183100883Y-182764757D02*
X183172312Y-182907614D01*
X183172312Y-182907614D02*
X183172312Y-183050471D01*
X183172312Y-183050471D02*
X182458026Y-183193328D01*
X183600883Y-182693328D02*
X184172311Y-182693328D01*
X183815168Y-182193328D02*
X183815168Y-183479042D01*
X183815168Y-183479042D02*
X183886597Y-183621900D01*
X183886597Y-183621900D02*
X184029454Y-183693328D01*
X184029454Y-183693328D02*
X184172311Y-183693328D01*
X184672311Y-183550471D02*
X184743740Y-183621900D01*
X184743740Y-183621900D02*
X184672311Y-183693328D01*
X184672311Y-183693328D02*
X184600883Y-183621900D01*
X184600883Y-183621900D02*
X184672311Y-183550471D01*
X184672311Y-183550471D02*
X184672311Y-183693328D01*
X184672311Y-182764757D02*
X184743740Y-182836185D01*
X184743740Y-182836185D02*
X184672311Y-182907614D01*
X184672311Y-182907614D02*
X184600883Y-182836185D01*
X184600883Y-182836185D02*
X184672311Y-182764757D01*
X184672311Y-182764757D02*
X184672311Y-182907614D01*
D10*
D12*
X178485282Y-180256957D02*
X179199568Y-180256957D01*
X178342425Y-180685528D02*
X178842425Y-179185528D01*
X178842425Y-179185528D02*
X179342425Y-180685528D01*
X180413853Y-180614100D02*
X180270996Y-180685528D01*
X180270996Y-180685528D02*
X179985282Y-180685528D01*
X179985282Y-180685528D02*
X179842424Y-180614100D01*
X179842424Y-180614100D02*
X179770996Y-180471242D01*
X179770996Y-180471242D02*
X179770996Y-179899814D01*
X179770996Y-179899814D02*
X179842424Y-179756957D01*
X179842424Y-179756957D02*
X179985282Y-179685528D01*
X179985282Y-179685528D02*
X180270996Y-179685528D01*
X180270996Y-179685528D02*
X180413853Y-179756957D01*
X180413853Y-179756957D02*
X180485282Y-179899814D01*
X180485282Y-179899814D02*
X180485282Y-180042671D01*
X180485282Y-180042671D02*
X179770996Y-180185528D01*
X181342424Y-180685528D02*
X181199567Y-180614100D01*
X181199567Y-180614100D02*
X181128138Y-180542671D01*
X181128138Y-180542671D02*
X181056710Y-180399814D01*
X181056710Y-180399814D02*
X181056710Y-179971242D01*
X181056710Y-179971242D02*
X181128138Y-179828385D01*
X181128138Y-179828385D02*
X181199567Y-179756957D01*
X181199567Y-179756957D02*
X181342424Y-179685528D01*
X181342424Y-179685528D02*
X181556710Y-179685528D01*
X181556710Y-179685528D02*
X181699567Y-179756957D01*
X181699567Y-179756957D02*
X181770996Y-179828385D01*
X181770996Y-179828385D02*
X181842424Y-179971242D01*
X181842424Y-179971242D02*
X181842424Y-180399814D01*
X181842424Y-180399814D02*
X181770996Y-180542671D01*
X181770996Y-180542671D02*
X181699567Y-180614100D01*
X181699567Y-180614100D02*
X181556710Y-180685528D01*
X181556710Y-180685528D02*
X181342424Y-180685528D01*
X182485281Y-179685528D02*
X182485281Y-180685528D01*
X182485281Y-179828385D02*
X182556710Y-179756957D01*
X182556710Y-179756957D02*
X182699567Y-179685528D01*
X182699567Y-179685528D02*
X182913853Y-179685528D01*
X182913853Y-179685528D02*
X183056710Y-179756957D01*
X183056710Y-179756957D02*
X183128139Y-179899814D01*
X183128139Y-179899814D02*
X183128139Y-180685528D01*
X184556710Y-180685528D02*
X183842424Y-180685528D01*
X183842424Y-180685528D02*
X183842424Y-179185528D01*
X185699568Y-180685528D02*
X185699568Y-179899814D01*
X185699568Y-179899814D02*
X185628139Y-179756957D01*
X185628139Y-179756957D02*
X185485282Y-179685528D01*
X185485282Y-179685528D02*
X185199568Y-179685528D01*
X185199568Y-179685528D02*
X185056710Y-179756957D01*
X185699568Y-180614100D02*
X185556710Y-180685528D01*
X185556710Y-180685528D02*
X185199568Y-180685528D01*
X185199568Y-180685528D02*
X185056710Y-180614100D01*
X185056710Y-180614100D02*
X184985282Y-180471242D01*
X184985282Y-180471242D02*
X184985282Y-180328385D01*
X184985282Y-180328385D02*
X185056710Y-180185528D01*
X185056710Y-180185528D02*
X185199568Y-180114100D01*
X185199568Y-180114100D02*
X185556710Y-180114100D01*
X185556710Y-180114100D02*
X185699568Y-180042671D01*
X186413853Y-180685528D02*
X186413853Y-179185528D01*
X186413853Y-179756957D02*
X186556711Y-179685528D01*
X186556711Y-179685528D02*
X186842425Y-179685528D01*
X186842425Y-179685528D02*
X186985282Y-179756957D01*
X186985282Y-179756957D02*
X187056711Y-179828385D01*
X187056711Y-179828385D02*
X187128139Y-179971242D01*
X187128139Y-179971242D02*
X187128139Y-180399814D01*
X187128139Y-180399814D02*
X187056711Y-180542671D01*
X187056711Y-180542671D02*
X186985282Y-180614100D01*
X186985282Y-180614100D02*
X186842425Y-180685528D01*
X186842425Y-180685528D02*
X186556711Y-180685528D01*
X186556711Y-180685528D02*
X186413853Y-180614100D01*
X187699568Y-180614100D02*
X187842425Y-180685528D01*
X187842425Y-180685528D02*
X188128139Y-180685528D01*
X188128139Y-180685528D02*
X188270996Y-180614100D01*
X188270996Y-180614100D02*
X188342425Y-180471242D01*
X188342425Y-180471242D02*
X188342425Y-180399814D01*
X188342425Y-180399814D02*
X188270996Y-180256957D01*
X188270996Y-180256957D02*
X188128139Y-180185528D01*
X188128139Y-180185528D02*
X187913854Y-180185528D01*
X187913854Y-180185528D02*
X187770996Y-180114100D01*
X187770996Y-180114100D02*
X187699568Y-179971242D01*
X187699568Y-179971242D02*
X187699568Y-179899814D01*
X187699568Y-179899814D02*
X187770996Y-179756957D01*
X187770996Y-179756957D02*
X187913854Y-179685528D01*
X187913854Y-179685528D02*
X188128139Y-179685528D01*
X188128139Y-179685528D02*
X188270996Y-179756957D01*
D10*
D11*
D10*
D11*
D10*
D11*
D10*
D11*
D10*
D11*
X197002200Y-191507200D02*
X197002200Y-194507200D01*
D10*
D11*
X261002200Y-191507200D02*
X261002200Y-198007200D01*
D14*
G04 #@! TO.P,REF\u002A\u002A,1*
G04 #@! TO.N,INA237_PROBE_+*
X217950000Y-75730000D03*
G04 #@! TD*
D15*
G04 #@! TO.P,J1,S1,SHIELD*
G04 #@! TO.N,Net-(J1-SHIELD-PadS1)*
X198250000Y-90950000D03*
D16*
X194070000Y-90950000D03*
D15*
X198250000Y-99590000D03*
D16*
X194070000Y-99590000D03*
G04 #@! TD*
D14*
G04 #@! TO.P,REF\u002A\u002A,1*
G04 #@! TO.N,INA237_PROBE_-*
X210200000Y-75720000D03*
G04 #@! TD*
D17*
G04 #@! TO.P,E_LNA_ANT2,1,GND*
G04 #@! TO.N,GND*
X240075000Y-100000000D03*
G04 #@! TO.P,E_LNA_ANT2,2,GND*
X243025000Y-100000000D03*
D18*
G04 #@! TO.P,E_LNA_ANT2,3,SIG*
G04 #@! TO.N,Net-(E_LNA_ANT2-SIG)*
X241550000Y-98450000D03*
G04 #@! TD*
D19*
G04 #@! TO.P,IC_ENS1,1,SDA*
G04 #@! TO.N,GPIO8_I2C_SDA*
X229530000Y-76350000D03*
G04 #@! TO.P,IC_ENS1,2,SCL*
G04 #@! TO.N,GPIO9_I2C_SCL*
X230580000Y-76350000D03*
G04 #@! TO.P,IC_ENS1,3,MISO*
G04 #@! TO.N,GNDD*
X231640000Y-76350000D03*
G04 #@! TO.P,IC_ENS1,4,VDD*
G04 #@! TO.N,3V3*
X231630000Y-77390000D03*
G04 #@! TO.P,IC_ENS1,5,VDDIO*
X231630000Y-78440000D03*
G04 #@! TO.P,IC_ENS1,6,INT*
G04 #@! TO.N,unconnected-(IC_ENS1-INT-Pad6)*
X230570000Y-78440000D03*
G04 #@! TO.P,IC_ENS1,7,CS*
G04 #@! TO.N,3V3*
X229520000Y-78440000D03*
G04 #@! TO.P,IC_ENS1,8,VSS*
G04 #@! TO.N,GNDD*
X229520000Y-77390000D03*
G04 #@! TO.P,IC_ENS1,9,VSS*
X230570000Y-77390000D03*
G04 #@! TD*
D20*
G04 #@! TO.P,E_LNA_ANT1,1,1*
G04 #@! TO.N,Net-(E_LNA_ANT2-SIG)*
X241570000Y-97590000D03*
G04 #@! TO.P,E_LNA_ANT1,2,2*
G04 #@! TO.N,unconnected-(E_LNA_ANT1-Pad2)*
X241570000Y-88090000D03*
G04 #@! TD*
D21*
G04 #@! TO.P,TP2,1,1*
G04 #@! TO.N,3V3*
X209350000Y-112680000D03*
G04 #@! TD*
D22*
G04 #@! TO.P,U6,BASE*
G04 #@! TO.N,N/C*
X233240000Y-78130000D03*
D23*
G04 #@! TO.P,U6,COLLECTOR*
G04 #@! TO.N,3V3*
X233900000Y-74400000D03*
D22*
G04 #@! TO.P,U6,EMITTER*
G04 #@! TO.N,TEMT6000_IO35*
X234540000Y-78130000D03*
G04 #@! TD*
D24*
G04 #@! TO.P,U4,1,NC*
G04 #@! TO.N,unconnected-(U4-NC-Pad1)*
X224210000Y-75540000D03*
G04 #@! TO.P,U4,2,VDD*
G04 #@! TO.N,3V3*
X224210000Y-76540000D03*
G04 #@! TO.P,U4,3,SCL*
G04 #@! TO.N,GPIO9_I2C_SCL*
X224210000Y-77540000D03*
G04 #@! TO.P,U4,4,SDA*
G04 #@! TO.N,GPIO8_I2C_SDA*
X222240000Y-77540000D03*
G04 #@! TO.P,U4,5,GND*
G04 #@! TO.N,GNDD*
X222240000Y-76540000D03*
G04 #@! TO.P,U4,6,NC*
G04 #@! TO.N,unconnected-(U4-NC-Pad6)*
X222240000Y-75540000D03*
G04 #@! TD*
D25*
G04 #@! TO.P,LED1,1,GA*
G04 #@! TO.N,LED_G_IO02*
X241570000Y-84150000D03*
G04 #@! TO.P,LED1,2,BA*
G04 #@! TO.N,LED_B_IO05*
X238390000Y-84160000D03*
G04 #@! TO.P,LED1,3,RA*
G04 #@! TO.N,Net-(LED1-RA)*
X241570000Y-83010000D03*
G04 #@! TO.P,LED1,4,K*
G04 #@! TO.N,3V3*
X238380000Y-83040000D03*
G04 #@! TD*
D21*
G04 #@! TO.P,TP3,1,1*
G04 #@! TO.N,GND*
X212670000Y-112530000D03*
G04 #@! TD*
D26*
G04 #@! TO.P,LCD1,1,Pin_1*
G04 #@! TO.N,GND*
X211100000Y-91000000D03*
G04 #@! TO.P,LCD1,2,Pin_2*
X211095000Y-91710000D03*
G04 #@! TO.P,LCD1,3,Pin_3*
G04 #@! TO.N,LCD_LED_IO21*
X211095000Y-92420000D03*
G04 #@! TO.P,LCD1,4,Pin_4*
G04 #@! TO.N,3V3*
X211100000Y-93130000D03*
G04 #@! TO.P,LCD1,5,Pin_5*
G04 #@! TO.N,GND*
X211095000Y-93840000D03*
G04 #@! TO.P,LCD1,6,Pin_6*
X211100000Y-94555000D03*
G04 #@! TO.P,LCD1,7,Pin_7*
G04 #@! TO.N,LCD_DC_IO17*
X211100000Y-95265000D03*
G04 #@! TO.P,LCD1,8,Pin_8*
G04 #@! TO.N,LCD_CS_IO13*
X211100000Y-95975000D03*
G04 #@! TO.P,LCD1,9,Pin_9*
G04 #@! TO.N,LCD_I2C_SCL_IO12*
X211105000Y-96685000D03*
G04 #@! TO.P,LCD1,10,Pin_10*
G04 #@! TO.N,LCD_I2C_SDA_IO38*
X211100000Y-97395000D03*
G04 #@! TO.P,LCD1,11,Pin_11*
G04 #@! TO.N,LCD_RST_IO37*
X211100000Y-98105000D03*
G04 #@! TO.P,LCD1,12,Pin_12*
G04 #@! TO.N,GND*
X211100000Y-98815000D03*
G04 #@! TD*
D27*
G04 #@! TO.P,CN3065_STDBY_LED1,1,K*
G04 #@! TO.N,STDBY_LED_G*
X241447500Y-105820000D03*
G04 #@! TO.P,CN3065_STDBY_LED1,2,A*
G04 #@! TO.N,USB_5V0*
X239572500Y-105820000D03*
G04 #@! TD*
D28*
G04 #@! TO.P,U7,1,GND*
G04 #@! TO.N,GNDD*
X229570000Y-74600000D03*
G04 #@! TO.P,U7,2,CSB*
G04 #@! TO.N,3V3*
X230220000Y-74600000D03*
G04 #@! TO.P,U7,3,SDI*
G04 #@! TO.N,GPIO8_I2C_SDA*
X230870000Y-74600000D03*
G04 #@! TO.P,U7,4,SCK*
G04 #@! TO.N,GPIO9_I2C_SCL*
X231520000Y-74600000D03*
G04 #@! TO.P,U7,5,SDO*
G04 #@! TO.N,GNDD*
X231520000Y-73000000D03*
G04 #@! TO.P,U7,6,VDDIO*
G04 #@! TO.N,3V3*
X230870000Y-73000000D03*
G04 #@! TO.P,U7,7,GND*
G04 #@! TO.N,GNDD*
X230220000Y-73000000D03*
G04 #@! TO.P,U7,8,VDD*
G04 #@! TO.N,3V3*
X229570000Y-73000000D03*
G04 #@! TD*
D21*
G04 #@! TO.P,TP1,1,1*
G04 #@! TO.N,VIN*
X216520000Y-112490000D03*
G04 #@! TD*
D29*
G04 #@! TO.N,GND*
X227568118Y-85904500D03*
X229800000Y-97517855D03*
X206150000Y-100310000D03*
X238260000Y-101180000D03*
X215340000Y-89830000D03*
X208070000Y-106670000D03*
D30*
X202520000Y-102750000D03*
X207650000Y-96710000D03*
D29*
X237240000Y-85240000D03*
D30*
X201530000Y-105150000D03*
D29*
X213140000Y-97380000D03*
X234610000Y-97060000D03*
D30*
X203750000Y-97040000D03*
D29*
X232675952Y-94695721D03*
X211140000Y-101170000D03*
X229830698Y-85385213D03*
D31*
X193570000Y-104390000D03*
D30*
X227711199Y-96109995D03*
D29*
X223640000Y-92050000D03*
X197660000Y-83280000D03*
X222700000Y-89829500D03*
D30*
X201480000Y-109300000D03*
D29*
G04 #@! TO.N,VOLTAGE_REF_IO07*
X230704679Y-92012350D03*
X234110000Y-83440000D03*
D30*
G04 #@! TO.N,3V3*
X199320000Y-82650000D03*
X194390000Y-95940000D03*
X228445500Y-72850000D03*
X192840000Y-107670000D03*
X235731250Y-89883321D03*
X236230000Y-86270000D03*
X207520000Y-82560000D03*
X220500000Y-81200000D03*
D29*
X223040000Y-85110000D03*
D30*
X193690000Y-95300000D03*
D29*
X219570000Y-85430000D03*
X200100000Y-105290000D03*
D31*
X235667500Y-92914500D03*
D29*
X232660000Y-89970000D03*
X209175500Y-93160000D03*
X225080000Y-76540000D03*
X231120000Y-81440000D03*
X224497603Y-99289931D03*
D30*
X234650000Y-99310000D03*
D29*
X210390000Y-85280000D03*
G04 #@! TO.N,CHIP_EN*
X232448876Y-95922567D03*
X194490000Y-88330000D03*
G04 #@! TO.N,ESP_GPIO0_BOOT-DTR*
X230466400Y-95118821D03*
X194450000Y-87220000D03*
X226736280Y-99016280D03*
G04 #@! TO.N,GPIO8_I2C_SDA*
X213290000Y-86140000D03*
X226960000Y-80880000D03*
X210410000Y-86150000D03*
X222290000Y-88440000D03*
X230759191Y-91150447D03*
X230260000Y-75349502D03*
G04 #@! TO.N,USB_D-*
X209450000Y-89510000D03*
X224630000Y-85970000D03*
G04 #@! TO.N,SPIWP*
X220040000Y-93300000D03*
X214510000Y-95040000D03*
G04 #@! TO.N,SPICS0*
X220850000Y-92830000D03*
X214160000Y-97390000D03*
G04 #@! TO.N,SPIQ*
X219810000Y-94610000D03*
X215240000Y-94080000D03*
G04 #@! TO.N,USB_D+*
X224040000Y-85140000D03*
X210330000Y-89080000D03*
G04 #@! TO.N,TXD0*
X197850000Y-85260000D03*
X222120000Y-102830000D03*
G04 #@! TO.N,RXD0*
X225563653Y-100248153D03*
X197850000Y-86270000D03*
G04 #@! TO.N,DAC_CALIBRATION*
X227029500Y-88805443D03*
X225150000Y-86880000D03*
G04 #@! TO.N,GPIO9_I2C_SCL*
X226490000Y-82590000D03*
X231427500Y-75367500D03*
X210390000Y-87170000D03*
X229972653Y-90944071D03*
X219500000Y-86690000D03*
G04 #@! TO.N,Net-(ESP32S1-U0TXD{slash}PROG{slash}GPIO43)*
X223588672Y-101570000D03*
X225450000Y-99150000D03*
G04 #@! TO.N,SPICS1*
X221310000Y-90837614D03*
X213680000Y-91770000D03*
D30*
G04 #@! TO.N,VIN_BATF*
X204770000Y-114200000D03*
X207060000Y-114150000D03*
G04 #@! TO.N,VIN_BAT*
X223950000Y-116460000D03*
X205810000Y-116460000D03*
D29*
G04 #@! TO.N,STDBY_LED_G*
X203260000Y-113020000D03*
D30*
G04 #@! TO.N,VIN*
X193270000Y-102040000D03*
X219800000Y-108830000D03*
D29*
X219280000Y-106710000D03*
X223520000Y-108980000D03*
D30*
G04 #@! TO.N,USB_5V0*
X219757500Y-110342500D03*
X202870000Y-103960000D03*
X202210000Y-107680000D03*
D29*
G04 #@! TO.N,BAT_SENSE_IO21*
X224150000Y-106400000D03*
X231410000Y-95118821D03*
G04 #@! TO.N,Net-(J1-CC1)*
X200890000Y-94530000D03*
X200940000Y-97090000D03*
G04 #@! TO.N,Net-(LED1-RA)*
X240620000Y-82840000D03*
D30*
G04 #@! TO.N,USB_5V0F*
X215350000Y-105330000D03*
X202690000Y-100900500D03*
X200860000Y-93140000D03*
X201330000Y-100230000D03*
G04 #@! TO.N,Net-(E_LNA_ANT2-SIG)*
X241580000Y-98030000D03*
D29*
G04 #@! TO.N,LED_G_IO02*
X231745283Y-93625495D03*
G04 #@! TO.N,LED_R_IO04*
X232846233Y-92376233D03*
X239728522Y-85039254D03*
G04 #@! TO.N,LED_B_IO05*
X231907173Y-92435495D03*
G04 #@! TO.N,LCD_LED_IO21*
X213810000Y-89740000D03*
G04 #@! TO.N,LCD_DC_IO17*
X225560000Y-85980000D03*
G04 #@! TO.N,LCD_I2C_SDA_IO38*
X222863252Y-99499307D03*
G04 #@! TO.N,LCD_RST_IO37*
X222444500Y-98620000D03*
G04 #@! TO.N,LCD_CS_IO13*
X227502489Y-89450023D03*
G04 #@! TO.N,LCD_I2C_SCL_IO12*
X228380373Y-89445500D03*
G04 #@! TO.N,GNDD*
X232510000Y-72410000D03*
X230260000Y-83540000D03*
D30*
X205520000Y-82220000D03*
D29*
X209380000Y-100450000D03*
X213260000Y-82010000D03*
X234110000Y-82430000D03*
X214020000Y-85430000D03*
X206970000Y-91070000D03*
G04 #@! TO.N,PERIPHERALS_PWR_EN_IO10*
X229090000Y-89900000D03*
X206970000Y-89760000D03*
G04 #@! TO.N,INA237_ALRT_IO33*
X210370000Y-88080000D03*
X221130000Y-95670000D03*
G04 #@! TO.N,TEMT6000_IO35*
X210210000Y-102020000D03*
X212130000Y-104890000D03*
X220260000Y-96400000D03*
G04 #@! TD*
D32*
G04 #@! TO.N,GND*
X229165784Y-97517855D02*
X227757924Y-96109995D01*
D33*
X206150000Y-100530000D02*
X206790000Y-101170000D01*
D34*
X211365000Y-94540000D02*
X211355000Y-94550000D01*
D33*
X236160000Y-90610000D02*
X232120000Y-90610000D01*
X197700000Y-83280000D02*
X197660000Y-83280000D01*
D34*
X212870000Y-94555000D02*
X212955000Y-94640000D01*
X210021205Y-90996143D02*
X213000000Y-90996143D01*
X212955000Y-91041143D02*
X212955000Y-91770000D01*
D33*
X237260000Y-85220000D02*
X237240000Y-85240000D01*
D34*
X234590000Y-96705026D02*
X234590000Y-97190000D01*
D33*
X236610000Y-90160000D02*
X236160000Y-90610000D01*
D32*
X201550000Y-103720000D02*
X201550000Y-105130000D01*
D35*
X205766014Y-100310000D02*
X206150000Y-100310000D01*
D33*
X209040000Y-101170000D02*
X211140000Y-101170000D01*
D36*
X240085000Y-101765000D02*
X240085000Y-100730000D01*
X243035000Y-101555000D02*
X242420000Y-102170000D01*
D32*
X207320000Y-97040000D02*
X207650000Y-96710000D01*
D34*
X211365000Y-93870000D02*
X211355000Y-93860000D01*
D37*
X228087405Y-85385213D02*
X229830698Y-85385213D01*
D33*
X236610000Y-87229340D02*
X236610000Y-90160000D01*
D34*
X212895000Y-91710000D02*
X212955000Y-91770000D01*
D35*
X203750000Y-97040000D02*
X203750000Y-98293986D01*
D34*
X212955000Y-93860000D02*
X212955000Y-94640000D01*
X214890000Y-89830000D02*
X213723857Y-90996143D01*
X209120000Y-101980000D02*
X209120000Y-101250000D01*
D32*
X202520000Y-102750000D02*
X201550000Y-103720000D01*
D34*
X209890000Y-102750000D02*
X221000000Y-102750000D01*
D33*
X203750000Y-97040000D02*
X204080000Y-97040000D01*
D34*
X212955000Y-91770000D02*
X212955000Y-93860000D01*
D33*
X206150000Y-100310000D02*
X206150000Y-100530000D01*
D34*
X212670000Y-111270000D02*
X208070000Y-106670000D01*
D33*
X237260000Y-86579340D02*
X236610000Y-87229340D01*
D36*
X242420000Y-102170000D02*
X240490000Y-102170000D01*
D34*
X232675952Y-94790978D02*
X234590000Y-96705026D01*
X211095000Y-91710000D02*
X212895000Y-91710000D01*
D33*
X199020000Y-84600000D02*
X197700000Y-83280000D01*
D34*
X213160000Y-98320000D02*
X212665000Y-98815000D01*
D33*
X237260000Y-85060000D02*
X237260000Y-85220000D01*
X199020000Y-87409391D02*
X199020000Y-84600000D01*
X201480000Y-109300000D02*
X201480000Y-109110000D01*
D36*
X240490000Y-102170000D02*
X240085000Y-101765000D01*
D32*
X193720000Y-104240000D02*
X193570000Y-104390000D01*
D34*
X211100000Y-94555000D02*
X212870000Y-94555000D01*
X212955000Y-94640000D02*
X213160000Y-94845000D01*
D33*
X201480000Y-109110000D02*
X200990000Y-108620000D01*
D36*
X243035000Y-100730000D02*
X243035000Y-101555000D01*
D34*
X222700000Y-89829500D02*
X223640000Y-90769500D01*
X213723857Y-90996143D02*
X213000000Y-90996143D01*
X211095000Y-93840000D02*
X212935000Y-93840000D01*
D32*
X227711199Y-96063270D02*
X227691250Y-96043321D01*
D35*
X203750000Y-98293986D02*
X205766014Y-100310000D01*
D33*
X206790000Y-101170000D02*
X209040000Y-101170000D01*
X237260000Y-85260000D02*
X237260000Y-86579340D01*
D34*
X209120000Y-101250000D02*
X209040000Y-101170000D01*
X213160000Y-94845000D02*
X213160000Y-98320000D01*
D32*
X203750000Y-97040000D02*
X207320000Y-97040000D01*
D34*
X211365000Y-90996143D02*
X211630000Y-90996143D01*
X213000000Y-90996143D02*
X212955000Y-91041143D01*
X232675952Y-94695721D02*
X232675952Y-94790978D01*
X209120000Y-101980000D02*
X209890000Y-102750000D01*
D33*
X203750000Y-97040000D02*
X203160000Y-96450000D01*
D34*
X232010000Y-90500000D02*
X232120000Y-90610000D01*
D32*
X201550000Y-105130000D02*
X201530000Y-105150000D01*
D36*
X239635000Y-101180000D02*
X238260000Y-101180000D01*
D34*
X212935000Y-93840000D02*
X212955000Y-93860000D01*
D33*
X200990000Y-108620000D02*
X200990000Y-106680000D01*
D34*
X212670000Y-112530000D02*
X212670000Y-111270000D01*
D32*
X227711199Y-96109995D02*
X227711199Y-96063270D01*
D33*
X203160000Y-96450000D02*
X203160000Y-91549391D01*
D34*
X223640000Y-90769500D02*
X223640000Y-92050000D01*
D32*
X227757924Y-96109995D02*
X227711199Y-96109995D01*
D34*
X232010000Y-85010000D02*
X232010000Y-90500000D01*
D32*
X229800000Y-97517855D02*
X229165784Y-97517855D01*
D33*
X201530000Y-106140000D02*
X201530000Y-105150000D01*
D32*
X201530000Y-104240000D02*
X193720000Y-104240000D01*
D34*
X210016205Y-91706143D02*
X211273857Y-91706143D01*
D33*
X237240000Y-85240000D02*
X237260000Y-85260000D01*
D37*
X227568118Y-85904500D02*
X228087405Y-85385213D01*
D33*
X200990000Y-106680000D02*
X201530000Y-106140000D01*
D34*
X212665000Y-98815000D02*
X211100000Y-98815000D01*
D36*
X240085000Y-100730000D02*
X239635000Y-101180000D01*
D33*
X203160000Y-91549391D02*
X199020000Y-87409391D01*
D34*
X215340000Y-89830000D02*
X214890000Y-89830000D01*
G04 #@! TO.N,VOLTAGE_REF_IO07*
X233085025Y-83440000D02*
X231660000Y-84865025D01*
X231660000Y-91062811D02*
X230997364Y-91725447D01*
X231660000Y-84865025D02*
X231660000Y-91062811D01*
X230997364Y-91725447D02*
X230991582Y-91725447D01*
X230705723Y-92013394D02*
X230705723Y-92017088D01*
X230991582Y-91725447D02*
X230704679Y-92012350D01*
X230704679Y-92012350D02*
X230705723Y-92013394D01*
X234110000Y-83440000D02*
X233085025Y-83440000D01*
D37*
G04 #@! TO.N,3V3*
X235580000Y-93910000D02*
X235530000Y-93960000D01*
D32*
X198940000Y-82270000D02*
X194330000Y-82270000D01*
X228445500Y-72850000D02*
X228350000Y-72945500D01*
X199320000Y-82650000D02*
X198940000Y-82270000D01*
D34*
X201290000Y-110720000D02*
X207340000Y-110720000D01*
D35*
X232440000Y-93960000D02*
X235530000Y-93960000D01*
D34*
X209630000Y-93160000D02*
X209663857Y-93126143D01*
D32*
X236210000Y-82900000D02*
X236210000Y-83120000D01*
D35*
X224497603Y-97242397D02*
X227430000Y-94310000D01*
D32*
X234920000Y-81610000D02*
X236210000Y-82900000D01*
D34*
X200100000Y-105290000D02*
X200100000Y-109530000D01*
D35*
X208810000Y-81270000D02*
X220310000Y-81270000D01*
D34*
X207340000Y-110720000D02*
X209300000Y-112680000D01*
X209175500Y-93160000D02*
X209630000Y-93160000D01*
X231080000Y-79110000D02*
X230030000Y-79110000D01*
X238450000Y-83110000D02*
X238920000Y-83110000D01*
X200100000Y-107670000D02*
X192840000Y-107670000D01*
D32*
X193690000Y-95300000D02*
X193750000Y-95300000D01*
D34*
X232405000Y-77030000D02*
X232045000Y-77390000D01*
D33*
X234560505Y-99160000D02*
X234580000Y-99179495D01*
D34*
X218935000Y-84795000D02*
X219570000Y-85430000D01*
X231630000Y-78560000D02*
X231080000Y-79110000D01*
X230870000Y-73000000D02*
X230870000Y-73780000D01*
D38*
X236200000Y-86240000D02*
X236230000Y-86270000D01*
D34*
X230050000Y-73820000D02*
X229570000Y-73340000D01*
X231630000Y-77390000D02*
X231630000Y-78440000D01*
X231835000Y-73820000D02*
X230050000Y-73820000D01*
D38*
X234580000Y-99070000D02*
X235580000Y-98070000D01*
D32*
X193690000Y-95260000D02*
X193690000Y-95300000D01*
D34*
X230220000Y-74600000D02*
X230220000Y-73860000D01*
X210390000Y-85280000D02*
X210875000Y-84795000D01*
X229520000Y-78440000D02*
X228480000Y-78440000D01*
D38*
X236210000Y-83120000D02*
X236200000Y-83130000D01*
D34*
X236210000Y-83120000D02*
X238440000Y-83120000D01*
X228445500Y-72850000D02*
X228255500Y-72660000D01*
X232045000Y-77390000D02*
X231630000Y-77390000D01*
D35*
X232090000Y-94310000D02*
X232440000Y-93960000D01*
D38*
X235580000Y-93077000D02*
X235692500Y-92964500D01*
X236200000Y-83130000D02*
X236200000Y-86240000D01*
D34*
X229570000Y-73340000D02*
X229570000Y-73000000D01*
D38*
X235644571Y-89970000D02*
X235731250Y-89883321D01*
D35*
X199870000Y-83200000D02*
X206880000Y-83200000D01*
D34*
X225080000Y-76540000D02*
X224210000Y-76540000D01*
D35*
X224497603Y-99289931D02*
X224497603Y-97242397D01*
D34*
X230030000Y-79110000D02*
X229520000Y-78600000D01*
X232415000Y-74400000D02*
X231835000Y-73820000D01*
X223000000Y-85070000D02*
X223040000Y-85110000D01*
D32*
X193750000Y-95300000D02*
X194390000Y-95940000D01*
X228350000Y-80450000D02*
X229510000Y-81610000D01*
X192300000Y-84300000D02*
X192300000Y-93870000D01*
X228350000Y-72945500D02*
X228350000Y-78570000D01*
D38*
X235580000Y-93910000D02*
X235580000Y-93077000D01*
D35*
X227430000Y-94310000D02*
X232090000Y-94310000D01*
D34*
X200100000Y-109530000D02*
X201290000Y-110720000D01*
X210875000Y-84795000D02*
X218935000Y-84795000D01*
D32*
X229510000Y-81610000D02*
X234920000Y-81610000D01*
D34*
X219930000Y-85070000D02*
X223000000Y-85070000D01*
X238440000Y-83120000D02*
X238450000Y-83110000D01*
D38*
X235580000Y-98070000D02*
X235580000Y-93910000D01*
D35*
X199320000Y-82650000D02*
X199870000Y-83200000D01*
D32*
X194330000Y-82270000D02*
X192300000Y-84300000D01*
X192300000Y-93870000D02*
X193690000Y-95260000D01*
D34*
X209663857Y-93126143D02*
X210021205Y-93126143D01*
D35*
X206880000Y-83200000D02*
X208810000Y-81270000D01*
D34*
X219570000Y-85430000D02*
X219930000Y-85070000D01*
X232405000Y-74410000D02*
X232405000Y-77030000D01*
X228480000Y-78440000D02*
X228350000Y-78570000D01*
X233900000Y-74400000D02*
X232415000Y-74400000D01*
D38*
X232660000Y-89970000D02*
X235644571Y-89970000D01*
D32*
X228350000Y-78570000D02*
X228350000Y-80450000D01*
D34*
X209300000Y-112680000D02*
X209350000Y-112680000D01*
D38*
X234580000Y-99179495D02*
X234580000Y-99070000D01*
D34*
G04 #@! TO.N,CHIP_EN*
X194520000Y-88300000D02*
X197860000Y-88300000D01*
X201710000Y-98650000D02*
X207210000Y-104150000D01*
X232480000Y-95953691D02*
X232448876Y-95922567D01*
X232480000Y-96535026D02*
X232480000Y-95953691D01*
X194490000Y-88330000D02*
X194520000Y-88300000D01*
X229044973Y-98190000D02*
X230825026Y-98190000D01*
X230825026Y-98190000D02*
X232480000Y-96535026D01*
X207210000Y-104150000D02*
X223084976Y-104150000D01*
X223084976Y-104150000D02*
X229044973Y-98190000D01*
X197860000Y-88300000D02*
X201710000Y-92150000D01*
X201710000Y-92150000D02*
X201710000Y-98650000D01*
G04 #@! TO.N,ESP_GPIO0_BOOT-DTR*
X207354974Y-103800000D02*
X222940001Y-103800000D01*
X230415221Y-95170000D02*
X227490000Y-95170000D01*
X202060000Y-98505026D02*
X207354974Y-103800000D01*
X230466400Y-95118821D02*
X230415221Y-95170000D01*
X226736280Y-95923720D02*
X226736280Y-99016280D01*
X197274974Y-87220000D02*
X202060000Y-92005026D01*
X222940001Y-103800000D02*
X226736280Y-100003719D01*
X202060000Y-92005026D02*
X202060000Y-98505026D01*
X227490000Y-95170000D02*
X226736280Y-95923720D01*
X226736280Y-100003719D02*
X226736280Y-99016280D01*
X194450000Y-87220000D02*
X197274974Y-87220000D01*
G04 #@! TO.N,GPIO8_I2C_SDA*
X224510052Y-88440000D02*
X227820052Y-91750000D01*
X227525000Y-80315000D02*
X227525000Y-74085000D01*
X227525000Y-74085000D02*
X226800000Y-73360000D01*
X226960000Y-80880000D02*
X227525000Y-80315000D01*
X227040000Y-80880000D02*
X228640000Y-82480000D01*
X224285026Y-73360000D02*
X223230000Y-74415026D01*
X213280000Y-86150000D02*
X210410000Y-86150000D01*
X230614974Y-82480000D02*
X231310000Y-83175026D01*
X231310000Y-90599638D02*
X230759191Y-91150447D01*
X231310000Y-83175026D02*
X231310000Y-90599638D01*
X222290000Y-88440000D02*
X224510052Y-88440000D01*
X230649553Y-91150447D02*
X230759191Y-91150447D01*
X229715000Y-76350000D02*
X229715000Y-76215000D01*
X230050000Y-91750000D02*
X230649553Y-91150447D01*
X230870000Y-74835000D02*
X229530000Y-76175000D01*
X227820052Y-91750000D02*
X230050000Y-91750000D01*
X223230000Y-76880000D02*
X222600000Y-77510000D01*
X213290000Y-86140000D02*
X213280000Y-86150000D01*
X228640000Y-82480000D02*
X230614974Y-82480000D01*
X226800000Y-73360000D02*
X224285026Y-73360000D01*
X222600000Y-77510000D02*
X222257176Y-77510000D01*
X223230000Y-74415026D02*
X223230000Y-76880000D01*
X226960000Y-80880000D02*
X227040000Y-80880000D01*
G04 #@! TO.N,USB_D-*
X209060000Y-89120000D02*
X209060000Y-84989896D01*
X224155000Y-84095000D02*
X224780000Y-84720000D01*
X209450000Y-89510000D02*
X209060000Y-89120000D01*
X209060000Y-84989896D02*
X209954896Y-84095000D01*
X224780000Y-85820000D02*
X224630000Y-85970000D01*
X209954896Y-84095000D02*
X224155000Y-84095000D01*
X224780000Y-84720000D02*
X224780000Y-85820000D01*
G04 #@! TO.N,SPIWP*
X215060000Y-93230000D02*
X214510000Y-93780000D01*
X220040000Y-93300000D02*
X219970000Y-93230000D01*
X219970000Y-93230000D02*
X215060000Y-93230000D01*
X214510000Y-93780000D02*
X214510000Y-95040000D01*
G04 #@! TO.N,SPICS0*
X220640000Y-92620000D02*
X220850000Y-92830000D01*
X215080000Y-92620000D02*
X220640000Y-92620000D01*
X213740000Y-93960000D02*
X215080000Y-92620000D01*
X214160000Y-97390000D02*
X213740000Y-96970000D01*
X213740000Y-96970000D02*
X213740000Y-93960000D01*
G04 #@! TO.N,SPIQ*
X219280000Y-94080000D02*
X215240000Y-94080000D01*
X219810000Y-94610000D02*
X219280000Y-94080000D01*
G04 #@! TO.N,USB_D+*
X223695000Y-84445000D02*
X224040000Y-84790000D01*
X210099870Y-84445000D02*
X223695000Y-84445000D01*
X209480000Y-88290000D02*
X209480000Y-85064870D01*
X224040000Y-84790000D02*
X224040000Y-85140000D01*
X210270000Y-89080000D02*
X209480000Y-88290000D01*
X209480000Y-85064870D02*
X210099870Y-84445000D01*
X210330000Y-89080000D02*
X210270000Y-89080000D01*
G04 #@! TO.N,TXD0*
X202760000Y-98215078D02*
X202760000Y-91715077D01*
X222120000Y-102830000D02*
X221850000Y-103100000D01*
X221850000Y-103100000D02*
X207644922Y-103100000D01*
X207644922Y-103100000D02*
X202760000Y-98215078D01*
X202760000Y-91715077D02*
X198580000Y-87535077D01*
X197930000Y-85260000D02*
X197850000Y-85260000D01*
X198580000Y-85910000D02*
X197930000Y-85260000D01*
X198580000Y-87535077D02*
X198580000Y-85910000D01*
G04 #@! TO.N,RXD0*
X207499948Y-103450000D02*
X222795026Y-103450000D01*
X197850000Y-87300052D02*
X202410000Y-91860052D01*
X225563653Y-100681373D02*
X225563653Y-100248153D01*
X202410000Y-91860052D02*
X202410000Y-98360052D01*
X202410000Y-98360052D02*
X207499948Y-103450000D01*
X222795026Y-103450000D02*
X225563653Y-100681373D01*
X197850000Y-86270000D02*
X197850000Y-87300052D01*
G04 #@! TO.N,DAC_CALIBRATION*
X225150000Y-87010000D02*
X226945443Y-88805443D01*
X225150000Y-86880000D02*
X225150000Y-87010000D01*
X226945443Y-88805443D02*
X227029500Y-88805443D01*
G04 #@! TO.N,GPIO9_I2C_SCL*
X226170000Y-82270000D02*
X226170000Y-80510000D01*
X219550000Y-86640000D02*
X223205026Y-86640000D01*
X230960000Y-83320000D02*
X230960000Y-89956724D01*
X219410000Y-86780000D02*
X210780000Y-86780000D01*
X231520000Y-75275000D02*
X231520000Y-74600000D01*
X226170000Y-80510000D02*
X227175000Y-79505000D01*
X226490000Y-82590000D02*
X226170000Y-82270000D01*
X224430000Y-73710000D02*
X223580000Y-74560000D01*
X219500000Y-86690000D02*
X219410000Y-86780000D01*
X230745000Y-76350000D02*
X230775000Y-76350000D01*
X227175000Y-79505000D02*
X227175000Y-74415000D01*
X226490000Y-82590000D02*
X227528300Y-82590000D01*
X223580000Y-76910000D02*
X224210000Y-77540000D01*
X226470000Y-73710000D02*
X224430000Y-73710000D01*
X219500000Y-86690000D02*
X219550000Y-86640000D01*
X227768300Y-82830000D02*
X230470000Y-82830000D01*
X227528300Y-82590000D02*
X227768300Y-82830000D01*
X230960000Y-89956724D02*
X229972653Y-90944071D01*
X210780000Y-86780000D02*
X210390000Y-87170000D01*
X223205026Y-86640000D02*
X227509097Y-90944071D01*
X230580000Y-76215000D02*
X231520000Y-75275000D01*
X227175000Y-74415000D02*
X226470000Y-73710000D01*
X223580000Y-74560000D02*
X223580000Y-76910000D01*
X227509097Y-90944071D02*
X229972653Y-90944071D01*
X231550000Y-74400000D02*
X231540000Y-74410000D01*
X230470000Y-82830000D02*
X230960000Y-83320000D01*
G04 #@! TO.N,Net-(ESP32S1-U0TXD{slash}PROG{slash}GPIO43)*
X223588672Y-101570000D02*
X223588672Y-101011328D01*
X223588672Y-101011328D02*
X225450000Y-99150000D01*
G04 #@! TO.N,SPICS1*
X214890000Y-90560000D02*
X213680000Y-91770000D01*
X221310000Y-90837614D02*
X221032386Y-90560000D01*
X221032386Y-90560000D02*
X214890000Y-90560000D01*
X213680000Y-91770000D02*
X213450000Y-91770000D01*
D36*
G04 #@! TO.N,VIN_BATF*
X204820000Y-114150000D02*
X204770000Y-114200000D01*
X207060000Y-114150000D02*
X204820000Y-114150000D01*
D32*
G04 #@! TO.N,VIN_BAT*
X205810000Y-116460000D02*
X206140000Y-116790000D01*
X223570000Y-116790000D02*
X223910000Y-116450000D01*
X206140000Y-116790000D02*
X223570000Y-116790000D01*
D34*
G04 #@! TO.N,STDBY_LED_G*
X203860000Y-115410000D02*
X218650000Y-115410000D01*
X240690000Y-107090000D02*
X241447500Y-106332500D01*
X203260000Y-113020000D02*
X203260000Y-114810000D01*
X218650000Y-115410000D02*
X226970000Y-107090000D01*
X241447500Y-106332500D02*
X241447500Y-105820000D01*
X226970000Y-107090000D02*
X240690000Y-107090000D01*
X203260000Y-114810000D02*
X203860000Y-115410000D01*
D32*
G04 #@! TO.N,VIN*
X193610000Y-101700000D02*
X193270000Y-102040000D01*
X206435000Y-105225000D02*
X202910000Y-101700000D01*
X219800000Y-108830000D02*
X219800000Y-107230000D01*
X218760000Y-106190000D02*
X210681472Y-106190000D01*
X219800000Y-107230000D02*
X218760000Y-106190000D01*
X202910000Y-101700000D02*
X193610000Y-101700000D01*
D34*
X220010000Y-112490000D02*
X223520000Y-108980000D01*
D32*
X210681472Y-106190000D02*
X209716472Y-105225000D01*
X209716472Y-105225000D02*
X206435000Y-105225000D01*
D34*
X216520000Y-112490000D02*
X220010000Y-112490000D01*
D32*
G04 #@! TO.N,USB_5V0*
X210432944Y-106790000D02*
X209467944Y-105825000D01*
D34*
X219757500Y-110342500D02*
X219887500Y-110342500D01*
D32*
X209467944Y-105825000D02*
X203795000Y-105825000D01*
X202290000Y-107330000D02*
X202290000Y-107660000D01*
D34*
X226460000Y-106050000D02*
X239342500Y-106050000D01*
D32*
X202870000Y-103960000D02*
X203795000Y-104885000D01*
D34*
X222590000Y-107640000D02*
X224870000Y-107640000D01*
X219887500Y-110342500D02*
X222590000Y-107640000D01*
X239342500Y-106050000D02*
X239572500Y-105820000D01*
D32*
X203795000Y-104885000D02*
X203795000Y-105825000D01*
D34*
X224870000Y-107640000D02*
X226460000Y-106050000D01*
D32*
X219757500Y-110342500D02*
X219757500Y-110227500D01*
X203795000Y-105825000D02*
X202290000Y-107330000D01*
X216320000Y-106790000D02*
X210432944Y-106790000D01*
X219757500Y-110227500D02*
X216320000Y-106790000D01*
D34*
G04 #@! TO.N,BAT_SENSE_IO21*
X233080000Y-95690000D02*
X232660000Y-95270000D01*
X229189948Y-98540000D02*
X230970000Y-98540000D01*
X232660000Y-95270000D02*
X231561179Y-95270000D01*
X224150000Y-106400000D02*
X224150000Y-103579948D01*
X233080000Y-96430000D02*
X233080000Y-95690000D01*
X224150000Y-103579948D02*
X229189948Y-98540000D01*
X231561179Y-95270000D02*
X231410000Y-95118821D01*
X230970000Y-98540000D02*
X233080000Y-96430000D01*
G04 #@! TO.N,Net-(J1-CC1)*
X200890000Y-94530000D02*
X200890000Y-97040000D01*
X200890000Y-97040000D02*
X200940000Y-97090000D01*
G04 #@! TO.N,Net-(LED1-RA)*
X240620000Y-82840000D02*
X241870000Y-82840000D01*
X241870000Y-82840000D02*
X242110000Y-83080000D01*
D32*
G04 #@! TO.N,USB_5V0F*
X199510000Y-98410000D02*
X201330000Y-100230000D01*
X202690000Y-100900500D02*
X202690000Y-100840000D01*
X209965000Y-104625000D02*
X210930000Y-105590000D01*
X206683528Y-104625000D02*
X209965000Y-104625000D01*
X202690000Y-100840000D02*
X202080000Y-100230000D01*
X215090000Y-105590000D02*
X215350000Y-105330000D01*
X202690000Y-100900500D02*
X202959028Y-100900500D01*
X202959028Y-100900500D02*
X206683528Y-104625000D01*
X199510000Y-94490000D02*
X199510000Y-98410000D01*
X210930000Y-105590000D02*
X215090000Y-105590000D01*
X200860000Y-93140000D02*
X199510000Y-94490000D01*
X202080000Y-100230000D02*
X201330000Y-100230000D01*
D34*
G04 #@! TO.N,LED_G_IO02*
X241674974Y-84220000D02*
X242110000Y-84220000D01*
X233745639Y-92290000D02*
X236710610Y-92290000D01*
X232915639Y-93120000D02*
X233745639Y-92290000D01*
X231745283Y-93625495D02*
X231745283Y-93354717D01*
X231980000Y-93120000D02*
X232915639Y-93120000D01*
X236710610Y-92290000D02*
X238060001Y-90940607D01*
X231745283Y-93354717D02*
X231980000Y-93120000D01*
X238060001Y-90940607D02*
X238060000Y-87834974D01*
X238060000Y-87834974D02*
X241674974Y-84220000D01*
G04 #@! TO.N,LED_R_IO04*
X236565635Y-91940000D02*
X237710000Y-90795633D01*
X232846233Y-92376233D02*
X233282466Y-91940000D01*
X239728522Y-85039254D02*
X239769254Y-85039254D01*
X237710000Y-87690000D02*
X239728522Y-85671478D01*
X237710000Y-90795633D02*
X237710000Y-87690000D01*
X239769254Y-85039254D02*
X239830000Y-85100000D01*
X239728522Y-85671478D02*
X239728522Y-85039254D01*
X233282466Y-91940000D02*
X236565635Y-91940000D01*
G04 #@! TO.N,LED_B_IO05*
X232820000Y-91590000D02*
X236420660Y-91590000D01*
X236420660Y-91590000D02*
X237360000Y-90650659D01*
X238825000Y-84595000D02*
X238390000Y-84160000D01*
X231974505Y-92435495D02*
X232820000Y-91590000D01*
X238825000Y-86075000D02*
X238825000Y-84595000D01*
X237360000Y-87540000D02*
X238825000Y-86075000D01*
X231907173Y-92435495D02*
X231974505Y-92435495D01*
X237360000Y-90650659D02*
X237360000Y-87540000D01*
G04 #@! TO.N,LCD_LED_IO21*
X213810000Y-89740000D02*
X213220000Y-90330000D01*
X213220000Y-90330000D02*
X209660000Y-90330000D01*
X209660000Y-90330000D02*
X209200000Y-90790000D01*
X209200000Y-91872500D02*
X209747500Y-92420000D01*
X209747500Y-92420000D02*
X211095000Y-92420000D01*
X209200000Y-90790000D02*
X209200000Y-91872500D01*
G04 #@! TO.N,LCD_DC_IO17*
X224299974Y-83745000D02*
X209809922Y-83745000D01*
X225560000Y-85980000D02*
X225560000Y-85005026D01*
X225560000Y-85005026D02*
X224299974Y-83745000D01*
X209809922Y-83745000D02*
X208600500Y-84954422D01*
X208600500Y-94150500D02*
X209715000Y-95265000D01*
X209715000Y-95265000D02*
X211100000Y-95265000D01*
X208600500Y-84954422D02*
X208600500Y-94150500D01*
G04 #@! TO.N,LCD_I2C_SDA_IO38*
X209430000Y-97390000D02*
X209685000Y-97390000D01*
X213115026Y-101700000D02*
X211175026Y-99760000D01*
X222863252Y-99499307D02*
X222863252Y-99826748D01*
X208890000Y-99204974D02*
X208890000Y-97930000D01*
X208890000Y-97930000D02*
X209430000Y-97390000D01*
X209445026Y-99760000D02*
X208890000Y-99204974D01*
X222863252Y-99826748D02*
X220990000Y-101700000D01*
X211175026Y-99760000D02*
X209445026Y-99760000D01*
X220990000Y-101700000D02*
X213115026Y-101700000D01*
G04 #@! TO.N,LCD_RST_IO37*
X209240000Y-99060000D02*
X209240000Y-98350000D01*
X221780000Y-100120000D02*
X220550000Y-101350000D01*
X213260000Y-101350000D02*
X211280000Y-99370000D01*
X220550000Y-101350000D02*
X213260000Y-101350000D01*
X222444500Y-98620000D02*
X221780000Y-99284500D01*
X209485000Y-98105000D02*
X211100000Y-98105000D01*
X221780000Y-99284500D02*
X221780000Y-100120000D01*
X209240000Y-98350000D02*
X209485000Y-98105000D01*
X209550000Y-99370000D02*
X209240000Y-99060000D01*
X211280000Y-99370000D02*
X209550000Y-99370000D01*
G04 #@! TO.N,LCD_CS_IO13*
X227790000Y-89162512D02*
X227502489Y-89450023D01*
X211100000Y-95975000D02*
X209705000Y-95975000D01*
X209705000Y-95975000D02*
X208250500Y-94520500D01*
X209664948Y-83395000D02*
X224444948Y-83395000D01*
X226293118Y-85243170D02*
X226293118Y-86926888D01*
X208250500Y-94520500D02*
X208250500Y-84809448D01*
X224444948Y-83395000D02*
X226293118Y-85243170D01*
X227790000Y-88423770D02*
X227790000Y-89162512D01*
X208250500Y-84809448D02*
X209664948Y-83395000D01*
X226293118Y-86926888D02*
X227790000Y-88423770D01*
G04 #@! TO.N,LCD_I2C_SCL_IO12*
X224589922Y-83045000D02*
X209519974Y-83045000D01*
X226643118Y-86781914D02*
X226643118Y-85098196D01*
X228380373Y-89445500D02*
X228380373Y-88519169D01*
X207900500Y-84664474D02*
X207900500Y-94870500D01*
X209715000Y-96685000D02*
X211105000Y-96685000D01*
X226643118Y-85098196D02*
X224589922Y-83045000D01*
X209519974Y-83045000D02*
X207900500Y-84664474D01*
X207900500Y-94870500D02*
X209715000Y-96685000D01*
X228380373Y-88519169D02*
X226643118Y-86781914D01*
G04 #@! TO.N,GNDD*
X227875000Y-80646752D02*
X227875000Y-73905000D01*
X229300000Y-72410000D02*
X229120000Y-72590000D01*
X229120000Y-72590000D02*
X229120000Y-75340000D01*
D35*
X206130000Y-90230000D02*
X206130000Y-89060000D01*
D34*
X222490000Y-76540000D02*
X222240000Y-76540000D01*
X218330000Y-85430000D02*
X218960000Y-86060000D01*
D35*
X224740000Y-82060000D02*
X226220000Y-83540000D01*
D34*
X229120000Y-75340000D02*
X228880000Y-75580000D01*
X227654071Y-90594071D02*
X229365929Y-90594071D01*
D35*
X207125500Y-88064500D02*
X207125500Y-84343459D01*
D34*
X231520000Y-72410000D02*
X231520000Y-73000000D01*
X226980000Y-73010000D02*
X224140052Y-73010000D01*
D35*
X206970000Y-91070000D02*
X206130000Y-90230000D01*
X226220000Y-83540000D02*
X230260000Y-83540000D01*
X209408959Y-82060000D02*
X224740000Y-82060000D01*
D34*
X229365929Y-90594071D02*
X230610000Y-89350000D01*
X207550500Y-95015475D02*
X208540000Y-96004974D01*
X227875000Y-73905000D02*
X226980000Y-73010000D01*
X232510000Y-72410000D02*
X229300000Y-72410000D01*
D35*
X206130000Y-89060000D02*
X207125500Y-88064500D01*
D34*
X230610000Y-89350000D02*
X230610000Y-83890000D01*
X228880000Y-77130000D02*
X229140000Y-77390000D01*
X208540000Y-99610000D02*
X209380000Y-100450000D01*
D35*
X207125500Y-84343459D02*
X209408959Y-82060000D01*
D34*
X230570000Y-77390000D02*
X229520000Y-77390000D01*
X223120000Y-86060000D02*
X227654071Y-90594071D01*
X229140000Y-77390000D02*
X229520000Y-77390000D01*
X230570000Y-77390000D02*
X231610000Y-76350000D01*
X222880000Y-76150000D02*
X222490000Y-76540000D01*
X206970000Y-91070000D02*
X207550500Y-91650500D01*
X234110000Y-82430000D02*
X233810000Y-82130000D01*
X207550500Y-91650500D02*
X207550500Y-95015475D01*
X222880000Y-74270052D02*
X222880000Y-76150000D01*
X224140052Y-73010000D02*
X222880000Y-74270052D01*
X230610000Y-83890000D02*
X230260000Y-83540000D01*
X208540000Y-96004974D02*
X208540000Y-99610000D01*
X218960000Y-86060000D02*
X223120000Y-86060000D01*
X228880000Y-75580000D02*
X228880000Y-77130000D01*
X233810000Y-82130000D02*
X229358248Y-82130000D01*
X229358248Y-82130000D02*
X227875000Y-80646752D01*
X229120000Y-74600000D02*
X229570000Y-74600000D01*
X230220000Y-73000000D02*
X230220000Y-72440000D01*
X214020000Y-85430000D02*
X218330000Y-85430000D01*
G04 #@! TO.N,PERIPHERALS_PWR_EN_IO10*
X207550500Y-84519499D02*
X209375000Y-82695000D01*
X224755000Y-82695000D02*
X226993118Y-84933118D01*
X226993118Y-84933118D02*
X226993118Y-86603118D01*
X207550500Y-89179500D02*
X207550500Y-84519499D01*
X206970000Y-89760000D02*
X207550500Y-89179500D01*
X229090000Y-88700000D02*
X229090000Y-89900000D01*
X226993118Y-86603118D02*
X229090000Y-88700000D01*
X209375000Y-82695000D02*
X224755000Y-82695000D01*
G04 #@! TO.N,unconnected-(IC_ENS1-INT-Pad6)*
X230765000Y-78440000D02*
X230765000Y-78560000D01*
G04 #@! TO.N,INA237_ALRT_IO33*
X216610000Y-89870000D02*
X214790000Y-88050000D01*
X221110000Y-95690000D02*
X221710000Y-95090000D01*
X210400000Y-88050000D02*
X210370000Y-88080000D01*
X221110000Y-95750000D02*
X221110000Y-95690000D01*
X221710000Y-92213173D02*
X222350000Y-91573173D01*
X222350000Y-90580000D02*
X221640000Y-89870000D01*
X221640000Y-89870000D02*
X216610000Y-89870000D01*
X221710000Y-95090000D02*
X221710000Y-92213173D01*
X214790000Y-88050000D02*
X210400000Y-88050000D01*
X222350000Y-91573173D02*
X222350000Y-90580000D01*
G04 #@! TO.N,TEMT6000_IO35*
X242160000Y-82180000D02*
X236161752Y-82180000D01*
X223840000Y-98910000D02*
X223840000Y-100190000D01*
X221630000Y-102400000D02*
X210590000Y-102400000D01*
X223840000Y-100190000D02*
X221630000Y-102400000D01*
X242520000Y-84580000D02*
X242520000Y-82540000D01*
X237170000Y-92325581D02*
X238410000Y-91085581D01*
X212130000Y-104890000D02*
X212520000Y-104500000D01*
X237170000Y-104400000D02*
X237170000Y-92325581D01*
X235870000Y-105700000D02*
X237170000Y-104400000D01*
X221340000Y-96410000D02*
X223840000Y-98910000D01*
X210590000Y-102400000D02*
X210210000Y-102020000D01*
X242520000Y-82540000D02*
X242160000Y-82180000D01*
X241469948Y-84920000D02*
X242180000Y-84920000D01*
X223230000Y-107260000D02*
X224755026Y-107260000D01*
X242180000Y-84920000D02*
X242520000Y-84580000D01*
X226315026Y-105700000D02*
X235870000Y-105700000D01*
X220290000Y-96410000D02*
X221340000Y-96410000D01*
X236161752Y-82180000D02*
X234540000Y-80558248D01*
X220470000Y-104500000D02*
X223230000Y-107260000D01*
X238410000Y-91085581D02*
X238410000Y-87979948D01*
X234540000Y-80558248D02*
X234540000Y-78130000D01*
X212520000Y-104500000D02*
X220470000Y-104500000D01*
X224755026Y-107260000D02*
X226315026Y-105700000D01*
X238410000Y-87979948D02*
X241469948Y-84920000D01*
G04 #@! TD*
G04 #@! TA.AperFunction,Conductor*
G04 #@! TO.N,GNDD*
G36*
X220068615Y-81694185D02*
G01*
X220083803Y-81705684D01*
X220125471Y-81742599D01*
X220125472Y-81742599D01*
X220125475Y-81742602D01*
X220131645Y-81746861D01*
X220129815Y-81749510D01*
X220169567Y-81787977D01*
X220185714Y-81847494D01*
X220191060Y-82239810D01*
X220172291Y-82307112D01*
X220120116Y-82353582D01*
X220067072Y-82365500D01*
X209392094Y-82365500D01*
X209386690Y-82365264D01*
X209380564Y-82364728D01*
X209345838Y-82361689D01*
X209306232Y-82372302D01*
X209300952Y-82373473D01*
X209260568Y-82380594D01*
X209256057Y-82382235D01*
X209237923Y-82389748D01*
X209233598Y-82391765D01*
X209199999Y-82415290D01*
X209195439Y-82418195D01*
X209159938Y-82438692D01*
X209159935Y-82438694D01*
X209159934Y-82438695D01*
X209159932Y-82438696D01*
X209159930Y-82438699D01*
X209133580Y-82470101D01*
X209129925Y-82474090D01*
X207329595Y-84274419D01*
X207325606Y-84278075D01*
X207294195Y-84304432D01*
X207294193Y-84304434D01*
X207273691Y-84339944D01*
X207270786Y-84344505D01*
X207247263Y-84378100D01*
X207245248Y-84382421D01*
X207237735Y-84400556D01*
X207236094Y-84405067D01*
X207228973Y-84445451D01*
X207227802Y-84450731D01*
X207217189Y-84490338D01*
X207220764Y-84531184D01*
X207221000Y-84536591D01*
X207221000Y-88991653D01*
X207201315Y-89058692D01*
X207184681Y-89079335D01*
X207095685Y-89168330D01*
X207034361Y-89201814D01*
X206991820Y-89203587D01*
X206970003Y-89200715D01*
X206969999Y-89200715D01*
X206825247Y-89219771D01*
X206825245Y-89219772D01*
X206690361Y-89275643D01*
X206690358Y-89275644D01*
X206690358Y-89275645D01*
X206600591Y-89344526D01*
X206574526Y-89364526D01*
X206485643Y-89480361D01*
X206429772Y-89615245D01*
X206429771Y-89615247D01*
X206410715Y-89759998D01*
X206410715Y-89760001D01*
X206429771Y-89904752D01*
X206429773Y-89904757D01*
X206485642Y-90039638D01*
X206485645Y-90039644D01*
X206574525Y-90155473D01*
X206574526Y-90155474D01*
X206690355Y-90244354D01*
X206690361Y-90244357D01*
X206757801Y-90272291D01*
X206825246Y-90300228D01*
X206850100Y-90303500D01*
X206969999Y-90319285D01*
X206970000Y-90319285D01*
X206970001Y-90319285D01*
X207018251Y-90312932D01*
X207114754Y-90300228D01*
X207249643Y-90244355D01*
X207365474Y-90155474D01*
X207365474Y-90155473D01*
X207371513Y-90150840D01*
X207436682Y-90125645D01*
X207505127Y-90139683D01*
X207555117Y-90188497D01*
X207571000Y-90249215D01*
X207571000Y-92630253D01*
X207551315Y-92697292D01*
X207498511Y-92743047D01*
X207449263Y-92754232D01*
X203665763Y-92823302D01*
X203598376Y-92804845D01*
X203551665Y-92752885D01*
X203539500Y-92699323D01*
X203539500Y-91601606D01*
X203542139Y-91576161D01*
X203542913Y-91572468D01*
X203544418Y-91565291D01*
X203541161Y-91539161D01*
X203539977Y-91529657D01*
X203539500Y-91521980D01*
X203539500Y-91517950D01*
X203539499Y-91517941D01*
X203535614Y-91494666D01*
X203535614Y-91494665D01*
X203528752Y-91439608D01*
X203528751Y-91439605D01*
X203526486Y-91431995D01*
X203523901Y-91424466D01*
X203497502Y-91375685D01*
X203473126Y-91325823D01*
X203468541Y-91319400D01*
X203463620Y-91313077D01*
X203463619Y-91313075D01*
X203422813Y-91275510D01*
X199730626Y-87583322D01*
X199697141Y-87522000D01*
X199694361Y-87491975D01*
X199806029Y-83724824D01*
X199827692Y-83658399D01*
X199881828Y-83614229D01*
X199929975Y-83604500D01*
X206944063Y-83604500D01*
X206944066Y-83604500D01*
X206965439Y-83597555D01*
X206984356Y-83593013D01*
X207006555Y-83589498D01*
X207026578Y-83579294D01*
X207044548Y-83571851D01*
X207065929Y-83564905D01*
X207084116Y-83551689D01*
X207100694Y-83541530D01*
X207120723Y-83531326D01*
X207136440Y-83515608D01*
X207136447Y-83515603D01*
X207401230Y-83250819D01*
X207462553Y-83217334D01*
X207488911Y-83214500D01*
X207599472Y-83214500D01*
X207650911Y-83201821D01*
X207753793Y-83176463D01*
X207894529Y-83102599D01*
X208013498Y-82997201D01*
X208103787Y-82866395D01*
X208160149Y-82717782D01*
X208179307Y-82560000D01*
X208177136Y-82542124D01*
X208188595Y-82473203D01*
X208212548Y-82439500D01*
X208941230Y-81710819D01*
X209002554Y-81677334D01*
X209028912Y-81674500D01*
X220001576Y-81674500D01*
X220068615Y-81694185D01*
G37*
G04 #@! TD.AperFunction*
G04 #@! TA.AperFunction,Conductor*
G36*
X220038162Y-79959518D02*
G01*
X220105122Y-79979467D01*
X220150668Y-80032452D01*
X220161659Y-80081828D01*
X220168201Y-80562037D01*
X220149432Y-80629338D01*
X220126441Y-80656541D01*
X220006502Y-80762798D01*
X220006497Y-80762804D01*
X219972583Y-80811939D01*
X219918301Y-80855930D01*
X219870533Y-80865500D01*
X208745931Y-80865500D01*
X208724557Y-80872445D01*
X208705647Y-80876985D01*
X208683444Y-80880502D01*
X208683439Y-80880504D01*
X208663413Y-80890707D01*
X208645448Y-80898149D01*
X208624071Y-80905095D01*
X208624070Y-80905096D01*
X208605883Y-80918309D01*
X208589302Y-80928470D01*
X208569274Y-80938675D01*
X208569273Y-80938676D01*
X208546485Y-80961465D01*
X207638768Y-81869181D01*
X207577445Y-81902666D01*
X207551087Y-81905500D01*
X207440528Y-81905500D01*
X207286208Y-81943536D01*
X207145469Y-82017401D01*
X207026506Y-82122794D01*
X207026500Y-82122801D01*
X206936214Y-82253602D01*
X206879850Y-82402218D01*
X206860693Y-82559999D01*
X206860693Y-82560000D01*
X206862863Y-82577874D01*
X206851402Y-82646797D01*
X206827449Y-82680500D01*
X206748769Y-82759181D01*
X206687446Y-82792666D01*
X206661087Y-82795500D01*
X200101607Y-82795500D01*
X200034568Y-82775815D01*
X199988813Y-82723011D01*
X199978511Y-82656552D01*
X199979307Y-82650000D01*
X199960149Y-82492218D01*
X199903787Y-82343605D01*
X199872409Y-82298147D01*
X199850528Y-82231796D01*
X199850515Y-82224091D01*
X199906732Y-80327593D01*
X199928394Y-80261170D01*
X199982530Y-80217000D01*
X200030408Y-80207272D01*
X203775943Y-80199320D01*
X204931995Y-80196866D01*
X205095204Y-80198408D01*
X205102097Y-80198474D01*
X205102097Y-80198473D01*
X205102099Y-80198474D01*
X205309137Y-80178621D01*
X205312141Y-80178408D01*
X205389767Y-80174781D01*
X205407036Y-80169234D01*
X205449650Y-80165148D01*
X205449653Y-80165147D01*
X205449656Y-80165147D01*
X205502877Y-80154304D01*
X205687882Y-80116617D01*
X205751342Y-80106403D01*
X205762625Y-80101390D01*
X205791769Y-80095454D01*
X206064619Y-80009153D01*
X206103367Y-79998327D01*
X206108794Y-79995182D01*
X206124651Y-79990166D01*
X206124652Y-79990165D01*
X206124660Y-79990163D01*
X206295065Y-79915753D01*
X206345165Y-79905395D01*
X220038162Y-79959518D01*
G37*
G04 #@! TD.AperFunction*
G04 #@! TD*
G04 #@! TA.AperFunction,Conductor*
G04 #@! TO.N,GND*
G36*
X239710497Y-87247945D02*
G01*
X239766431Y-87289817D01*
X239790848Y-87355281D01*
X239791164Y-87363809D01*
X239819999Y-98599999D01*
X239819999Y-98599998D01*
X239820000Y-98600000D01*
X240645920Y-98596113D01*
X240713048Y-98615481D01*
X240759051Y-98668069D01*
X240770500Y-98720110D01*
X240770501Y-98912731D01*
X240750817Y-98979771D01*
X240698013Y-99025526D01*
X240647056Y-99036611D01*
X240646936Y-99036732D01*
X240646936Y-101150000D01*
X242450000Y-101150000D01*
X242450000Y-99036732D01*
X242448545Y-99035277D01*
X242386461Y-99017047D01*
X242340706Y-98964243D01*
X242329500Y-98912733D01*
X242329499Y-98711609D01*
X242349183Y-98644569D01*
X242401987Y-98598814D01*
X242452912Y-98587609D01*
X243791201Y-98581311D01*
X243858331Y-98600680D01*
X243904334Y-98653268D01*
X243915783Y-98705302D01*
X243916099Y-103837189D01*
X243896419Y-103904230D01*
X243843617Y-103949988D01*
X243792616Y-103961196D01*
X237624017Y-103986899D01*
X237556896Y-103967494D01*
X237510921Y-103914881D01*
X237499500Y-103862900D01*
X237499500Y-92513425D01*
X237519185Y-92446386D01*
X237535814Y-92425749D01*
X238630917Y-91330646D01*
X238634879Y-91327015D01*
X238666305Y-91300647D01*
X238686813Y-91265124D01*
X238689693Y-91260602D01*
X238713235Y-91226982D01*
X238713236Y-91226974D01*
X238715277Y-91222599D01*
X238722755Y-91204548D01*
X238724404Y-91200018D01*
X238724405Y-91200015D01*
X238731528Y-91159613D01*
X238732690Y-91154371D01*
X238743310Y-91114741D01*
X238739735Y-91073887D01*
X238739500Y-91068484D01*
X238739500Y-88167792D01*
X238759185Y-88100753D01*
X238775814Y-88080116D01*
X239579487Y-87276443D01*
X239640806Y-87242961D01*
X239710497Y-87247945D01*
G37*
G04 #@! TD.AperFunction*
G04 #@! TA.AperFunction,Conductor*
G36*
X237537891Y-83469185D02*
G01*
X237582253Y-83519041D01*
X237596352Y-83547882D01*
X237594624Y-83548726D01*
X237613380Y-83602691D01*
X237600929Y-83663211D01*
X237546241Y-83775076D01*
X237535500Y-83848801D01*
X237535500Y-84471198D01*
X237546241Y-84544924D01*
X237601839Y-84658651D01*
X237691348Y-84748160D01*
X237805075Y-84803758D01*
X237878801Y-84814500D01*
X237878802Y-84814500D01*
X238371500Y-84814500D01*
X238438539Y-84834185D01*
X238484294Y-84886989D01*
X238495500Y-84938500D01*
X238495500Y-85887153D01*
X238475815Y-85954192D01*
X238459181Y-85974834D01*
X237142885Y-87291129D01*
X237081562Y-87324614D01*
X237011870Y-87319630D01*
X236955937Y-87277758D01*
X236931520Y-87212294D01*
X236931205Y-87203088D01*
X236939965Y-84331428D01*
X236940000Y-84329955D01*
X236940000Y-84330000D01*
X236957964Y-83570567D01*
X236979229Y-83504012D01*
X237033100Y-83459519D01*
X237081930Y-83449500D01*
X237470852Y-83449500D01*
X237537891Y-83469185D01*
G37*
G04 #@! TD.AperFunction*
G04 #@! TD*
G04 #@! TA.AperFunction,Conductor*
G04 #@! TO.N,GND*
G36*
X199783691Y-107964407D02*
G01*
X199819655Y-108013907D01*
X199824500Y-108044500D01*
X199824500Y-109493115D01*
X199822598Y-109512427D01*
X199819103Y-109529999D01*
X199819103Y-109530002D01*
X199823311Y-109551162D01*
X199823316Y-109551182D01*
X199824500Y-109557132D01*
X199824500Y-109557133D01*
X199840485Y-109637495D01*
X199840486Y-109637496D01*
X199840486Y-109637498D01*
X199901375Y-109728623D01*
X199901376Y-109728624D01*
X199916267Y-109738574D01*
X199931269Y-109750885D01*
X201069115Y-110888731D01*
X201081426Y-110903733D01*
X201091376Y-110918624D01*
X201091379Y-110918626D01*
X201091380Y-110918627D01*
X201110329Y-110931288D01*
X201110335Y-110931293D01*
X201114378Y-110933994D01*
X201140534Y-110951471D01*
X201182505Y-110979515D01*
X201262867Y-110995500D01*
X201262868Y-110995500D01*
X201290000Y-111000897D01*
X201307570Y-110997401D01*
X201326884Y-110995500D01*
X205086948Y-110995500D01*
X205145139Y-111014407D01*
X205181103Y-111063907D01*
X205185946Y-111093914D01*
X205200669Y-113579662D01*
X205182107Y-113637963D01*
X205132821Y-113674220D01*
X205071637Y-113674582D01*
X205063786Y-113671712D01*
X204926767Y-113614957D01*
X204926758Y-113614955D01*
X204770001Y-113594318D01*
X204769999Y-113594318D01*
X204613241Y-113614955D01*
X204613233Y-113614957D01*
X204467161Y-113675462D01*
X204467160Y-113675462D01*
X204341723Y-113771713D01*
X204341713Y-113771723D01*
X204245462Y-113897160D01*
X204245462Y-113897161D01*
X204184957Y-114043233D01*
X204184955Y-114043241D01*
X204164318Y-114199999D01*
X204164318Y-114200000D01*
X204184955Y-114356758D01*
X204184957Y-114356766D01*
X204245462Y-114502838D01*
X204245462Y-114502839D01*
X204289506Y-114560238D01*
X204341718Y-114628282D01*
X204467159Y-114724536D01*
X204467160Y-114724536D01*
X204467161Y-114724537D01*
X204584439Y-114773115D01*
X204613238Y-114785044D01*
X204732675Y-114800768D01*
X204787900Y-114827109D01*
X204817095Y-114880880D01*
X204809109Y-114941542D01*
X204783059Y-114975035D01*
X204772695Y-114983655D01*
X204756648Y-114994532D01*
X204696175Y-115027383D01*
X204601639Y-115078736D01*
X204583775Y-115086278D01*
X204485627Y-115116793D01*
X204443030Y-115130036D01*
X204413640Y-115134500D01*
X204015123Y-115134500D01*
X203956932Y-115115593D01*
X203945119Y-115105503D01*
X203564496Y-114724879D01*
X203536719Y-114670363D01*
X203535500Y-114654876D01*
X203535500Y-113491951D01*
X203554407Y-113433760D01*
X203580978Y-113408666D01*
X203582123Y-113407929D01*
X203591128Y-113402143D01*
X203685377Y-113293373D01*
X203745165Y-113162457D01*
X203765647Y-113020000D01*
X203745165Y-112877543D01*
X203685377Y-112746627D01*
X203591128Y-112637857D01*
X203591127Y-112637856D01*
X203591126Y-112637855D01*
X203470057Y-112560049D01*
X203470054Y-112560047D01*
X203470053Y-112560047D01*
X203470050Y-112560046D01*
X203331964Y-112519500D01*
X203331961Y-112519500D01*
X203188039Y-112519500D01*
X203188035Y-112519500D01*
X203049949Y-112560046D01*
X203049942Y-112560049D01*
X202928873Y-112637855D01*
X202834622Y-112746628D01*
X202774834Y-112877543D01*
X202754353Y-113019997D01*
X202754353Y-113020002D01*
X202774834Y-113162456D01*
X202834622Y-113293372D01*
X202834623Y-113293373D01*
X202928872Y-113402143D01*
X202936963Y-113407343D01*
X202939022Y-113408666D01*
X202977754Y-113456032D01*
X202984500Y-113491951D01*
X202984500Y-114773115D01*
X202982598Y-114792427D01*
X202979103Y-114809999D01*
X202979103Y-114810002D01*
X202983311Y-114831162D01*
X202983316Y-114831182D01*
X202984500Y-114837132D01*
X202984500Y-114837133D01*
X203000485Y-114917495D01*
X203000486Y-114917496D01*
X203000486Y-114917498D01*
X203066793Y-115016731D01*
X203063353Y-115019029D01*
X203082374Y-115056361D01*
X203072803Y-115116793D01*
X203029538Y-115160058D01*
X202985298Y-115170845D01*
X200256676Y-115190281D01*
X200251775Y-115190073D01*
X200067034Y-115173039D01*
X200047806Y-115169321D01*
X199877112Y-115118367D01*
X199858994Y-115110937D01*
X199701672Y-115027383D01*
X199685369Y-115016531D01*
X199547572Y-114903642D01*
X199533725Y-114889794D01*
X199420848Y-114751992D01*
X199409997Y-114735689D01*
X199326451Y-114578358D01*
X199319023Y-114560238D01*
X199268080Y-114389539D01*
X199264364Y-114370318D01*
X199247806Y-114190608D01*
X199247599Y-114185730D01*
X199261862Y-112202010D01*
X199261976Y-112190014D01*
X199261977Y-112190014D01*
X199263625Y-112015447D01*
X199230293Y-111667892D01*
X199230291Y-111667881D01*
X199160596Y-111325783D01*
X199160594Y-111325778D01*
X199160593Y-111325771D01*
X199055296Y-110992878D01*
X198915572Y-110672905D01*
X198742968Y-110369403D01*
X198539402Y-110085738D01*
X198423825Y-109956025D01*
X198315951Y-109834957D01*
X198310204Y-107945500D01*
X199725500Y-107945500D01*
X199783691Y-107964407D01*
G37*
G04 #@! TD.AperFunction*
G04 #@! TA.AperFunction,Conductor*
G36*
X201446772Y-104624826D02*
G01*
X201446773Y-104624827D01*
X201446786Y-104624827D01*
X201446787Y-104624828D01*
X202936944Y-104633752D01*
X202995017Y-104653006D01*
X203006352Y-104662745D01*
X203365504Y-105021897D01*
X203393281Y-105076414D01*
X203394500Y-105091901D01*
X203394500Y-105618099D01*
X203375593Y-105676290D01*
X203365504Y-105688103D01*
X201984515Y-107069092D01*
X201961950Y-107091658D01*
X201951978Y-107111228D01*
X201912121Y-107151081D01*
X201912778Y-107152219D01*
X201907159Y-107155462D01*
X201781723Y-107251713D01*
X201781713Y-107251723D01*
X201685462Y-107377160D01*
X201685462Y-107377161D01*
X201624957Y-107523233D01*
X201624955Y-107523241D01*
X201604318Y-107679999D01*
X201604318Y-107680000D01*
X201624955Y-107836758D01*
X201624957Y-107836766D01*
X201685462Y-107982838D01*
X201685462Y-107982839D01*
X201732776Y-108044500D01*
X201781718Y-108108282D01*
X201907159Y-108204536D01*
X202053238Y-108265044D01*
X202170809Y-108280522D01*
X202209999Y-108285682D01*
X202210000Y-108285682D01*
X202210001Y-108285682D01*
X202241352Y-108281554D01*
X202366762Y-108265044D01*
X202512841Y-108204536D01*
X202638282Y-108108282D01*
X202734536Y-107982841D01*
X202795044Y-107836762D01*
X202815682Y-107680000D01*
X202814365Y-107670000D01*
X202810522Y-107640809D01*
X202795044Y-107523238D01*
X202781728Y-107491092D01*
X202776927Y-107430098D01*
X202803186Y-107383205D01*
X203931896Y-106254495D01*
X203986413Y-106226719D01*
X204001900Y-106225500D01*
X205058695Y-106225500D01*
X205116886Y-106244407D01*
X205152850Y-106293907D01*
X205157691Y-106323907D01*
X205165725Y-107679999D01*
X205181509Y-110344914D01*
X205162947Y-110403215D01*
X205113661Y-110439472D01*
X205082511Y-110444500D01*
X201445124Y-110444500D01*
X201386933Y-110425593D01*
X201375120Y-110415504D01*
X200404496Y-109444880D01*
X200376719Y-109390363D01*
X200375500Y-109374876D01*
X200375500Y-107706883D01*
X200377402Y-107687569D01*
X200380897Y-107670000D01*
X200377402Y-107652427D01*
X200375500Y-107633115D01*
X200375500Y-105761951D01*
X200394407Y-105703760D01*
X200420978Y-105678666D01*
X200422123Y-105677929D01*
X200431128Y-105672143D01*
X200525377Y-105563373D01*
X200585165Y-105432457D01*
X200605647Y-105290000D01*
X200585165Y-105147543D01*
X200525377Y-105016627D01*
X200431128Y-104907857D01*
X200431127Y-104907856D01*
X200431126Y-104907855D01*
X200310057Y-104830049D01*
X200310054Y-104830047D01*
X200310053Y-104830047D01*
X200310050Y-104830046D01*
X200171964Y-104789500D01*
X200171961Y-104789500D01*
X200028039Y-104789500D01*
X200028035Y-104789500D01*
X199889949Y-104830046D01*
X199889942Y-104830049D01*
X199768873Y-104907855D01*
X199674622Y-105016628D01*
X199614834Y-105147543D01*
X199594353Y-105289997D01*
X199594353Y-105290002D01*
X199614834Y-105432456D01*
X199674623Y-105563373D01*
X199768873Y-105672144D01*
X199779024Y-105678668D01*
X199817754Y-105726034D01*
X199824499Y-105761951D01*
X199824500Y-107295500D01*
X199805593Y-107353691D01*
X199756093Y-107389655D01*
X199725500Y-107394500D01*
X198308528Y-107394500D01*
X198300045Y-104605982D01*
X201446772Y-104624826D01*
G37*
G04 #@! TD.AperFunction*
G04 #@! TD*
G04 #@! TA.AperFunction,Conductor*
G04 #@! TO.N,GND*
G36*
X193313836Y-100219177D02*
G01*
X193368289Y-100232560D01*
X193510189Y-100303824D01*
X193681812Y-100344500D01*
X193681814Y-100344500D01*
X194413944Y-100344500D01*
X194512373Y-100332995D01*
X194545184Y-100329160D01*
X194710924Y-100268836D01*
X194717772Y-100264331D01*
X194785672Y-100243607D01*
X194789002Y-100243616D01*
X197377901Y-100286507D01*
X197432360Y-100299893D01*
X197440180Y-100303820D01*
X197440185Y-100303822D01*
X197440189Y-100303824D01*
X197611812Y-100344500D01*
X197611814Y-100344500D01*
X198843944Y-100344500D01*
X198942373Y-100332995D01*
X198975184Y-100329160D01*
X198995836Y-100321643D01*
X199041011Y-100314061D01*
X200313168Y-100335137D01*
X200380948Y-100356265D01*
X200426546Y-100410684D01*
X200437079Y-100460496D01*
X200440342Y-101118876D01*
X200420678Y-101187095D01*
X200367254Y-101233853D01*
X200314344Y-101245500D01*
X193639082Y-101245500D01*
X193632024Y-101245104D01*
X193592814Y-101240686D01*
X193592813Y-101240686D01*
X193592812Y-101240686D01*
X193592811Y-101240686D01*
X193548580Y-101249055D01*
X193533836Y-101251845D01*
X193514064Y-101254825D01*
X193474519Y-101260786D01*
X193466338Y-101263309D01*
X193458191Y-101266159D01*
X193405137Y-101294199D01*
X193351079Y-101320232D01*
X193343974Y-101325076D01*
X193337060Y-101330178D01*
X193318642Y-101348597D01*
X193256329Y-101382621D01*
X193229548Y-101385500D01*
X193190527Y-101385500D01*
X193036209Y-101423536D01*
X193036202Y-101423539D01*
X192895474Y-101497398D01*
X192895469Y-101497402D01*
X192776501Y-101602800D01*
X192686215Y-101733601D01*
X192686212Y-101733607D01*
X192629849Y-101882220D01*
X192610693Y-102039996D01*
X192610693Y-102040003D01*
X192629849Y-102197779D01*
X192660985Y-102279876D01*
X192686213Y-102346395D01*
X192776502Y-102477201D01*
X192895471Y-102582599D01*
X192895472Y-102582599D01*
X192895474Y-102582601D01*
X192970200Y-102621820D01*
X193036207Y-102656463D01*
X193190529Y-102694500D01*
X193190530Y-102694500D01*
X193349470Y-102694500D01*
X193349471Y-102694500D01*
X193503793Y-102656463D01*
X193644529Y-102582599D01*
X193763498Y-102477201D01*
X193853787Y-102346395D01*
X193895723Y-102235818D01*
X193938582Y-102179218D01*
X194005237Y-102154774D01*
X194013535Y-102154500D01*
X200320099Y-102154500D01*
X200388220Y-102174502D01*
X200434713Y-102228158D01*
X200446097Y-102279876D01*
X200457838Y-104648839D01*
X200438174Y-104717058D01*
X200384750Y-104763816D01*
X200314527Y-104774268D01*
X200283624Y-104765872D01*
X200244754Y-104749772D01*
X200244752Y-104749771D01*
X200100000Y-104730715D01*
X199955247Y-104749771D01*
X199896108Y-104774268D01*
X199820358Y-104805645D01*
X199820357Y-104805646D01*
X199820356Y-104805646D01*
X199704526Y-104894526D01*
X199615646Y-105010356D01*
X199615645Y-105010358D01*
X199587708Y-105077801D01*
X199559771Y-105145247D01*
X199540715Y-105289999D01*
X199540715Y-105290000D01*
X199559771Y-105434752D01*
X199615644Y-105569641D01*
X199615649Y-105569649D01*
X199704523Y-105685471D01*
X199704524Y-105685472D01*
X199704526Y-105685474D01*
X199721203Y-105698270D01*
X199763070Y-105755605D01*
X199770500Y-105798233D01*
X199770500Y-107214500D01*
X199750498Y-107282621D01*
X199696842Y-107329114D01*
X199644500Y-107340500D01*
X193473969Y-107340500D01*
X193405848Y-107320498D01*
X193370274Y-107286077D01*
X193333499Y-107232801D01*
X193333498Y-107232799D01*
X193214529Y-107127401D01*
X193214528Y-107127400D01*
X193214525Y-107127398D01*
X193073797Y-107053539D01*
X193073795Y-107053538D01*
X193073793Y-107053537D01*
X193073791Y-107053536D01*
X193073790Y-107053536D01*
X192919472Y-107015500D01*
X192919471Y-107015500D01*
X192760529Y-107015500D01*
X192760527Y-107015500D01*
X192606209Y-107053536D01*
X192606202Y-107053539D01*
X192465474Y-107127398D01*
X192465469Y-107127402D01*
X192346501Y-107232800D01*
X192256215Y-107363601D01*
X192256212Y-107363607D01*
X192199849Y-107512220D01*
X192180693Y-107669996D01*
X192180693Y-107670003D01*
X192199849Y-107827779D01*
X192200140Y-107828545D01*
X192256213Y-107976395D01*
X192346502Y-108107201D01*
X192465471Y-108212599D01*
X192465472Y-108212599D01*
X192465474Y-108212601D01*
X192532162Y-108247601D01*
X192606207Y-108286463D01*
X192760529Y-108324500D01*
X192760530Y-108324500D01*
X192919470Y-108324500D01*
X192919471Y-108324500D01*
X193073793Y-108286463D01*
X193214529Y-108212599D01*
X193333498Y-108107201D01*
X193333500Y-108107198D01*
X193370274Y-108053923D01*
X193425432Y-108009224D01*
X193473969Y-107999500D01*
X199644500Y-107999500D01*
X199712621Y-108019502D01*
X199759114Y-108073158D01*
X199770500Y-108125500D01*
X199770500Y-109512867D01*
X199770260Y-109518360D01*
X199766690Y-109559158D01*
X199766690Y-109559165D01*
X199777290Y-109598725D01*
X199778480Y-109604091D01*
X199785593Y-109644430D01*
X199787498Y-109649664D01*
X199794416Y-109666367D01*
X199796762Y-109671397D01*
X199820258Y-109704952D01*
X199823212Y-109709589D01*
X199843696Y-109745067D01*
X199875073Y-109771395D01*
X199879116Y-109775099D01*
X200189755Y-110085738D01*
X200486258Y-110382241D01*
X200491748Y-111489748D01*
X199197082Y-111504880D01*
X199181445Y-111428125D01*
X199171082Y-111363728D01*
X199165988Y-111352254D01*
X199160593Y-111325771D01*
X199160590Y-111325763D01*
X199160589Y-111325756D01*
X199073799Y-111051374D01*
X199062723Y-111011739D01*
X199059503Y-111006179D01*
X199055297Y-110992882D01*
X199055296Y-110992879D01*
X199046779Y-110973375D01*
X198915572Y-110672905D01*
X198742968Y-110369403D01*
X198742967Y-110369401D01*
X198539415Y-110085755D01*
X198539406Y-110085743D01*
X198539402Y-110085738D01*
X198307129Y-109825057D01*
X198108356Y-109644434D01*
X198048733Y-109590255D01*
X198048729Y-109590252D01*
X198006284Y-109559160D01*
X197767064Y-109383924D01*
X197465261Y-109208366D01*
X197465250Y-109208361D01*
X197464314Y-109207941D01*
X197464300Y-109207929D01*
X197464132Y-109207859D01*
X197146672Y-109065525D01*
X197146654Y-109065518D01*
X197133212Y-109061122D01*
X197128971Y-109058210D01*
X197087875Y-109046293D01*
X196814819Y-108956982D01*
X196788153Y-108951277D01*
X196779349Y-108946509D01*
X196712140Y-108935017D01*
X196473410Y-108883947D01*
X196473389Y-108883944D01*
X196433274Y-108879701D01*
X196419727Y-108874117D01*
X196336983Y-108869441D01*
X196333911Y-108869192D01*
X196126186Y-108847222D01*
X196126174Y-108847221D01*
X195951706Y-108847165D01*
X195951684Y-108847165D01*
X195951607Y-108847165D01*
X195951107Y-108847165D01*
X192035411Y-108851828D01*
X192026853Y-108851255D01*
X191984915Y-108845563D01*
X191862143Y-108827561D01*
X191842492Y-108823049D01*
X191776888Y-108802339D01*
X191682272Y-108769099D01*
X191674238Y-108765634D01*
X191604699Y-108729724D01*
X191601751Y-108728101D01*
X191520708Y-108680606D01*
X191514551Y-108676495D01*
X191482381Y-108652163D01*
X191450636Y-108628151D01*
X191446990Y-108625173D01*
X191377731Y-108564141D01*
X191373385Y-108559923D01*
X191318314Y-108501086D01*
X191314392Y-108496470D01*
X191258014Y-108423256D01*
X191255282Y-108419420D01*
X191211358Y-108352591D01*
X191207661Y-108346175D01*
X191196814Y-108324499D01*
X191165453Y-108261825D01*
X191164067Y-108258861D01*
X191132955Y-108187392D01*
X191130039Y-108179177D01*
X191102902Y-108081775D01*
X191086769Y-108015763D01*
X191083568Y-107995882D01*
X191073473Y-107869108D01*
X191070678Y-107828545D01*
X191070536Y-107823203D01*
X191071132Y-107785912D01*
X191070491Y-107777418D01*
X191070410Y-107286077D01*
X191069261Y-100310115D01*
X191089252Y-100241992D01*
X191142900Y-100195490D01*
X191197344Y-100184112D01*
X193313836Y-100219177D01*
G37*
G04 #@! TD.AperFunction*
G04 #@! TA.AperFunction,Conductor*
G36*
X200481615Y-109445632D02*
G01*
X200466405Y-109430422D01*
X200432379Y-109368110D01*
X200429500Y-109341327D01*
X200429500Y-105798233D01*
X200449502Y-105730112D01*
X200463125Y-105715303D01*
X200481615Y-109445632D01*
G37*
G04 #@! TD.AperFunction*
G04 #@! TD*
G04 #@! TA.AperFunction,NonConductor*
G36*
X229901639Y-83964502D02*
G01*
X229910211Y-83970529D01*
X229980357Y-84024355D01*
X230115246Y-84080228D01*
X230170946Y-84087560D01*
X230235872Y-84116281D01*
X230274965Y-84175546D01*
X230280500Y-84212482D01*
X230280500Y-84782768D01*
X230260498Y-84850889D01*
X230206842Y-84897382D01*
X230136568Y-84907486D01*
X230106284Y-84899177D01*
X230009338Y-84859021D01*
X229975450Y-84844984D01*
X229830698Y-84825928D01*
X229685945Y-84844984D01*
X229639089Y-84864393D01*
X229551056Y-84900858D01*
X229551055Y-84900859D01*
X229551054Y-84900859D01*
X229435217Y-84989744D01*
X229431154Y-84993808D01*
X229368842Y-85027834D01*
X229342059Y-85030713D01*
X228137239Y-85030713D01*
X228111382Y-85028031D01*
X228109542Y-85027645D01*
X228102256Y-85026117D01*
X228081688Y-85028681D01*
X228069270Y-85030229D01*
X228061482Y-85030713D01*
X228058028Y-85030713D01*
X228036282Y-85034341D01*
X228026951Y-85035504D01*
X227984853Y-85040751D01*
X227977704Y-85042879D01*
X227970713Y-85045281D01*
X227970707Y-85045283D01*
X227970707Y-85045284D01*
X227925123Y-85069952D01*
X227878564Y-85092713D01*
X227872513Y-85097033D01*
X227866656Y-85101592D01*
X227831556Y-85139722D01*
X227662966Y-85308311D01*
X227600657Y-85342335D01*
X227573873Y-85345215D01*
X227568118Y-85345215D01*
X227465064Y-85358782D01*
X227394915Y-85347843D01*
X227341817Y-85300714D01*
X227322618Y-85233860D01*
X227322618Y-84950250D01*
X227322858Y-84944757D01*
X227326428Y-84903958D01*
X227315819Y-84864370D01*
X227314638Y-84859043D01*
X227307523Y-84818684D01*
X227307521Y-84818680D01*
X227305612Y-84813436D01*
X227298708Y-84796767D01*
X227296353Y-84791718D01*
X227296353Y-84791717D01*
X227284298Y-84774500D01*
X227272852Y-84758151D01*
X227269898Y-84753516D01*
X227263080Y-84741707D01*
X227249423Y-84718052D01*
X227218047Y-84691724D01*
X227214006Y-84688022D01*
X226685579Y-84159595D01*
X226651553Y-84097283D01*
X226656618Y-84026468D01*
X226699165Y-83969632D01*
X226765685Y-83944821D01*
X226774674Y-83944500D01*
X229833518Y-83944500D01*
X229901639Y-83964502D01*
G37*
G04 #@! TD.AperFunction*
G04 #@! TA.AperFunction,NonConductor*
G36*
X222569194Y-85419502D02*
G01*
X222601033Y-85448793D01*
X222644526Y-85505474D01*
X222644531Y-85505480D01*
X222650365Y-85511314D01*
X222649144Y-85512534D01*
X222685174Y-85561881D01*
X222689393Y-85632752D01*
X222654626Y-85694653D01*
X222591912Y-85727932D01*
X222566601Y-85730500D01*
X220232702Y-85730500D01*
X220164581Y-85710498D01*
X220118088Y-85656842D01*
X220107984Y-85586568D01*
X220109905Y-85577203D01*
X220110227Y-85574755D01*
X220110228Y-85574754D01*
X220115606Y-85533901D01*
X220118878Y-85509053D01*
X220147601Y-85444126D01*
X220206866Y-85405035D01*
X220243800Y-85399500D01*
X222501073Y-85399500D01*
X222569194Y-85419502D01*
G37*
G04 #@! TD.AperFunction*
G04 #@! TA.AperFunction,NonConductor*
G36*
X213426758Y-85144502D02*
G01*
X213473251Y-85198158D01*
X213483355Y-85268432D01*
X213480345Y-85283106D01*
X213479772Y-85285243D01*
X213460715Y-85429999D01*
X213462485Y-85443447D01*
X213451543Y-85513595D01*
X213404413Y-85566692D01*
X213336058Y-85585880D01*
X213321117Y-85584811D01*
X213290002Y-85580715D01*
X213290000Y-85580715D01*
X213145247Y-85599771D01*
X213106049Y-85616008D01*
X213010358Y-85655645D01*
X213010357Y-85655646D01*
X213010356Y-85655646D01*
X212894524Y-85744527D01*
X212874056Y-85771203D01*
X212816718Y-85813071D01*
X212774093Y-85820500D01*
X211520801Y-85820500D01*
X211452680Y-85800498D01*
X211406187Y-85746842D01*
X211394801Y-85694748D01*
X211394794Y-85691425D01*
X211393926Y-85250747D01*
X211413794Y-85182588D01*
X211467358Y-85135990D01*
X211519926Y-85124500D01*
X213358637Y-85124500D01*
X213426758Y-85144502D01*
G37*
G04 #@! TD.AperFunction*
G04 #@! TA.AperFunction,NonConductor*
G36*
X218209447Y-85779502D02*
G01*
X218230422Y-85796405D01*
X218669421Y-86235405D01*
X218703446Y-86297717D01*
X218698381Y-86368533D01*
X218655834Y-86425368D01*
X218589314Y-86450179D01*
X218580325Y-86450500D01*
X213950023Y-86450500D01*
X213881902Y-86430498D01*
X213835409Y-86376842D01*
X213825305Y-86306568D01*
X213828316Y-86291891D01*
X213830227Y-86284756D01*
X213830226Y-86284756D01*
X213830228Y-86284754D01*
X213849285Y-86140000D01*
X213847515Y-86126556D01*
X213858454Y-86056408D01*
X213905582Y-86003309D01*
X213973936Y-85984119D01*
X213988873Y-85985187D01*
X214020000Y-85989285D01*
X214164754Y-85970228D01*
X214299643Y-85914355D01*
X214415474Y-85825474D01*
X214428272Y-85808795D01*
X214485609Y-85766929D01*
X214528234Y-85759500D01*
X218141326Y-85759500D01*
X218209447Y-85779502D01*
G37*
G04 #@! TD.AperFunction*
G04 #@! TA.AperFunction,NonConductor*
G36*
X223572263Y-85472843D02*
G01*
X223628199Y-85514197D01*
X223644525Y-85535474D01*
X223749479Y-85616008D01*
X223760357Y-85624355D01*
X223895246Y-85680228D01*
X223980302Y-85691425D01*
X224045229Y-85720147D01*
X224084321Y-85779412D01*
X224088778Y-85832793D01*
X224070715Y-85969999D01*
X224070715Y-85970000D01*
X224089771Y-86114752D01*
X224145644Y-86249641D01*
X224145646Y-86249644D01*
X224195649Y-86314809D01*
X224221249Y-86381030D01*
X224220790Y-86383265D01*
X224268872Y-86393725D01*
X224285185Y-86404346D01*
X224350357Y-86454355D01*
X224485246Y-86510228D01*
X224528916Y-86515977D01*
X224593843Y-86544699D01*
X224632935Y-86603964D01*
X224633780Y-86674956D01*
X224628879Y-86689117D01*
X224609772Y-86735245D01*
X224602573Y-86789925D01*
X224573850Y-86854851D01*
X224514584Y-86893943D01*
X224443593Y-86894787D01*
X224388556Y-86862572D01*
X224119392Y-86593408D01*
X224085366Y-86531096D01*
X224086399Y-86516645D01*
X224021383Y-86493272D01*
X224006591Y-86480608D01*
X223365115Y-85839132D01*
X223361400Y-85835079D01*
X223353342Y-85825476D01*
X223335066Y-85803695D01*
X223335065Y-85803694D01*
X223333890Y-85803016D01*
X223332423Y-85801477D01*
X223326620Y-85796608D01*
X223327163Y-85795960D01*
X223284898Y-85751633D01*
X223271463Y-85681919D01*
X223297851Y-85616008D01*
X223320179Y-85593943D01*
X223435474Y-85505474D01*
X223435480Y-85505465D01*
X223439137Y-85501810D01*
X223501447Y-85467782D01*
X223572263Y-85472843D01*
G37*
G04 #@! TD.AperFunction*
G04 #@! TA.AperFunction,NonConductor*
G36*
X225923477Y-86509355D02*
G01*
X225959704Y-86570414D01*
X225963618Y-86601574D01*
X225963618Y-86909755D01*
X225963378Y-86915240D01*
X225961810Y-86933162D01*
X225959808Y-86956046D01*
X225959808Y-86956053D01*
X225970408Y-86995614D01*
X225971598Y-87000980D01*
X225980264Y-87050124D01*
X225972396Y-87120684D01*
X225927630Y-87175788D01*
X225860179Y-87197943D01*
X225791457Y-87180113D01*
X225767084Y-87161101D01*
X225727244Y-87121261D01*
X225693218Y-87058949D01*
X225691417Y-87015720D01*
X225691486Y-87015202D01*
X225709285Y-86880000D01*
X225704034Y-86840118D01*
X225690228Y-86735247D01*
X225690228Y-86735246D01*
X225664551Y-86673258D01*
X225656963Y-86602671D01*
X225688742Y-86539184D01*
X225732737Y-86508636D01*
X225789404Y-86485164D01*
X225859990Y-86477576D01*
X225923477Y-86509355D01*
G37*
G04 #@! TD.AperFunction*
G04 #@! TA.AperFunction,NonConductor*
G36*
X235632580Y-83904034D02*
G01*
X235679094Y-83957672D01*
X235690500Y-84010058D01*
X235690500Y-85860180D01*
X235670498Y-85928301D01*
X235668196Y-85931756D01*
X235646214Y-85963601D01*
X235589849Y-86112220D01*
X235570693Y-86269996D01*
X235570693Y-86270003D01*
X235589849Y-86427779D01*
X235632492Y-86540217D01*
X235646213Y-86576395D01*
X235736502Y-86707201D01*
X235855471Y-86812599D01*
X235855472Y-86812599D01*
X235855474Y-86812601D01*
X235904059Y-86838100D01*
X235996207Y-86886463D01*
X236150529Y-86924500D01*
X236151245Y-86924587D01*
X236151732Y-86924796D01*
X236157929Y-86926324D01*
X236157675Y-86927354D01*
X236216459Y-86952650D01*
X236256149Y-87011517D01*
X236257713Y-87082496D01*
X236256826Y-87085621D01*
X236248520Y-87113521D01*
X236230499Y-87166013D01*
X236229194Y-87173835D01*
X236228207Y-87181750D01*
X236230500Y-87237165D01*
X236230500Y-89197751D01*
X236210498Y-89265872D01*
X236156842Y-89312365D01*
X236086568Y-89322469D01*
X236045946Y-89309319D01*
X235965043Y-89266858D01*
X235965042Y-89266857D01*
X235965041Y-89266857D01*
X235810722Y-89228821D01*
X235810721Y-89228821D01*
X235651779Y-89228821D01*
X235651777Y-89228821D01*
X235497459Y-89266857D01*
X235497452Y-89266860D01*
X235356724Y-89340719D01*
X235356719Y-89340723D01*
X235330399Y-89364041D01*
X235262144Y-89424511D01*
X235257289Y-89428812D01*
X235193036Y-89459013D01*
X235173735Y-89460500D01*
X232904001Y-89460500D01*
X232855783Y-89450909D01*
X232844221Y-89446120D01*
X232808011Y-89431121D01*
X232804752Y-89429771D01*
X232660000Y-89410715D01*
X232515246Y-89429771D01*
X232515238Y-89429773D01*
X232513713Y-89430406D01*
X232512322Y-89430555D01*
X232507267Y-89431910D01*
X232507055Y-89431121D01*
X232443123Y-89437993D01*
X232379637Y-89406212D01*
X232343412Y-89345152D01*
X232339499Y-89313996D01*
X232339499Y-87249285D01*
X232339500Y-84981173D01*
X232324405Y-84895566D01*
X232288939Y-84834138D01*
X232272202Y-84765144D01*
X232295422Y-84698052D01*
X232308963Y-84682044D01*
X232502309Y-84488698D01*
X233069126Y-83921881D01*
X233131434Y-83887860D01*
X233158157Y-83884981D01*
X233735938Y-83884759D01*
X233804064Y-83904735D01*
X233812689Y-83910798D01*
X233830357Y-83924355D01*
X233965246Y-83980228D01*
X234037622Y-83989756D01*
X234109999Y-83999285D01*
X234109999Y-83999284D01*
X234110000Y-83999285D01*
X234254754Y-83980228D01*
X234389643Y-83924355D01*
X234407684Y-83910510D01*
X234473902Y-83884909D01*
X234484315Y-83884473D01*
X235564456Y-83884059D01*
X235632580Y-83904034D01*
G37*
G04 #@! TD.AperFunction*
G04 #@! TA.AperFunction,NonConductor*
G36*
X229410180Y-85759715D02*
G01*
X229431154Y-85776618D01*
X229435222Y-85780686D01*
X229508846Y-85837180D01*
X229551055Y-85869568D01*
X229685944Y-85925441D01*
X229830698Y-85944498D01*
X229975452Y-85925441D01*
X230106286Y-85871247D01*
X230176871Y-85863659D01*
X230240358Y-85895438D01*
X230276586Y-85956496D01*
X230280500Y-85987657D01*
X230280500Y-89161325D01*
X230260498Y-89229446D01*
X230243595Y-89250420D01*
X229795359Y-89698656D01*
X229733047Y-89732682D01*
X229662232Y-89727617D01*
X229605396Y-89685070D01*
X229589858Y-89657785D01*
X229574355Y-89620358D01*
X229569242Y-89613695D01*
X229536932Y-89571588D01*
X229485474Y-89504526D01*
X229468793Y-89491726D01*
X229426927Y-89434388D01*
X229419500Y-89391770D01*
X229419500Y-88717132D01*
X229419740Y-88711638D01*
X229423310Y-88670840D01*
X229412701Y-88631252D01*
X229411520Y-88625925D01*
X229404405Y-88585566D01*
X229404403Y-88585562D01*
X229402491Y-88580308D01*
X229395596Y-88563663D01*
X229393235Y-88558600D01*
X229393235Y-88558599D01*
X229369738Y-88525042D01*
X229366783Y-88520404D01*
X229346305Y-88484934D01*
X229314919Y-88458598D01*
X229310876Y-88454893D01*
X227529327Y-86673344D01*
X227495301Y-86611032D01*
X227500366Y-86540217D01*
X227542913Y-86483381D01*
X227601973Y-86459327D01*
X227712872Y-86444728D01*
X227847761Y-86388855D01*
X227963592Y-86299974D01*
X228052473Y-86184143D01*
X228108346Y-86049254D01*
X228127403Y-85904500D01*
X228127402Y-85904492D01*
X228127402Y-85898752D01*
X228147399Y-85830630D01*
X228164303Y-85809652D01*
X228197340Y-85776615D01*
X228259655Y-85742592D01*
X228286434Y-85739713D01*
X229342059Y-85739713D01*
X229410180Y-85759715D01*
G37*
G04 #@! TD.AperFunction*
G04 #@! TA.AperFunction,NonConductor*
G36*
X214669448Y-88399502D02*
G01*
X214690422Y-88416405D01*
X215340246Y-89066229D01*
X215374272Y-89128541D01*
X215369207Y-89199356D01*
X215326660Y-89256192D01*
X215267599Y-89280246D01*
X215207284Y-89288187D01*
X215195246Y-89289772D01*
X215060358Y-89345645D01*
X215060357Y-89345646D01*
X215060356Y-89345646D01*
X214944523Y-89434528D01*
X214932173Y-89450623D01*
X214874834Y-89492489D01*
X214864822Y-89495623D01*
X214821273Y-89507291D01*
X214815907Y-89508481D01*
X214775568Y-89515594D01*
X214770331Y-89517500D01*
X214753641Y-89524413D01*
X214748599Y-89526764D01*
X214715044Y-89550259D01*
X214710410Y-89553211D01*
X214674937Y-89573692D01*
X214674930Y-89573697D01*
X214648598Y-89605079D01*
X214644884Y-89609132D01*
X214566789Y-89687226D01*
X214504477Y-89721252D01*
X214433662Y-89716187D01*
X214376826Y-89673640D01*
X214352773Y-89614578D01*
X214350228Y-89595246D01*
X214294355Y-89460358D01*
X214205474Y-89344526D01*
X214205472Y-89344524D01*
X214205471Y-89344523D01*
X214089649Y-89255649D01*
X214089641Y-89255644D01*
X213954752Y-89199771D01*
X213810000Y-89180715D01*
X213665247Y-89199771D01*
X213612759Y-89221513D01*
X213530358Y-89255645D01*
X213530357Y-89255646D01*
X213530356Y-89255646D01*
X213414526Y-89344526D01*
X213325646Y-89460356D01*
X213325645Y-89460358D01*
X213306205Y-89507291D01*
X213269771Y-89595247D01*
X213250715Y-89739998D01*
X213253459Y-89760845D01*
X213242517Y-89830994D01*
X213217632Y-89866383D01*
X213120422Y-89963595D01*
X213058110Y-89997620D01*
X213031326Y-90000500D01*
X211529042Y-90000500D01*
X211460921Y-89980498D01*
X211414428Y-89926842D01*
X211403042Y-89874748D01*
X211400343Y-88505748D01*
X211420211Y-88437588D01*
X211473775Y-88390990D01*
X211526343Y-88379500D01*
X214601327Y-88379500D01*
X214669448Y-88399502D01*
G37*
G04 #@! TD.AperFunction*
G04 #@! TA.AperFunction,NonConductor*
G36*
X216103770Y-89829754D02*
G01*
X216289421Y-90015405D01*
X216323447Y-90077717D01*
X216318382Y-90148532D01*
X216275835Y-90205368D01*
X216209315Y-90230179D01*
X216200326Y-90230500D01*
X215962866Y-90230500D01*
X215894745Y-90210498D01*
X215848252Y-90156842D01*
X215838148Y-90086568D01*
X215846454Y-90056290D01*
X215880228Y-89974754D01*
X215889753Y-89902402D01*
X215918475Y-89837476D01*
X215977740Y-89798384D01*
X216048732Y-89797539D01*
X216103770Y-89829754D01*
G37*
G04 #@! TD.AperFunction*
G04 #@! TA.AperFunction,NonConductor*
G36*
X228003443Y-89857402D02*
G01*
X228021082Y-89868739D01*
X228084300Y-89917248D01*
X228100730Y-89929855D01*
X228235619Y-89985728D01*
X228380373Y-90004785D01*
X228429456Y-89998323D01*
X228499604Y-90009262D01*
X228552703Y-90056390D01*
X228562309Y-90075022D01*
X228568658Y-90090348D01*
X228576250Y-90160937D01*
X228544473Y-90224426D01*
X228483417Y-90260656D01*
X228452251Y-90264571D01*
X227842745Y-90264571D01*
X227774624Y-90244569D01*
X227753650Y-90227666D01*
X227687946Y-90161962D01*
X227653920Y-90099650D01*
X227658985Y-90028835D01*
X227701532Y-89971999D01*
X227728817Y-89956461D01*
X227782132Y-89934378D01*
X227846803Y-89884754D01*
X227867674Y-89868739D01*
X227933894Y-89843138D01*
X228003443Y-89857402D01*
G37*
G04 #@! TD.AperFunction*
G04 #@! TA.AperFunction,NonConductor*
G36*
X236313960Y-90993402D02*
G01*
X236366732Y-91040895D01*
X236385451Y-91109380D01*
X236364172Y-91177112D01*
X236348570Y-91196106D01*
X236321080Y-91223595D01*
X236258771Y-91257620D01*
X236231986Y-91260500D01*
X232837120Y-91260500D01*
X232831635Y-91260260D01*
X232801457Y-91257620D01*
X232790841Y-91256691D01*
X232790837Y-91256691D01*
X232751271Y-91267292D01*
X232745907Y-91268481D01*
X232705568Y-91275594D01*
X232700331Y-91277500D01*
X232683641Y-91284413D01*
X232678599Y-91286764D01*
X232645044Y-91310259D01*
X232640410Y-91313211D01*
X232604937Y-91333692D01*
X232604930Y-91333697D01*
X232578598Y-91365079D01*
X232574884Y-91369132D01*
X232093056Y-91850959D01*
X232030744Y-91884985D01*
X231987516Y-91886786D01*
X231907175Y-91876210D01*
X231907173Y-91876210D01*
X231762420Y-91895266D01*
X231694975Y-91923203D01*
X231627531Y-91951140D01*
X231627530Y-91951141D01*
X231627529Y-91951141D01*
X231511695Y-92040023D01*
X231488531Y-92070212D01*
X231431193Y-92112079D01*
X231360322Y-92116300D01*
X231298419Y-92081535D01*
X231265139Y-92018821D01*
X231263648Y-92009953D01*
X231262088Y-91998107D01*
X231261892Y-91996613D01*
X231272831Y-91926467D01*
X231297716Y-91891076D01*
X231880893Y-91307900D01*
X231884924Y-91304207D01*
X231916305Y-91277877D01*
X231917623Y-91275595D01*
X231928536Y-91256691D01*
X231936794Y-91242386D01*
X231939728Y-91237783D01*
X231963235Y-91204212D01*
X231965602Y-91199134D01*
X231972488Y-91182510D01*
X231974403Y-91177248D01*
X231974402Y-91177248D01*
X231974405Y-91177245D01*
X231981521Y-91136879D01*
X231982699Y-91131567D01*
X231993310Y-91091971D01*
X231993309Y-91091970D01*
X231995745Y-91082884D01*
X232032698Y-91022263D01*
X232096560Y-90991244D01*
X232117450Y-90989500D01*
X236107573Y-90989500D01*
X236133431Y-90992181D01*
X236144100Y-90994419D01*
X236179683Y-90989983D01*
X236187474Y-90989500D01*
X236191436Y-90989500D01*
X236191443Y-90989500D01*
X236214715Y-90985616D01*
X236243888Y-90981980D01*
X236313960Y-90993402D01*
G37*
G04 #@! TD.AperFunction*
G04 #@! TA.AperFunction,NonConductor*
G36*
X235021068Y-92639502D02*
G01*
X235067561Y-92693158D01*
X235077868Y-92761944D01*
X235073317Y-92796516D01*
X235057783Y-92914500D01*
X235057784Y-92914501D01*
X235070260Y-93009275D01*
X235070111Y-93036031D01*
X235070821Y-93036082D01*
X235070500Y-93040568D01*
X235070500Y-93056558D01*
X235070339Y-93061054D01*
X235066572Y-93113718D01*
X235066573Y-93113719D01*
X235067620Y-93118532D01*
X235070500Y-93145318D01*
X235070500Y-93429500D01*
X235050498Y-93497621D01*
X234996842Y-93544114D01*
X234944500Y-93555500D01*
X233250550Y-93555500D01*
X233182429Y-93535498D01*
X233135936Y-93481842D01*
X233125832Y-93411568D01*
X233154001Y-93348542D01*
X233154868Y-93347507D01*
X233157036Y-93344924D01*
X233160733Y-93340887D01*
X233845217Y-92656404D01*
X233907530Y-92622379D01*
X233934313Y-92619500D01*
X234952947Y-92619500D01*
X235021068Y-92639502D01*
G37*
G04 #@! TD.AperFunction*
G04 #@! TA.AperFunction,NonConductor*
G36*
X220716326Y-90909502D02*
G01*
X220762819Y-90963158D01*
X220769411Y-90981496D01*
X220769771Y-90982367D01*
X220769772Y-90982368D01*
X220774763Y-90994418D01*
X220825644Y-91117255D01*
X220825649Y-91117263D01*
X220914525Y-91233088D01*
X221012036Y-91307911D01*
X221030357Y-91321969D01*
X221165246Y-91377842D01*
X221215819Y-91384500D01*
X221309999Y-91396899D01*
X221309999Y-91396898D01*
X221310000Y-91396899D01*
X221454754Y-91377842D01*
X221589643Y-91321969D01*
X221705474Y-91233088D01*
X221749996Y-91175066D01*
X221794538Y-91117019D01*
X221851876Y-91075152D01*
X221922747Y-91070930D01*
X221984650Y-91105694D01*
X222017931Y-91168407D01*
X222020500Y-91193724D01*
X222020499Y-91384500D01*
X222000497Y-91452620D01*
X221983594Y-91473594D01*
X221489130Y-91968059D01*
X221485078Y-91971772D01*
X221453693Y-91998108D01*
X221453692Y-91998108D01*
X221433211Y-92033583D01*
X221430259Y-92038217D01*
X221406766Y-92071770D01*
X221404410Y-92076822D01*
X221397490Y-92093531D01*
X221395593Y-92098742D01*
X221388480Y-92139082D01*
X221387290Y-92144449D01*
X221376690Y-92184008D01*
X221376690Y-92184014D01*
X221380260Y-92224810D01*
X221380500Y-92230304D01*
X221380500Y-92282631D01*
X221360498Y-92350752D01*
X221306842Y-92397245D01*
X221236568Y-92407349D01*
X221177797Y-92382594D01*
X221129649Y-92345649D01*
X221129641Y-92345644D01*
X220994752Y-92289771D01*
X220850000Y-92270715D01*
X220849998Y-92270715D01*
X220713607Y-92288670D01*
X220680243Y-92286484D01*
X220680142Y-92287651D01*
X220669161Y-92286690D01*
X220669160Y-92286690D01*
X220669158Y-92286690D01*
X220669157Y-92286690D01*
X220653752Y-92288038D01*
X220628352Y-92290260D01*
X220622868Y-92290500D01*
X215097132Y-92290500D01*
X215091647Y-92290260D01*
X215061824Y-92287651D01*
X215050842Y-92286690D01*
X215050835Y-92286690D01*
X215011276Y-92297290D01*
X215005909Y-92298480D01*
X214965569Y-92305593D01*
X214960358Y-92307490D01*
X214943649Y-92314410D01*
X214938597Y-92316766D01*
X214905044Y-92340259D01*
X214900410Y-92343212D01*
X214864936Y-92363693D01*
X214864930Y-92363697D01*
X214838598Y-92395079D01*
X214834884Y-92399132D01*
X213519136Y-93714880D01*
X213515083Y-93718594D01*
X213491493Y-93738390D01*
X213426453Y-93766856D01*
X213356348Y-93755640D01*
X213303435Y-93708303D01*
X213284499Y-93641873D01*
X213284499Y-92394936D01*
X213304501Y-92326816D01*
X213358157Y-92280323D01*
X213428431Y-92270219D01*
X213458712Y-92278526D01*
X213535246Y-92310228D01*
X213680000Y-92329285D01*
X213824754Y-92310228D01*
X213959643Y-92254355D01*
X214075474Y-92165474D01*
X214164355Y-92049643D01*
X214220228Y-91914754D01*
X214239285Y-91770000D01*
X214236541Y-91749159D01*
X214247478Y-91679011D01*
X214272364Y-91643617D01*
X214989578Y-90926404D01*
X215051891Y-90892379D01*
X215078674Y-90889500D01*
X220648205Y-90889500D01*
X220716326Y-90909502D01*
G37*
G04 #@! TD.AperFunction*
G04 #@! TA.AperFunction,NonConductor*
G36*
X235012621Y-94384502D02*
G01*
X235059114Y-94438158D01*
X235070500Y-94490500D01*
X235070500Y-96410962D01*
X235050498Y-96479083D01*
X234996842Y-96525576D01*
X234926568Y-96535680D01*
X234861988Y-96506186D01*
X234847981Y-96491956D01*
X234846308Y-96489962D01*
X234814932Y-96463635D01*
X234810888Y-96459930D01*
X233257237Y-94906280D01*
X233223213Y-94843969D01*
X233221411Y-94800740D01*
X233227466Y-94754752D01*
X233235237Y-94695721D01*
X233216180Y-94550967D01*
X233211107Y-94538719D01*
X233203517Y-94468130D01*
X233235295Y-94404642D01*
X233296353Y-94368414D01*
X233327515Y-94364500D01*
X234944500Y-94364500D01*
X235012621Y-94384502D01*
G37*
G04 #@! TD.AperFunction*
G04 #@! TA.AperFunction,NonConductor*
G36*
X230997263Y-95503248D02*
G01*
X231014903Y-95514585D01*
X231124242Y-95598484D01*
X231130357Y-95603176D01*
X231265246Y-95659049D01*
X231410000Y-95678106D01*
X231554754Y-95659049D01*
X231675362Y-95609091D01*
X231723581Y-95599500D01*
X231793935Y-95599500D01*
X231862056Y-95619502D01*
X231908549Y-95673158D01*
X231918653Y-95743432D01*
X231910345Y-95773716D01*
X231908648Y-95777812D01*
X231908647Y-95777813D01*
X231889591Y-95922566D01*
X231889591Y-95922567D01*
X231908647Y-96067319D01*
X231964520Y-96202208D01*
X231964525Y-96202216D01*
X232058429Y-96324593D01*
X232057312Y-96325449D01*
X232087132Y-96380058D01*
X232082067Y-96450873D01*
X232053106Y-96495936D01*
X230725448Y-97823595D01*
X230663136Y-97857620D01*
X230636353Y-97860500D01*
X230446831Y-97860500D01*
X230378710Y-97840498D01*
X230332217Y-97786842D01*
X230322113Y-97716568D01*
X230330422Y-97686282D01*
X230340228Y-97662609D01*
X230359285Y-97517855D01*
X230351072Y-97455474D01*
X230340228Y-97373102D01*
X230339246Y-97370731D01*
X230284355Y-97238213D01*
X230195474Y-97122381D01*
X230195472Y-97122379D01*
X230195471Y-97122378D01*
X230079649Y-97033504D01*
X230079641Y-97033499D01*
X229944752Y-96977626D01*
X229800000Y-96958570D01*
X229655247Y-96977626D01*
X229597182Y-97001678D01*
X229520358Y-97033500D01*
X229520356Y-97033501D01*
X229520357Y-97033501D01*
X229520351Y-97033504D01*
X229515383Y-97037317D01*
X229449163Y-97062918D01*
X229438679Y-97063355D01*
X229406234Y-97063355D01*
X229338113Y-97043353D01*
X229317143Y-97026454D01*
X228397077Y-96106387D01*
X228363054Y-96044078D01*
X228361096Y-96032503D01*
X228351348Y-95952213D01*
X228294986Y-95803600D01*
X228221458Y-95697076D01*
X228199222Y-95629651D01*
X228216969Y-95560908D01*
X228269064Y-95512673D01*
X228325154Y-95499500D01*
X230008873Y-95499500D01*
X230076994Y-95519502D01*
X230085577Y-95525538D01*
X230180642Y-95598484D01*
X230186757Y-95603176D01*
X230321646Y-95659049D01*
X230394023Y-95668577D01*
X230466399Y-95678106D01*
X230466399Y-95678105D01*
X230466400Y-95678106D01*
X230611154Y-95659049D01*
X230746043Y-95603176D01*
X230861498Y-95514583D01*
X230927714Y-95488984D01*
X230997263Y-95503248D01*
G37*
G04 #@! TD.AperFunction*
G04 #@! TA.AperFunction,NonConductor*
G36*
X223084474Y-86989502D02*
G01*
X223105448Y-87006405D01*
X223994448Y-87895405D01*
X224028474Y-87957717D01*
X224023409Y-88028532D01*
X223980862Y-88085368D01*
X223914342Y-88110179D01*
X223905353Y-88110500D01*
X222798234Y-88110500D01*
X222730113Y-88090498D01*
X222698272Y-88061205D01*
X222685474Y-88044526D01*
X222685472Y-88044524D01*
X222685471Y-88044523D01*
X222569649Y-87955649D01*
X222569641Y-87955644D01*
X222434752Y-87899771D01*
X222290000Y-87880715D01*
X222145247Y-87899771D01*
X222077801Y-87927708D01*
X222010358Y-87955645D01*
X222010357Y-87955646D01*
X222010356Y-87955646D01*
X221894526Y-88044526D01*
X221805646Y-88160356D01*
X221805645Y-88160358D01*
X221802566Y-88167792D01*
X221749771Y-88295247D01*
X221730715Y-88439999D01*
X221730715Y-88440000D01*
X221749771Y-88584752D01*
X221805644Y-88719641D01*
X221805649Y-88719649D01*
X221894525Y-88835474D01*
X222010350Y-88924350D01*
X222010357Y-88924355D01*
X222145246Y-88980228D01*
X222290000Y-88999285D01*
X222434754Y-88980228D01*
X222569643Y-88924355D01*
X222685474Y-88835474D01*
X222698272Y-88818795D01*
X222755609Y-88776929D01*
X222798234Y-88769500D01*
X224321379Y-88769500D01*
X224389500Y-88789502D01*
X224410473Y-88806404D01*
X227574951Y-91970883D01*
X227578656Y-91974926D01*
X227604986Y-92006305D01*
X227640450Y-92026780D01*
X227645085Y-92029734D01*
X227668723Y-92046283D01*
X227678651Y-92053235D01*
X227678653Y-92053235D01*
X227683701Y-92055590D01*
X227700370Y-92062494D01*
X227705614Y-92064403D01*
X227705618Y-92064405D01*
X227745977Y-92071520D01*
X227751304Y-92072701D01*
X227790892Y-92083310D01*
X227817985Y-92080939D01*
X227831706Y-92079740D01*
X227837198Y-92079500D01*
X230032868Y-92079500D01*
X230038352Y-92079739D01*
X230058873Y-92081535D01*
X230059776Y-92081614D01*
X230125894Y-92107477D01*
X230165201Y-92158914D01*
X230180046Y-92194754D01*
X230220323Y-92291991D01*
X230220328Y-92291999D01*
X230309204Y-92407824D01*
X230425029Y-92496700D01*
X230425036Y-92496705D01*
X230559925Y-92552578D01*
X230704679Y-92571635D01*
X230849433Y-92552578D01*
X230984322Y-92496705D01*
X231100153Y-92407824D01*
X231123319Y-92377633D01*
X231180655Y-92335766D01*
X231251526Y-92331543D01*
X231313429Y-92366307D01*
X231346711Y-92429019D01*
X231348203Y-92437891D01*
X231366944Y-92580247D01*
X231422817Y-92715136D01*
X231422822Y-92715144D01*
X231511696Y-92830966D01*
X231511697Y-92830967D01*
X231511699Y-92830969D01*
X231562567Y-92870002D01*
X231604433Y-92927338D01*
X231608655Y-92998209D01*
X231574957Y-93059058D01*
X231529858Y-93104157D01*
X231488987Y-93131468D01*
X231465641Y-93141139D01*
X231465635Y-93141142D01*
X231349811Y-93230018D01*
X231260929Y-93345851D01*
X231260928Y-93345853D01*
X231239261Y-93398161D01*
X231205054Y-93480742D01*
X231185998Y-93625494D01*
X231185998Y-93625495D01*
X231201953Y-93746690D01*
X231204108Y-93763054D01*
X231193169Y-93833202D01*
X231146041Y-93886301D01*
X231079186Y-93905500D01*
X227365931Y-93905500D01*
X227344701Y-93912397D01*
X227325491Y-93917009D01*
X227303445Y-93920501D01*
X227303444Y-93920502D01*
X227283557Y-93930634D01*
X227265297Y-93938197D01*
X227244075Y-93945092D01*
X227244070Y-93945095D01*
X227226006Y-93958218D01*
X227209161Y-93968541D01*
X227189278Y-93978672D01*
X227189278Y-93978673D01*
X227148764Y-94019184D01*
X227148761Y-94019189D01*
X225673331Y-95494618D01*
X224189068Y-96978882D01*
X224189065Y-96978885D01*
X224173428Y-96994523D01*
X224166276Y-97001675D01*
X224166274Y-97001678D01*
X224156146Y-97021554D01*
X224145821Y-97038404D01*
X224132697Y-97056467D01*
X224132696Y-97056471D01*
X224125800Y-97077694D01*
X224118237Y-97095954D01*
X224108105Y-97115841D01*
X224108104Y-97115842D01*
X224104612Y-97137888D01*
X224100000Y-97157098D01*
X224093103Y-97178328D01*
X224093103Y-98392929D01*
X224073101Y-98461050D01*
X224019445Y-98507543D01*
X223949171Y-98517647D01*
X223884591Y-98488153D01*
X223878008Y-98482024D01*
X223307824Y-97911840D01*
X221585104Y-96189121D01*
X221581401Y-96185080D01*
X221577210Y-96180086D01*
X221569251Y-96170600D01*
X221540787Y-96105564D01*
X221552003Y-96035459D01*
X221565807Y-96012911D01*
X221614355Y-95949643D01*
X221670228Y-95814754D01*
X221689285Y-95670000D01*
X221686540Y-95649155D01*
X221697478Y-95579010D01*
X221722364Y-95543617D01*
X221930893Y-95335088D01*
X221934911Y-95331406D01*
X221966305Y-95305066D01*
X221986796Y-95269573D01*
X221989726Y-95264973D01*
X222013235Y-95231401D01*
X222013235Y-95231398D01*
X222015603Y-95226322D01*
X222022488Y-95209699D01*
X222024404Y-95204437D01*
X222024405Y-95204434D01*
X222031520Y-95164073D01*
X222032705Y-95158735D01*
X222043310Y-95119160D01*
X222039739Y-95078354D01*
X222039500Y-95072867D01*
X222039500Y-92401846D01*
X222059502Y-92333725D01*
X222076399Y-92312756D01*
X222570887Y-91818268D01*
X222574917Y-91814574D01*
X222606305Y-91788239D01*
X222626794Y-91752748D01*
X222629728Y-91748145D01*
X222653235Y-91714574D01*
X222655602Y-91709496D01*
X222662488Y-91692872D01*
X222664403Y-91687610D01*
X222664402Y-91687610D01*
X222664405Y-91687607D01*
X222671521Y-91647241D01*
X222672700Y-91641924D01*
X222683310Y-91602333D01*
X222681298Y-91579336D01*
X222679740Y-91561519D01*
X222679500Y-91556027D01*
X222679500Y-90597133D01*
X222679740Y-90591639D01*
X222681646Y-90569854D01*
X222707508Y-90503739D01*
X222765012Y-90462100D01*
X222835899Y-90458159D01*
X222896261Y-90491744D01*
X223273595Y-90869078D01*
X223307621Y-90931390D01*
X223310500Y-90958173D01*
X223310500Y-91541766D01*
X223290498Y-91609887D01*
X223261208Y-91641725D01*
X223253985Y-91647268D01*
X223244526Y-91654526D01*
X223155646Y-91770356D01*
X223155645Y-91770358D01*
X223137335Y-91814562D01*
X223099771Y-91905247D01*
X223080715Y-92049999D01*
X223080715Y-92050000D01*
X223099771Y-92194752D01*
X223155644Y-92329641D01*
X223155649Y-92329649D01*
X223244525Y-92445474D01*
X223360350Y-92534350D01*
X223360357Y-92534355D01*
X223495246Y-92590228D01*
X223640000Y-92609285D01*
X223784754Y-92590228D01*
X223919643Y-92534355D01*
X224035474Y-92445474D01*
X224124355Y-92329643D01*
X224180228Y-92194754D01*
X224199285Y-92050000D01*
X224180228Y-91905246D01*
X224124355Y-91770358D01*
X224124080Y-91770000D01*
X224060860Y-91687610D01*
X224035474Y-91654526D01*
X224035471Y-91654524D01*
X224035470Y-91654522D01*
X224018793Y-91641725D01*
X223976927Y-91584386D01*
X223969500Y-91541765D01*
X223969500Y-90786632D01*
X223969740Y-90781139D01*
X223971326Y-90763013D01*
X223973310Y-90740340D01*
X223962701Y-90700752D01*
X223961520Y-90695425D01*
X223954405Y-90655066D01*
X223954403Y-90655062D01*
X223952494Y-90649818D01*
X223945590Y-90633149D01*
X223943235Y-90628100D01*
X223943235Y-90628099D01*
X223935762Y-90617426D01*
X223919734Y-90594533D01*
X223916780Y-90589898D01*
X223905210Y-90569858D01*
X223896305Y-90554434D01*
X223892022Y-90550840D01*
X223864931Y-90528107D01*
X223860877Y-90524393D01*
X223581053Y-90244569D01*
X223292366Y-89955883D01*
X223258342Y-89893571D01*
X223256541Y-89850340D01*
X223259285Y-89829500D01*
X223258356Y-89822447D01*
X223240228Y-89684747D01*
X223240228Y-89684746D01*
X223184355Y-89549858D01*
X223095474Y-89434026D01*
X223095472Y-89434024D01*
X223095471Y-89434023D01*
X222979649Y-89345149D01*
X222979641Y-89345144D01*
X222844752Y-89289271D01*
X222700000Y-89270215D01*
X222555247Y-89289271D01*
X222487801Y-89317208D01*
X222420358Y-89345145D01*
X222420357Y-89345146D01*
X222420356Y-89345146D01*
X222304526Y-89434026D01*
X222215646Y-89549856D01*
X222215642Y-89549863D01*
X222161920Y-89679558D01*
X222117372Y-89734839D01*
X222050008Y-89757259D01*
X221981217Y-89739700D01*
X221956417Y-89720434D01*
X221885114Y-89649131D01*
X221881399Y-89645078D01*
X221855067Y-89613696D01*
X221855066Y-89613695D01*
X221819589Y-89593212D01*
X221814957Y-89590261D01*
X221781401Y-89566765D01*
X221781397Y-89566762D01*
X221776367Y-89564416D01*
X221759664Y-89557498D01*
X221754430Y-89555593D01*
X221714091Y-89548480D01*
X221708725Y-89547290D01*
X221669164Y-89536690D01*
X221669158Y-89536690D01*
X221657409Y-89537718D01*
X221628352Y-89540260D01*
X221622868Y-89540500D01*
X216798674Y-89540500D01*
X216730553Y-89520498D01*
X216709579Y-89503595D01*
X216334525Y-89128541D01*
X215035104Y-87829121D01*
X215031400Y-87825079D01*
X215005066Y-87793695D01*
X214969589Y-87773212D01*
X214964957Y-87770261D01*
X214931401Y-87746765D01*
X214931397Y-87746762D01*
X214926367Y-87744416D01*
X214909664Y-87737498D01*
X214904430Y-87735593D01*
X214864091Y-87728480D01*
X214858725Y-87727290D01*
X214819164Y-87716690D01*
X214819158Y-87716690D01*
X214807409Y-87717718D01*
X214778352Y-87720260D01*
X214772868Y-87720500D01*
X211524547Y-87720500D01*
X211456426Y-87700498D01*
X211409933Y-87646842D01*
X211398547Y-87594748D01*
X211397839Y-87235748D01*
X211417707Y-87167588D01*
X211471271Y-87120990D01*
X211523839Y-87109500D01*
X219093066Y-87109500D01*
X219161187Y-87129502D01*
X219169760Y-87135530D01*
X219220357Y-87174355D01*
X219355246Y-87230228D01*
X219500000Y-87249285D01*
X219644754Y-87230228D01*
X219779643Y-87174355D01*
X219895474Y-87085474D01*
X219919762Y-87053822D01*
X219946639Y-87018796D01*
X220003977Y-86976928D01*
X220046601Y-86969500D01*
X223016353Y-86969500D01*
X223084474Y-86989502D01*
G37*
G04 #@! TD.AperFunction*
G04 #@! TA.AperFunction,NonConductor*
G36*
X226324812Y-96091403D02*
G01*
X226381648Y-96133950D01*
X226406459Y-96200470D01*
X226406780Y-96209459D01*
X226406780Y-98508046D01*
X226386778Y-98576167D01*
X226357488Y-98608005D01*
X226355186Y-98609772D01*
X226340806Y-98620806D01*
X226251926Y-98736636D01*
X226251925Y-98736638D01*
X226227210Y-98796305D01*
X226196051Y-98871528D01*
X226196050Y-98871531D01*
X226194429Y-98883845D01*
X226165704Y-98948771D01*
X226106437Y-98987861D01*
X226035446Y-98988703D01*
X225975269Y-98951030D01*
X225953101Y-98915616D01*
X225934355Y-98870358D01*
X225845474Y-98754526D01*
X225845472Y-98754524D01*
X225845471Y-98754523D01*
X225729649Y-98665649D01*
X225729641Y-98665644D01*
X225594752Y-98609771D01*
X225450000Y-98590715D01*
X225305247Y-98609771D01*
X225278605Y-98620807D01*
X225170358Y-98665645D01*
X225170356Y-98665646D01*
X225170357Y-98665646D01*
X225170352Y-98665649D01*
X225104806Y-98715944D01*
X225038586Y-98741544D01*
X224969037Y-98727279D01*
X224918242Y-98677678D01*
X224902103Y-98615981D01*
X224902103Y-97462136D01*
X224922105Y-97394015D01*
X224939008Y-97373041D01*
X226191685Y-96120364D01*
X226253997Y-96086338D01*
X226324812Y-96091403D01*
G37*
G04 #@! TD.AperFunction*
G04 #@! TA.AperFunction,NonConductor*
G36*
X227274292Y-96597342D02*
G01*
X227275268Y-96598196D01*
X227336670Y-96652594D01*
X227336671Y-96652594D01*
X227336673Y-96652596D01*
X227388219Y-96679649D01*
X227477406Y-96726458D01*
X227631728Y-96764495D01*
X227717474Y-96764495D01*
X227785595Y-96784497D01*
X227806569Y-96801400D01*
X228797977Y-97792808D01*
X228832003Y-97855120D01*
X228826938Y-97925935D01*
X228805905Y-97962293D01*
X228805545Y-97962727D01*
X228803710Y-97964914D01*
X228800002Y-97968986D01*
X227487697Y-99281290D01*
X227425385Y-99315316D01*
X227354570Y-99310251D01*
X227297734Y-99267704D01*
X227272923Y-99201184D01*
X227275970Y-99169293D01*
X227275430Y-99169222D01*
X227292730Y-99037818D01*
X227295565Y-99016280D01*
X227292958Y-98996481D01*
X227283546Y-98924983D01*
X227276508Y-98871526D01*
X227220635Y-98736638D01*
X227219760Y-98735498D01*
X227177932Y-98680986D01*
X227131754Y-98620806D01*
X227131751Y-98620804D01*
X227131750Y-98620802D01*
X227115073Y-98608005D01*
X227073207Y-98550666D01*
X227065780Y-98508045D01*
X227065780Y-96692566D01*
X227085782Y-96624445D01*
X227139438Y-96577952D01*
X227209712Y-96567848D01*
X227274292Y-96597342D01*
G37*
G04 #@! TD.AperFunction*
G04 #@! TA.AperFunction,NonConductor*
G36*
X226211006Y-99215244D02*
G01*
X226233177Y-99250663D01*
X226245864Y-99281290D01*
X226251924Y-99295921D01*
X226251929Y-99295929D01*
X226340803Y-99411751D01*
X226340804Y-99411752D01*
X226340806Y-99411754D01*
X226357483Y-99424550D01*
X226399350Y-99481885D01*
X226406780Y-99524513D01*
X226406780Y-99815043D01*
X226386778Y-99883164D01*
X226369875Y-99904139D01*
X226256766Y-100017247D01*
X226194454Y-100051272D01*
X226123638Y-100046206D01*
X226066802Y-100003660D01*
X226051265Y-99976374D01*
X226048008Y-99968511D01*
X225959127Y-99852679D01*
X225959125Y-99852677D01*
X225959124Y-99852676D01*
X225836744Y-99758770D01*
X225837967Y-99757176D01*
X225796495Y-99713686D01*
X225783055Y-99643973D01*
X225809438Y-99578061D01*
X225831780Y-99555981D01*
X225845474Y-99545474D01*
X225934355Y-99429643D01*
X225990228Y-99294754D01*
X225991849Y-99282439D01*
X226020570Y-99217513D01*
X226079835Y-99178420D01*
X226150827Y-99177575D01*
X226211006Y-99215244D01*
G37*
G04 #@! TD.AperFunction*
G04 #@! TA.AperFunction,NonConductor*
G36*
X221313565Y-93266069D02*
G01*
X221364361Y-93315670D01*
X221380500Y-93377368D01*
X221380500Y-94901325D01*
X221360498Y-94969446D01*
X221343595Y-94990421D01*
X221256383Y-95077632D01*
X221194071Y-95111657D01*
X221150845Y-95113459D01*
X221137155Y-95111657D01*
X221130000Y-95110715D01*
X221129999Y-95110715D01*
X221129998Y-95110715D01*
X220985247Y-95129771D01*
X220935861Y-95150228D01*
X220850358Y-95185645D01*
X220850357Y-95185646D01*
X220850356Y-95185646D01*
X220734526Y-95274526D01*
X220645646Y-95390356D01*
X220645645Y-95390358D01*
X220628276Y-95432291D01*
X220589771Y-95525247D01*
X220570715Y-95669999D01*
X220570715Y-95670000D01*
X220578226Y-95727055D01*
X220567286Y-95797204D01*
X220520158Y-95850302D01*
X220451804Y-95869492D01*
X220412839Y-95861500D01*
X220412730Y-95861909D01*
X220405873Y-95860071D01*
X220405089Y-95859910D01*
X220404754Y-95859772D01*
X220404751Y-95859771D01*
X220404750Y-95859771D01*
X220260000Y-95840715D01*
X220115247Y-95859771D01*
X220047802Y-95887708D01*
X219980358Y-95915645D01*
X219980357Y-95915646D01*
X219980356Y-95915646D01*
X219864526Y-96004526D01*
X219775646Y-96120356D01*
X219775645Y-96120358D01*
X219755090Y-96169982D01*
X219719771Y-96255247D01*
X219700715Y-96399999D01*
X219700715Y-96400000D01*
X219719771Y-96544752D01*
X219775644Y-96679641D01*
X219775649Y-96679649D01*
X219864525Y-96795474D01*
X219980350Y-96884350D01*
X219980357Y-96884355D01*
X220115246Y-96940228D01*
X220260000Y-96959285D01*
X220404754Y-96940228D01*
X220539643Y-96884355D01*
X220655474Y-96795474D01*
X220660599Y-96788794D01*
X220717938Y-96746928D01*
X220760561Y-96739500D01*
X221151327Y-96739500D01*
X221219448Y-96759502D01*
X221240422Y-96776405D01*
X222338969Y-97874952D01*
X222372995Y-97937264D01*
X222367930Y-98008079D01*
X222325383Y-98064915D01*
X222298094Y-98080455D01*
X222164861Y-98135643D01*
X222164856Y-98135646D01*
X222049026Y-98224526D01*
X221960146Y-98340356D01*
X221960145Y-98340358D01*
X221939624Y-98389899D01*
X221904271Y-98475247D01*
X221885215Y-98619999D01*
X221887959Y-98640847D01*
X221877017Y-98710995D01*
X221852131Y-98746384D01*
X221559130Y-99039386D01*
X221555078Y-99043099D01*
X221523693Y-99069435D01*
X221523692Y-99069435D01*
X221503211Y-99104910D01*
X221500259Y-99109544D01*
X221476766Y-99143097D01*
X221474410Y-99148149D01*
X221467490Y-99164858D01*
X221465593Y-99170069D01*
X221458480Y-99210409D01*
X221457290Y-99215776D01*
X221446690Y-99255335D01*
X221446690Y-99255340D01*
X221450241Y-99295929D01*
X221450260Y-99296137D01*
X221450500Y-99301631D01*
X221450500Y-99931326D01*
X221430498Y-99999447D01*
X221413600Y-100020416D01*
X220450420Y-100983596D01*
X220388110Y-101017620D01*
X220361327Y-101020500D01*
X213448674Y-101020500D01*
X213380553Y-101000498D01*
X213359579Y-100983595D01*
X212605940Y-100229956D01*
X211810576Y-99434593D01*
X211776552Y-99372282D01*
X211781616Y-99301467D01*
X211824163Y-99244631D01*
X211890683Y-99219820D01*
X211899672Y-99219499D01*
X212525064Y-99219499D01*
X212525066Y-99219499D01*
X212525069Y-99219498D01*
X212525072Y-99219498D01*
X212543784Y-99215776D01*
X212599301Y-99204734D01*
X212659474Y-99164526D01*
X212696859Y-99147587D01*
X212702655Y-99146033D01*
X212733751Y-99137700D01*
X212739073Y-99136520D01*
X212779434Y-99129405D01*
X212779435Y-99129404D01*
X212779437Y-99129404D01*
X212784699Y-99127488D01*
X212801322Y-99120603D01*
X212806398Y-99118235D01*
X212806401Y-99118235D01*
X212839973Y-99094726D01*
X212844573Y-99091796D01*
X212880066Y-99071305D01*
X212906397Y-99039922D01*
X212910100Y-99035881D01*
X213380893Y-98565089D01*
X213384924Y-98561396D01*
X213416305Y-98535066D01*
X213436790Y-98499585D01*
X213439729Y-98494970D01*
X213463235Y-98461401D01*
X213463236Y-98461399D01*
X213465598Y-98456333D01*
X213472488Y-98439699D01*
X213474403Y-98434437D01*
X213474402Y-98434437D01*
X213474405Y-98434434D01*
X213481521Y-98394068D01*
X213482700Y-98388751D01*
X213493310Y-98349160D01*
X213490469Y-98316685D01*
X213489740Y-98308346D01*
X213489500Y-98302854D01*
X213489500Y-97872887D01*
X213509502Y-97804766D01*
X213530387Y-97782066D01*
X213529635Y-97781314D01*
X213535469Y-97775479D01*
X213535471Y-97775476D01*
X213535474Y-97775474D01*
X213546200Y-97761494D01*
X213603536Y-97719628D01*
X213674407Y-97715404D01*
X213736310Y-97750167D01*
X213746120Y-97761487D01*
X213753816Y-97771516D01*
X213764528Y-97785476D01*
X213880350Y-97874350D01*
X213880357Y-97874355D01*
X214015246Y-97930228D01*
X214160000Y-97949285D01*
X214304754Y-97930228D01*
X214439643Y-97874355D01*
X214555474Y-97785474D01*
X214644355Y-97669643D01*
X214700228Y-97534754D01*
X214719285Y-97390000D01*
X214700228Y-97245246D01*
X214644355Y-97110358D01*
X214555474Y-96994526D01*
X214555472Y-96994524D01*
X214555471Y-96994523D01*
X214439649Y-96905649D01*
X214439641Y-96905644D01*
X214304752Y-96849771D01*
X214179053Y-96833223D01*
X214114126Y-96804500D01*
X214075035Y-96745235D01*
X214069500Y-96708301D01*
X214069500Y-95646297D01*
X214089502Y-95578176D01*
X214143158Y-95531683D01*
X214213432Y-95521579D01*
X214243706Y-95529884D01*
X214365246Y-95580228D01*
X214510000Y-95599285D01*
X214654754Y-95580228D01*
X214789643Y-95524355D01*
X214905474Y-95435474D01*
X214994355Y-95319643D01*
X215050228Y-95184754D01*
X215069285Y-95040000D01*
X215059996Y-94969446D01*
X215050228Y-94895247D01*
X215050228Y-94895246D01*
X215010659Y-94799720D01*
X215003071Y-94729133D01*
X215034850Y-94665646D01*
X215095908Y-94629418D01*
X215143511Y-94626582D01*
X215240000Y-94639285D01*
X215384754Y-94620228D01*
X215519643Y-94564355D01*
X215635474Y-94475474D01*
X215648272Y-94458795D01*
X215705609Y-94416929D01*
X215748234Y-94409500D01*
X219091327Y-94409500D01*
X219159448Y-94429502D01*
X219180422Y-94446405D01*
X219217631Y-94483614D01*
X219251657Y-94545926D01*
X219253459Y-94589150D01*
X219250715Y-94609999D01*
X219250715Y-94610001D01*
X219269771Y-94754752D01*
X219325644Y-94889641D01*
X219325649Y-94889649D01*
X219414525Y-95005474D01*
X219505933Y-95075614D01*
X219530357Y-95094355D01*
X219665246Y-95150228D01*
X219810000Y-95169285D01*
X219954754Y-95150228D01*
X220089643Y-95094355D01*
X220205474Y-95005474D01*
X220294355Y-94889643D01*
X220350228Y-94754754D01*
X220369285Y-94610000D01*
X220350228Y-94465246D01*
X220294355Y-94330358D01*
X220205474Y-94214526D01*
X220205472Y-94214524D01*
X220205471Y-94214523D01*
X220089649Y-94125649D01*
X220089641Y-94125644D01*
X220072991Y-94118747D01*
X220024152Y-94098517D01*
X219968873Y-94053971D01*
X219946452Y-93986607D01*
X219964010Y-93917816D01*
X220015972Y-93869438D01*
X220055924Y-93857188D01*
X220184754Y-93840228D01*
X220319643Y-93784355D01*
X220435474Y-93695474D01*
X220524355Y-93579643D01*
X220578969Y-93447793D01*
X220623514Y-93392516D01*
X220690877Y-93370095D01*
X220711813Y-93371092D01*
X220850000Y-93389285D01*
X220994754Y-93370228D01*
X221129643Y-93314355D01*
X221153384Y-93296137D01*
X221177796Y-93277406D01*
X221244016Y-93251805D01*
X221313565Y-93266069D01*
G37*
G04 #@! TD.AperFunction*
G04 #@! TA.AperFunction,NonConductor*
G36*
X224935126Y-100235021D02*
G01*
X224991962Y-100277568D01*
X225016016Y-100336630D01*
X225023424Y-100392905D01*
X225079297Y-100527794D01*
X225079300Y-100527799D01*
X225086684Y-100537421D01*
X225112286Y-100603641D01*
X225098022Y-100673190D01*
X225075818Y-100703222D01*
X224328110Y-101450930D01*
X224265798Y-101484956D01*
X224194983Y-101479891D01*
X224138147Y-101437344D01*
X224122608Y-101410058D01*
X224073027Y-101290358D01*
X224011169Y-101209743D01*
X223985569Y-101143522D01*
X223999834Y-101073973D01*
X224022034Y-101043947D01*
X224802001Y-100263980D01*
X224864311Y-100229956D01*
X224935126Y-100235021D01*
G37*
G04 #@! TD.AperFunction*
G04 #@! TA.AperFunction,NonConductor*
G36*
X223474650Y-99849818D02*
G01*
X223507931Y-99912531D01*
X223510500Y-99937847D01*
X223510500Y-100001326D01*
X223490498Y-100069447D01*
X223473595Y-100090421D01*
X221530422Y-102033595D01*
X221468110Y-102067620D01*
X221441327Y-102070500D01*
X221389672Y-102070500D01*
X221321551Y-102050498D01*
X221275058Y-101996842D01*
X221264954Y-101926568D01*
X221294448Y-101861988D01*
X221300577Y-101855405D01*
X222172387Y-100983595D01*
X223084133Y-100071848D01*
X223088163Y-100068154D01*
X223119557Y-100041814D01*
X223140041Y-100006331D01*
X223142978Y-100001721D01*
X223159288Y-99978429D01*
X223185789Y-99950746D01*
X223258726Y-99894781D01*
X223284537Y-99861143D01*
X223341876Y-99819276D01*
X223412747Y-99815054D01*
X223474650Y-99849818D01*
G37*
G04 #@! TD.AperFunction*
G04 #@! TA.AperFunction,NonConductor*
G36*
X211878392Y-100932982D02*
G01*
X211898110Y-100949067D01*
X212804448Y-101855405D01*
X212838474Y-101917717D01*
X212833409Y-101988532D01*
X212790862Y-102045368D01*
X212724342Y-102070179D01*
X212715353Y-102070500D01*
X211552837Y-102070500D01*
X211484716Y-102050498D01*
X211438223Y-101996842D01*
X211426837Y-101944749D01*
X211426783Y-101917496D01*
X211426377Y-101711568D01*
X211446244Y-101643412D01*
X211475668Y-101611364D01*
X211535474Y-101565474D01*
X211547732Y-101549500D01*
X211597258Y-101484956D01*
X211624355Y-101449643D01*
X211680228Y-101314754D01*
X211699285Y-101170000D01*
X211684093Y-101054606D01*
X211695032Y-100984460D01*
X211742160Y-100931361D01*
X211810514Y-100912171D01*
X211878392Y-100932982D01*
G37*
G04 #@! TD.AperFunction*
G04 #@! TA.AperFunction,NonConductor*
G36*
X222970784Y-101629363D02*
G01*
X223027620Y-101671910D01*
X223044820Y-101707316D01*
X223045284Y-101707124D01*
X223104316Y-101849641D01*
X223104321Y-101849649D01*
X223193197Y-101965474D01*
X223309022Y-102054350D01*
X223309029Y-102054355D01*
X223428727Y-102103935D01*
X223484006Y-102148482D01*
X223506427Y-102215846D01*
X223488869Y-102284637D01*
X223469602Y-102309438D01*
X222891334Y-102887706D01*
X222829022Y-102921732D01*
X222758207Y-102916667D01*
X222701371Y-102874120D01*
X222677317Y-102815058D01*
X222660228Y-102685246D01*
X222604355Y-102550358D01*
X222515474Y-102434526D01*
X222515472Y-102434524D01*
X222515471Y-102434523D01*
X222399649Y-102345649D01*
X222399646Y-102345647D01*
X222399643Y-102345645D01*
X222397566Y-102344784D01*
X222396089Y-102343594D01*
X222392493Y-102341518D01*
X222392816Y-102340956D01*
X222342290Y-102300235D01*
X222319872Y-102232870D01*
X222337433Y-102164080D01*
X222356693Y-102139288D01*
X222837659Y-101658322D01*
X222899969Y-101624298D01*
X222970784Y-101629363D01*
G37*
G04 #@! TD.AperFunction*
G04 #@! TA.AperFunction,NonConductor*
G36*
X236698967Y-92619739D02*
G01*
X236725481Y-92622059D01*
X236791596Y-92647920D01*
X236833237Y-92705422D01*
X236840499Y-92747579D01*
X236840500Y-104077568D01*
X236820498Y-104145689D01*
X236766842Y-104192182D01*
X236714399Y-104203568D01*
X224605399Y-104193870D01*
X224537294Y-104173813D01*
X224490844Y-104120120D01*
X224479500Y-104067870D01*
X224479500Y-103768621D01*
X224499502Y-103700500D01*
X224516405Y-103679526D01*
X229289527Y-98906405D01*
X229351839Y-98872379D01*
X229378622Y-98869500D01*
X230952868Y-98869500D01*
X230958353Y-98869739D01*
X230999160Y-98873310D01*
X231038735Y-98862705D01*
X231044073Y-98861520D01*
X231084434Y-98854405D01*
X231084435Y-98854404D01*
X231084437Y-98854404D01*
X231089699Y-98852488D01*
X231106322Y-98845603D01*
X231111398Y-98843235D01*
X231111401Y-98843235D01*
X231144973Y-98819726D01*
X231149573Y-98816796D01*
X231185066Y-98796305D01*
X231211408Y-98764910D01*
X231215088Y-98760894D01*
X233300900Y-96675082D01*
X233304918Y-96671400D01*
X233336305Y-96645066D01*
X233356794Y-96609575D01*
X233359728Y-96604972D01*
X233383235Y-96571401D01*
X233385602Y-96566323D01*
X233392488Y-96549699D01*
X233394403Y-96544437D01*
X233394402Y-96544437D01*
X233394405Y-96544434D01*
X233401521Y-96504068D01*
X233402700Y-96498751D01*
X233413310Y-96459160D01*
X233411298Y-96436163D01*
X233409740Y-96418346D01*
X233409500Y-96412854D01*
X233409500Y-96294700D01*
X233429502Y-96226579D01*
X233483158Y-96180086D01*
X233553432Y-96169982D01*
X233618012Y-96199476D01*
X233624591Y-96205601D01*
X233869863Y-96450873D01*
X234087700Y-96668710D01*
X234121725Y-96731022D01*
X234116660Y-96801838D01*
X234115013Y-96806023D01*
X234069772Y-96915245D01*
X234069771Y-96915246D01*
X234050715Y-97059999D01*
X234050715Y-97060000D01*
X234069771Y-97204752D01*
X234125644Y-97339641D01*
X234125649Y-97339649D01*
X234214525Y-97455474D01*
X234330350Y-97544350D01*
X234330357Y-97544355D01*
X234465246Y-97600228D01*
X234610000Y-97619285D01*
X234754754Y-97600228D01*
X234889643Y-97544355D01*
X234889647Y-97544351D01*
X234896281Y-97541604D01*
X234966871Y-97534015D01*
X235030358Y-97565794D01*
X235066586Y-97626852D01*
X235070500Y-97658013D01*
X235070500Y-97806766D01*
X235050498Y-97874887D01*
X235033595Y-97895861D01*
X234268039Y-98661417D01*
X234247075Y-98678313D01*
X234242922Y-98680982D01*
X234242916Y-98680987D01*
X234208340Y-98720889D01*
X234205277Y-98724180D01*
X234193965Y-98735492D01*
X234193960Y-98735498D01*
X234184380Y-98748297D01*
X234181558Y-98751798D01*
X234146974Y-98791710D01*
X234146969Y-98791718D01*
X234144920Y-98796205D01*
X234131186Y-98819355D01*
X234128225Y-98823310D01*
X234128222Y-98823315D01*
X234109768Y-98872791D01*
X234108048Y-98876942D01*
X234086111Y-98924982D01*
X234086111Y-98924983D01*
X234085409Y-98929865D01*
X234078749Y-98955957D01*
X234077025Y-98960578D01*
X234075110Y-98969385D01*
X234074497Y-98969251D01*
X234066965Y-98995741D01*
X234068915Y-98996481D01*
X234009849Y-99152220D01*
X233990693Y-99309996D01*
X233990693Y-99310003D01*
X234009849Y-99467779D01*
X234023471Y-99503695D01*
X234066213Y-99616395D01*
X234156502Y-99747201D01*
X234275471Y-99852599D01*
X234275472Y-99852599D01*
X234275474Y-99852601D01*
X234333708Y-99883164D01*
X234416207Y-99926463D01*
X234570529Y-99964500D01*
X234570530Y-99964500D01*
X234729470Y-99964500D01*
X234729471Y-99964500D01*
X234883793Y-99926463D01*
X235024529Y-99852599D01*
X235143498Y-99747201D01*
X235233787Y-99616395D01*
X235290149Y-99467782D01*
X235290149Y-99467781D01*
X235290150Y-99467779D01*
X235309307Y-99310003D01*
X235309307Y-99309997D01*
X235289767Y-99149070D01*
X235301412Y-99079034D01*
X235325750Y-99044790D01*
X235891961Y-98478579D01*
X235912930Y-98461681D01*
X235917082Y-98459014D01*
X235951667Y-98419099D01*
X235954720Y-98415821D01*
X235957881Y-98412660D01*
X235966036Y-98404506D01*
X235975640Y-98391675D01*
X235978424Y-98388220D01*
X236013026Y-98348289D01*
X236015072Y-98343806D01*
X236028821Y-98320632D01*
X236031776Y-98316687D01*
X236050233Y-98267198D01*
X236051950Y-98263054D01*
X236053566Y-98259516D01*
X236073888Y-98215019D01*
X236074206Y-98212803D01*
X236074589Y-98210146D01*
X236081254Y-98184033D01*
X236082975Y-98179417D01*
X236082974Y-98179417D01*
X236082976Y-98179415D01*
X236086744Y-98126724D01*
X236087220Y-98122289D01*
X236089500Y-98106437D01*
X236089500Y-98090449D01*
X236089661Y-98085953D01*
X236093428Y-98033278D01*
X236093427Y-98033274D01*
X236092379Y-98028454D01*
X236089500Y-98001674D01*
X236089500Y-93400309D01*
X236109502Y-93332188D01*
X236115538Y-93323605D01*
X236170632Y-93251805D01*
X236195530Y-93219358D01*
X236256440Y-93072306D01*
X236277216Y-92914500D01*
X236257131Y-92761944D01*
X236268070Y-92691798D01*
X236315198Y-92638699D01*
X236382053Y-92619500D01*
X236693478Y-92619500D01*
X236698967Y-92619739D01*
G37*
G04 #@! TD.AperFunction*
D39*
X220663778Y-75122943D02*
X220663291Y-77982943D01*
X225249836Y-78398985D02*
X221093778Y-78392942D01*
X225670292Y-75108497D02*
G75*
G03*
X225239835Y-74698499I-410392J97D01*
G01*
X226460643Y-74538829D02*
G75*
G03*
X226030078Y-74128831I-410843J-371D01*
G01*
X226069436Y-79211624D02*
G75*
G03*
X226479435Y-78781171I64J410424D01*
G01*
X225670322Y-75108497D02*
X225659835Y-77968498D01*
X221073259Y-74692476D02*
G75*
G03*
X220663261Y-75122943I41J-410524D01*
G01*
X220273261Y-74118628D02*
X221073259Y-74118185D01*
X225239835Y-74124302D02*
G75*
G03*
X225239835Y-74698498I-35J-287098D01*
G01*
X226030078Y-74128830D02*
X225239835Y-74124227D01*
X220300428Y-79193974D02*
X226069436Y-79211658D01*
X219863780Y-74549115D02*
X219869941Y-78783975D01*
X221073259Y-74692415D02*
G75*
G03*
X221073259Y-74118185I41J287115D01*
G01*
X226479435Y-78781171D02*
X226460565Y-74538829D01*
X220273261Y-74118664D02*
G75*
G03*
X219863262Y-74549115I-261J-410236D01*
G01*
X220663267Y-77982943D02*
G75*
G03*
X221093778Y-78392942I410433J-57D01*
G01*
X219870027Y-78783975D02*
G75*
G03*
X220300428Y-79193974I410173J-325D01*
G01*
X225249836Y-78399027D02*
G75*
G03*
X225659834Y-77968498I64J410427D01*
G01*
D40*
G04 #@! TO.C,REF\u002A\u002A*
X191070000Y-107825484D02*
X191065611Y-81184721D01*
X192031096Y-108852335D02*
X195951607Y-108847665D01*
X192092462Y-80223625D02*
X204927538Y-80196375D01*
X199232416Y-116227976D02*
X199261449Y-112190009D01*
X200193512Y-117254827D02*
X225677339Y-117228648D01*
X208266236Y-71804151D02*
X208269882Y-76886533D01*
X209293087Y-70843055D02*
X234526912Y-70836946D01*
X226704190Y-116267552D02*
X226712580Y-112217092D01*
X235488008Y-71863797D02*
X235477203Y-76886194D01*
X238787045Y-80228538D02*
X242954116Y-80231462D01*
X242890000Y-108880000D02*
X230054924Y-108907250D01*
X243915212Y-81258313D02*
X243916851Y-107918904D01*
X192092462Y-80223625D02*
G75*
G03*
X191065612Y-81184721I-16851J-1011096D01*
G01*
X191070000Y-107825484D02*
G75*
G03*
X192031096Y-108852335I1011100J-16848D01*
G01*
X199261449Y-112190009D02*
G75*
G03*
X195951607Y-108847665I-3309842J32344D01*
G01*
X199232416Y-116227976D02*
G75*
G03*
X200193512Y-117254826I1011092J-16855D01*
G01*
X209293087Y-70843057D02*
G75*
G03*
X208266237Y-71804151I-16869J-1011076D01*
G01*
X204927538Y-80196375D02*
G75*
G03*
X208269882Y-76886533I32330J3309856D01*
G01*
X225677339Y-117228644D02*
G75*
G03*
X226704190Y-116267552I16891J1011054D01*
G01*
X230054924Y-108907248D02*
G75*
G03*
X226712580Y-112217092I-32324J-3309862D01*
G01*
X235487950Y-71863796D02*
G75*
G03*
X234526912Y-70836947I-1011050J16896D01*
G01*
X235477220Y-76886194D02*
G75*
G03*
X238787045Y-80228538I3309880J-32306D01*
G01*
X243915255Y-81258314D02*
G75*
G03*
X242954116Y-80231462I-1011455J16514D01*
G01*
X242890000Y-108879999D02*
G75*
G03*
X243916850Y-107918904I16810J1011139D01*
G01*
G04 #@! TD*
M02*
